<?xml version="1.0" encoding="utf-8"?>
<!-- Generator: Adobe Illustrator 17.1.0, SVG Export Plug-In . SVG Version: 6.00 Build 0)  -->
<!DOCTYPE svg PUBLIC "-//W3C//DTD SVG 1.1//EN" "http://www.w3.org/Graphics/SVG/1.1/DTD/svg11.dtd">
<svg version="1.1" id="Canvas" xmlns="http://www.w3.org/2000/svg" xmlns:xlink="http://www.w3.org/1999/xlink" x="0px" y="0px"
	 width="14513.4px" height="14513.4px" viewBox="0 0 14513.4 14513.4" enable-background="new 0 0 14513.4 14513.4"
	 xml:space="preserve">
<path fill="#010202" d="M6547.3,10388.5c50.5,0,101.4,0,151.9,0v780.4c91.4,0,162.3,0,243.3,0v121.5c-131.9,0-263.4,0-395.2,0
	V10388.5z M3496.9,6445.8c-151.9-40.5-283.8-30.5-435.7,0v-425.7c121.5-10,243.3-20.4,374.8,0c70.9,0,60.9,10,60.9,81V6445.8z
	 M13276.7,10388.5c0,50.5,0,91.4,0,131.9h-151.9c0,263.4,0,516.7,0,770.4h-162.3c0-243.3,0-506.7,0-770.4h-162.3
	c0-40.5,0-81,0-131.9L13276.7,10388.5L13276.7,10388.5z M2270.3,11300.4c0-263.4,0-516.7,0-780.4H2108c0-40.5,0-81,0-131.9h476.2
	c0,40.5,0,91.4,0,131.9h-162.3c0,263.4,0,527.1,0,780.4H2270.3z M14371.4,10388.5l-81,192.4c-40.5,101.4-81,202.8-111.4,304.2
	c-10,40.5-10,70.9-10,101.4c-10,101.4,0,212.8,0,304.2c-60.9,0-111.4,0-162.3,0v-30.5c0-81,0-162.3,0-243.3
	c0-50.5,0-111.4-30.5-172.4c-50.5-151.9-111.4-304.2-172.4-456.2h162.3c40.5,131.9,81,253.3,121.5,395.2l50.5-151.9
	c20.4-70.9,40.5-151.9,70.9-222.9c0-10,10-20.4,20.4-20.4L14371.4,10388.5L14371.4,10388.5z M9922.1,10884.8c-71,0-141.9,0-212.8,0
	v283.8c81,0,162.3,0,243.3,0v121.5c-131.9,0-253.3,0-395.2,0v-901.9c131.9,0,253.3,0,374.8,0v131.9c-70.9,0-141.9,0-222.9,0v243.3
	c71,0,141.9,0,212.8,0V10884.8z M10824.4,10560.5c-20.4,131.9-40.5,253.3-60.9,374.8c40.5,0,81,0,131.9,0L10824.4,10560.5z
	 M10966.3,11290.4c-20.4-60.9-40.5-121.5-40.5-192.4c-10-20.4-20.4-40.5-40.5-40.5c-50.5,10-91.4,0-141.9,0l-50.5,202.8
	c0,30.5-10,40.5-40.5,40.5h-111.4c10-30.5,20.4-60.9,20.4-91.4c40.5-151.9,70.9-304.2,101.4-445.8l70.9-354.7
	c10-20.4,20.4-20.4,40.5-20.4h121.5c10,0,30.5,10,30.5,20.4c40.5,202.8,81,415.7,131.9,618.1c20.4,91.4,30.5,182.4,50.5,263.4
	L10966.3,11290.4L10966.3,11290.4z M1348.4,10560.5c-30.5,121.5-40.5,253.3-70.9,374.8h131.9
	C1398.9,10803.8,1368.4,10682.3,1348.4,10560.5z M1439.4,11067.5H1257c-20.4,70.9-30.5,151.9-50.5,233.3h-141.9
	c60.9-304.2,131.9-608.1,202.8-912.3h172.4c70.9,293.8,121.5,608.1,192.4,901.9c-50.5,0-101.4,0-151.9,0L1439.4,11067.5z
	 M5706.4,10935.7c-20.4-121.5-40.5-253.3-60.9-374.8c-30.5,121.5-50.5,253.3-70.9,374.8H5706.4z M5503.5,11300.4h-141.9
	c60.9-304.2,131.9-608.1,202.8-912.3h151.9c10,0,20.4,10,20.4,20.4c70.9,293.8,121.5,577.6,182.4,871.5c10,10,0,10,0,20.4h-121.5
	c-10-10-20.4-20.4-20.4-30.5l-50.5-212.8c-50.5,0-91.4,10-141.9,0c-20.4,0-30.5,20.4-40.5,40.5
	C5534,11168.6,5523.6,11229.5,5503.5,11300.4z M4449.3,10803.8c60.9,0,111.4,0,141.9-60.9c40.5-60.9,40.5-111.4,20.4-172.4
	c-10-50.5-91.4-91.4-131.9-70.9c-10,0-30.5,20.4-30.5,30.5V10803.8z M4307.4,10398.5c91.4-20.4,192.4-30.5,293.8,0
	c111.4,20.4,162.3,91.4,172.4,192.4c10,111.4-20.4,212.8-131.9,273.8c111.4,70.9,101.4,182.4,121.5,293.8
	c10,50.5,30.5,91.4,40.5,141.9h-141.9c-10,0-20.4-10-20.4-30.5l-50.5-243.3c-20.4-70.9-50.5-111.4-141.9-101.4v364.8
	c-50.5,0-91.4,0-141.9,0v-891.5H4307.4z M12952.5,5483c-101.4,0-182.4,0-283.8,0V3213c91.4,0,182.4,0,283.8,0V5483z M8695.9,6061
	c131.9,0,253.3,0,374.8,0v2918.9c-121.5,0-243.3,0-374.8,0V6061z M13510,4479.7c0,243.3,0,476.2,0,709.5h810.9
	c0,101.4,0,192.4,0,293.8h-1084.3c0-760,0-1510,0-2270h1064.2c0,91.4,0,192.4,0,293.8h-790.5c0,222.9,0,445.8,0,689.1h760
	c0,91.4,0,192.4,0,283.8H13510z M5858.3,5483c0-760,0-1510,0-2270h1064.2c0,91.4,0,192.4,0,293.8h-780.4c0,222.9,0,445.8,0,689.1
	h760c0,91.4,0,192.4,0,283.8h-760c0,243.3,0,476.2,0,709.5H6953c0,101.4,0,192.4,0,293.8H5858.3z M7094.5,6061
	c121.5,0,243.3,0,364.8,0v2523.7c344.7,0,669,0,1013.3,0v395.2c-456.2,0-912.3,0-1378.5,0V6061H7094.5z M11402,4206.3
	c91.4-10,172.4-10,253.3-10c121.5-20.4,202.8-81,243.3-192.4c40.5-91.4,40.5-172.4,30.5-263.4c-30.5-101.4-81-172.4-172.4-212.8
	c-40.5-20.4-91.4-20.4-141.9-20.4c-60.9-10-131.9-10-212.8-10V4206.3z M11402,5483h-273.8c0-760,0-1510,0-2270h40.5
	c162.3,0,324.3-10,476.2,0c233.3,10,415.7,101.4,516.7,324.3c40.5,81,60.9,162.3,60.9,253.3c0,101.4,0,202.8-40.5,293.8
	c-40.5,141.9-121.5,253.3-283.8,314.3l81,81c101.4,91.4,162.3,212.8,233.3,334.3c111.4,212.8,212.8,435.7,344.7,638.5
	c10,0,20.4,20.4,20.4,40.5c-111.4,0-202.8,0-304.2-10c-10,0-30.5-10-30.5-20.4l-172.4-314.3c-70.9-141.9-151.9-273.8-233.3-415.7
	c-50.5-81-111.4-151.9-192.4-202.8c-70.9-50.5-151.9-40.5-243.3-40.5V5483H11402z M5564.5,5493.4c-70.9,0-151.9,0-212.8-10
	c-20.4,0-30.5-10-30.5-20.4c-111.4-141.9-202.8-293.8-304.2-435.7l-496.6-729.9c-121.5-182.4-243.3-364.8-364.8-547.2
	c0,577.6,0,1155.2,0,1732.9h-243.3c0-760,0-1510,0-2270H4115c0,0,20.4,10,30.5,20.4l364.8,557.6
	c162.3,233.3,324.3,466.2,476.2,709.5c101.4,141.9,202.8,293.8,304.2,435.7c0,0,0,0,10,10V3213.3c91.4,0,172.4,0,263.4,0v2280
	H5564.5z M2199.4,5483H1936c0-760,0-1510,0-2270h212.8c10,0,20.4,10,20.4,20.4c121.5,172.4,233.3,344.7,344.7,506.7
	c162.3,243.3,314.3,476.2,476.2,709.5c111.4,162.3,233.3,324.3,344.7,506.7V3213c91.4,0,172.4,0,253.3,0v2280.4
	c-70.9,0-141.9,0-202.8-10c-20.4,0-30.5-10-40.5-20.4l-334.3-506.7c-172.4-243.3-334.3-496.6-506.7-740
	c-91.4-141.9-202.8-304.2-304.2-445.8V5483H2199.4z M8128.3,4966.3c222.9-598.1,445.8-1175.7,669-1753.3c91.4,0,172.4,0,263.4,0
	v2270c-91.4,0-182.4,0-283.8,0V4023.5c0,0,0,0,0-10l-577.6,1479.9c-40.5,0-91.4,0-121.5-10c-20.4,0-40.5-10-50.5-30.5
	c-141.9-364.8-283.8-729.6-425.7-1104.7c-40.5-111.4-81-233.3-141.9-354.7c0,506.7,0,993.3,0,1489.9h-273.8c0-760,0-1510,0-2270
	h263.4C7682.5,3790.6,7895.4,4368.2,8128.3,4966.3z M2736.9,6111.5v273.8c0,50.5-10,91.4,0,141.9c0,50.5-20.4,70.9-50.5,101.4
	c-202.8,162.3-324.3,364.8-374.8,618.1c-20.4,111.4-30.5,222.9-30.5,324.3c10,233.3,50.5,435.7,182.4,638.5
	c111.4,151.9,233.3,273.8,405.3,354.7c91.4,40.5,182.4,60.9,273.8,81c182.4,10,344.7,0,506.7-70.9c91.4-40.5,172.4-81,243.3-151.9
	c111.4-91.4,202.8-212.8,263.4-344.7c50.5-111.4,91.4-233.3,111.4-354.7c0-81,10-162.3,10-243.3c-10-253.3-81-486.6-243.3-689.1
	c-70.9-81-141.9-151.9-222.9-202.8c-10-10-20.4-20.4-20.4-30.5v-456.2c91.4,40.5,182.4,91.4,253.3,141.9
	c70.9,50.5,131.9,101.4,192.4,162.3c182.4,192.4,324.3,425.7,374.8,699.5c20.4,91.4,30.5,182.4,40.5,283.8
	c10,70.9,10,151.9,10,233.3c-20.4,202.8-50.5,395.2-131.9,587.7c-81,182.4-192.4,334.3-334.3,476.2
	c-182.4,172.4-395.2,273.8-638.5,334.3c-131.9,30.5-283.8,30.5-425.7,20.4c-253.3-20.4-476.2-101.4-679-263.4
	c-172.4-141.9-314.3-314.3-415.7-527.1c-60.9-121.5-91.4-253.3-121.5-395.2c-30.5-151.9-30.5-304.2-20.4-466.2
	c10-192.4,60.9-385.2,141.9-567.6c81-192.4,212.8-354.7,364.8-496.6c91.4-91.4,192.4-151.9,304.2-202.8
	C2706.4,6121.5,2716.5,6121.5,2736.9,6111.5z M385.5,6435.8v881.9c141.9-10,283.8-10,415.7-30.5c151.9-10,263.4-91.4,314.3-233.3
	c50.5-101.4,60.9-202.8,40.5-314.3c-10-70.9-40.5-141.9-101.4-192.4c-70.9-81-172.4-101.4-263.4-111.4
	C658.9,6425.7,527.4,6435.8,385.5,6435.8z M385.5,8594.3c10,0,20.4,10,20.4,10c212.8-10,415.7,10,618.1-20.4
	c111.4-10,202.8-70.9,263.4-162.3c70.9-101.4,111.4-212.8,91.4-344.7c-20.4-121.5-70.9-222.9-182.4-304.2
	c-91.4-70.9-212.8-91.4-334.3-91.4H426.4c-10,0-20.4,0-40.5,0v913.1H385.5z M20.8,8979.5c0-972.9,0-1945.7,0-2918.9h40.5
	c243.3,0,486.6,0,729.6,0c121.5,0,243.3,30.5,364.8,81c202.8,91.4,324.3,253.3,364.8,476.2c40.5,172.4,40.5,354.7-40.5,516.7
	c-60.9,111.4-151.9,192.4-253.3,263.4l-30.5,20.4c-10,0-10,10-10,0c81,40.5,162.3,70.9,233.3,111.4
	c172.4,101.4,283.8,253.3,324.3,445.8c50.5,233.3,20.4,445.8-101.4,648.6c-60.9,91.4-141.9,162.3-243.3,222.9
	c-111.4,70.9-233.3,111.4-364.8,121.5c-192.4,10-374.8,10-567.6,10c-131.9,0-263.4,0-405.3,0H20.8V8979.5z M9831.1,6739.6
	c0,750,0,1489.9,0,2239.9h-354.7c0-972.9,0-1945.7,0-2918.9h111.4c50.5,0,111.4,0,162.3,0c30.5,0,40.5,0,60.9,30.5
	c162.3,222.9,324.3,445.8,476.2,658.6c141.9,192.4,273.8,374.8,395.2,567.6c162.3,212.8,324.3,445.8,486.6,658.6
	c70.9,101.4,141.9,192.4,202.8,304.2c10,0,20.4,10,30.5,20.4V6060.6c131.9,0,243.3,0,364.8,0v2918.9c-10,0-20.4,0-30.5,0h-273.8
	c-10,0-40.5-20.4-50.5-40.5c-101.4-131.9-202.8-283.8-314.3-425.7l-577.6-820.9c-141.9-172.4-273.8-374.8-405.3-557.6
	C10023.5,7013.4,9932.5,6881.5,9831.1,6739.6z M5270.3,7347.7l374.8-30.5c141.9,0,253.3-81,324.3-212.8
	c50.5-111.4,60.9-233.3,30.5-354.7c-20.4-131.9-101.4-243.3-222.9-283.8c-70.9-20.4-141.9-40.5-212.8-40.5
	c-101.4-10-192.4,0-293.8,0V7347.7z M6000.2,7571c172.4,111.4,293.8,263.4,385.2,435.7c121.5,222.9,222.9,445.8,344.7,669
	c101.4,182.4,222.9,374.8,344.7,557.6c81,141.9,192.4,273.8,304.2,395.2c101.4,121.5,222.9,243.3,344.7,364.8l40.5,40.5
	c-30.5,0-40.5,0-50.5,0H7268c-20.4,0-30.5,0-50.5-20.4c-212.8-222.9-385.2-466.2-547.2-709.5c-60.9-91.4-121.5-182.4-162.3-273.8
	l-263.4-506.7c-91.4-151.9-172.4-314.3-263.4-476.2c-81-131.9-202.8-243.3-364.8-304.2c-50.5-10-91.4-20.4-141.9-20.4
	c-60.9-10-131.9-10-202.8-10v1266.7c-121.5,0-243.3,0-364.8,0V6060.2c20.4,0,20.4,0,40.5,0h657.5c182.4,0,364.8,50.5,506.7,162.3
	c151.9,121.5,243.3,273.8,273.8,456.2c0,91.4,10,192.4,10,273.8c-10,182.4-60.9,334.3-182.4,466.2
	C6142.1,7479.6,6081.2,7530.5,6000.2,7571z M3324.5,11310.5c-131.9-50.5-162.3-162.3-172.4-293.8V10429c0-10,0-30.5,0-40.5h151.9
	c0,10,0,20.4,0,40.5v506.7c0,60.9,0,111.4,10,162.3c20.4,60.9,60.9,81,101.4,81c50.5-10,81-50.5,91.4-101.4c0-70.9,0-141.9,0-202.8
	c0-162.3,0-324.3,0-486.6h162.3c0,10,0,20.4,0,40.5v537.1c-10,50.5-10,101.4-30.5,151.9c-20.4,91.4-70.9,162.3-162.3,192.4h-151.9
	V11310.5z M11878.2,11310.5c-111.4-40.5-172.4-131.9-172.4-243.3c-10-222.9,0-456.2,0-679h151.9c0,10,0,30.5,0,50.5v567.6
	c0,40.5,0,70.9,10,91.4c20.4,60.9,50.5,81,91.4,81c30.5-10,70.9-50.5,81-91.4c10-40.5,10-81,10-111.4c0-172.4,0-364.8,0-537.1v-50.5
	c50.5,0,101.4,0,151.9,0v30.5c0,192.4,10,385.2,0,587.7c0,81-10,162.3-60.9,212.8c-40.5,40.5-81,60.9-121.5,91.4H11878.2z
	 M0.3,10388.5h101.4c30.5,0,40.5,0,40.5,20.4c60.9,151.9,121.5,293.8,182.4,435.7c20.4,50.5,30.5,101.4,60.9,162.3
	c0-212.8,0-415.7,0-618.1H507c0,293.8,0,608.1,0,912.3H385.5c0,0-20.4-10-20.4-30.5c-60.9-141.9-121.5-293.8-182.4-445.8
	c-20.4-50.5-40.5-101.4-50.5-151.9v628.5c-40.5,0-81,0-131.9,0L0.3,10388.5L0.3,10388.5z M8554,10763.3c60.9,0,101.4-10,141.9-50.5
	c30.5-60.9,30.5-131.9,0-182.4c-40.5-40.5-91.4-40.5-141.9-30.5V10763.3z M8554,11179c71,20.4,131.9,0,162.3-50.5
	c30.5-70.9,30.5-121.5,0-182.4c-40.5-60.9-101.4-60.9-162.3-70.9c0,10,0,30.5,0,40.5V11179z M8442.5,11310.5
	c-20.4-10-30.5-10-40.5-20.4v-891.9c101.4-20.4,212.8-40.5,334.3,0c81,30.5,121.5,101.4,121.5,192.4c10,91.4-30.5,172.4-111.4,212.8
	c151.9,81,172.4,222.9,131.9,344.7c-30.5,101.4-111.4,141.9-212.8,151.9c-10,0-20.4,0-30.5,10h-192.4V11310.5z M10074.4,3729.7
	L10074.4,3729.7l-273.8,790.5c192.4,0,385.2,0,567.6,0L10074.4,3729.7z M10175.8,3202.9c283.8,750,557.6,1520.4,841.4,2280.4
	c-91.4,0-182.4,0-283.8,0l-243.3-638.5c0-10-10-30.5-30.5-30.5h-750c-30.5,0-30.5,30.5-40.5,40.5
	c-30.5,111.4-60.9,202.8-101.4,304.2c-30.5,111.4-70.9,212.8-111.4,324.3c-91.4,0-192.4,0-283.8,0l91.4-273.8
	c60.9-162.3,121.5-324.3,172.4-486.6l324.3-932.4c70.9-202.8,141.9-395.2,212.8-587.7L10175.8,3202.9L10175.8,3202.9z M628.8,4520.1
	h577.6c-101.4-273.8-202.8-527.1-293.8-810.9C811.2,3983,719.8,4246.7,628.8,4520.1z M1003.6,3202.9
	c30.5,60.9,40.5,111.4,70.9,172.4c50.5,172.4,121.5,334.3,182.4,506.7c81,233.3,172.4,456.2,253.3,679
	c101.4,273.8,202.8,537.1,293.8,810.9c20.4,30.5,30.5,70.9,40.5,121.5c-81,0-172.4,0-253.3-10c-20.4,0-30.5-20.4-30.5-30.5
	c-81-202.8-162.3-425.7-243.3-638.5H517c-20.4,81-50.5,162.3-81,243.3c-50.5,131.9-91.4,263.4-131.9,385.2
	c-10,30.5-30.5,50.5-60.9,50.5c-81-10-162.3,0-243.3,0c0-10,0-20.4,0-20.4l10-10c50.5-131.9,91.4-263.4,131.9-395.2l283.8-790.5
	c101.4-283.8,202.8-577.6,304.2-861.4c20.4-70.9,40.5-141.9,60.9-212.8H1003.6z M12567.3,6435.8v2169c151.9,0,304.2,0,456.2-10
	c111.4,0,212.8-10,334.3-20.4c131.9-30.5,273.8-81,385.2-172.4c162.3-131.9,273.8-293.8,334.3-496.6
	c50.5-162.3,70.9-344.7,50.5-516.7c0-111.4-30.5-233.3-70.9-344.7c-70.9-172.4-182.4-314.3-334.3-425.7
	c-172.4-131.9-364.8-182.4-587.7-182.4c-172.4,0-344.7,0-516.7,0L12567.3,6435.8L12567.3,6435.8z M14513.3,7682.4l-20.4,151.9
	c-30.5,121.5-60.9,233.3-111.4,344.7c-91.4,192.4-212.8,354.7-364.8,486.6c-151.9,141.9-334.3,233.3-527.1,273.8
	c-70.9,20.4-141.9,30.5-212.8,30.5c-364.8,0-709.5,10-1053.8,10h-30.5c0-972.9,0-1945.7,0-2918.9h40.5c314.3,0,628.5,0,942.4,0
	c141.9,0,293.8,30.5,425.7,70.9c222.9,60.9,405.3,182.4,557.6,354.7c91.4,101.4,172.4,222.9,212.8,354.7
	c40.5,111.4,81,222.9,111.4,324.3c10,50.5,10,111.4,20.4,151.9c0,10,10,20.4,10,30.5L14513.3,7682.4L14513.3,7682.4z"/>
</svg>
