<?xml version="1.0" encoding="utf-8"?>
<!-- Generator: Adobe Illustrator 17.1.0, SVG Export Plug-In . SVG Version: 6.00 Build 0)  -->
<!DOCTYPE svg PUBLIC "-//W3C//DTD SVG 1.1//EN" "http://www.w3.org/Graphics/SVG/1.1/DTD/svg11.dtd">
<svg version="1.1" id="Canvas" xmlns="http://www.w3.org/2000/svg" xmlns:xlink="http://www.w3.org/1999/xlink" x="0px" y="0px"
	 width="14513.4px" height="14513.4px" viewBox="0 0 14513.4 14513.4" enable-background="new 0 0 14513.4 14513.4"
	 xml:space="preserve">
<path fill="#010202" d="M3448.4,9255.8v-328.9c-61.6-77-154.3-149-251.9-210.8L2178.9,5776.4h-858.2L298.1,8716.2
	c-113,51.4-215.9,128.5-298,210.8v328.9h1290v-328.9c-87.4-82.3-185-154.3-303.3-210.8l102.9-323.8h1048.5l113,323.8
	c-118.3,51.4-226,128.5-318.7,210.8v328.9H3448.4z M10211.8,7524c0,837.7-370,1207.8-842.8,1207.8c-205.5,0-334-15.4-441.9-51.4
	V6275.1c92.5-10.4,195.3-15.4,308.4-15.4C10016.5,6259.6,10211.8,6845.4,10211.8,7524z M11126.5,7446.7
	c0-1212.9-621.8-1680.6-1747.3-1680.6c-467.7,0-1053.6,20.5-1336.3,20.5h-421.4v323.8c133.6,77,287.8,179.9,431.7,226v2369.3
	c-159.4,41.1-298,138.8-431.7,221v329.1h436.8c154.3,0,704.1,20.5,1084.4,20.5C10273.4,9276.4,11126.5,8634,11126.5,7446.7z
	 M5940.9,6809.5c0,339.3-174.8,549.9-519.1,549.9h-236.4V6280c51.4-10.4,133.6-20.5,210.8-20.5
	C5791.9,6259.6,5940.9,6516.5,5940.9,6809.5z M7087.1,9214.8l-41.1-385.4c-483.2,92.5-339.3-1176.9-899.5-1243.8
	c405.9-128.5,693.8-431.7,693.8-894.2c0-637.3-483.2-930.2-1290-930.2c-498.4,0-1141,25.6-1269.4,25.6h-395.8v323.8
	c128.5,77,287.8,179.9,431.7,221v2379.5c-159.4,41.1-303.3,133.6-431.7,215.9v328.9h1603.4v-328.9c-87.4-77-179.9-159.4-303.3-215.9
	v-858.2h159.4c539.7,0,349.4,1459.7,1146,1459.7C6681,9312.3,6907.2,9286.7,7087.1,9214.8z M1994,7909.4h-765.7l370-1248.9
	L1994,7909.4z M13115.5,5401.4c-657.8,0-1192.4,529.3-1192.4,1182s534.4,1182,1192.4,1182c663.1,0,1192.4-529.3,1192.4-1182
	S13778.6,5401.4,13115.5,5401.4z M13680.8,7148.7V5761l-1408.3,498.4v344.3l467.7-164.4v1038.3L13680.8,7148.7z M13115.5,5201
	c776.1,0,1397.9,621.8,1397.9,1382.5c0,765.7-621.8,1387.7-1397.9,1387.7c-771,0-1397.9-621.8-1397.9-1387.7
	C11717.6,5822.8,12344.7,5201,13115.5,5201z"/>
</svg>
