<?xml version="1.0" encoding="utf-8"?>
<!-- Generator: Adobe Illustrator 17.1.0, SVG Export Plug-In . SVG Version: 6.00 Build 0)  -->
<!DOCTYPE svg PUBLIC "-//W3C//DTD SVG 1.1//EN" "http://www.w3.org/Graphics/SVG/1.1/DTD/svg11.dtd">
<svg version="1.1" id="Canvas" xmlns="http://www.w3.org/2000/svg" xmlns:xlink="http://www.w3.org/1999/xlink" x="0px" y="0px"
	 width="14513.4px" height="14513.4px" viewBox="0 0 14513.4 14513.4" enable-background="new 0 0 14513.4 14513.4"
	 xml:space="preserve">
<path fill="#010202" d="M11531.4,10215.6c-911.5,1290.1-2440.1,2145.6-4164.9,2145.6c-2790.6,0-5090.5-2299.8-5090.5-5118.5
	s2299.8-5090.5,5090.5-5090.5s5048.4,2215.7,5118.5,4964.2c154.3,14,336.6,42.1,504.8,56.1
	c-42.1-3057.1-2538.2-5525.2-5623.3-5525.2c-3099.1,0-5595.3,2496.1-5595.3,5595.3S4267.4,12866,7366.5,12866
	c1893.1,0,3575.9-939.6,4571.6-2355.9L11531.4,10215.6z M14209.9,5812.3c-56.1,0-140.2,14-168.3,70.1l-1107.8,1107.8
	c0-154.3,14-280.5,14-434.7h-504.8c0,126.2-14,266.4-14,392.7l-1065.8-1065.8c-56.1-56.1-112.2-70.1-182.3-70.1
	c-126.2,0-238.4,112.2-238.4,238.4c0,70.1,14,126.2,70.1,182.3l1514.5,1514.5c28,42.1,112.2,84.1,168.3,84.1
	c70.1,0,126.2-42.1,182.3-84.1L14392.2,6233c28-56.1,70.1-112.2,70.1-182.3C14462.3,5924.5,14350.1,5812.3,14209.9,5812.3z"/>
</svg>
