<?xml version="1.0" encoding="utf-8"?>
<!-- Generator: Adobe Illustrator 18.0.0, SVG Export Plug-In . SVG Version: 6.00 Build 0)  -->
<!DOCTYPE svg PUBLIC "-//W3C//DTD SVG 1.1//EN" "http://www.w3.org/Graphics/SVG/1.1/DTD/svg11.dtd">
<svg version="1.1" id="Canvas" xmlns="http://www.w3.org/2000/svg" xmlns:xlink="http://www.w3.org/1999/xlink" x="0px" y="0px"
	 viewBox="0 0 14513.4 14513.4" enable-background="new 0 0 14513.4 14513.4" xml:space="preserve">
<g>
	<defs>
		<rect id="SVGID_1_" y="5373.9" width="14513.4" height="3765.6"/>
	</defs>
	<clipPath id="SVGID_2_">
		<use xlink:href="#SVGID_1_"  overflow="visible"/>
	</clipPath>
	<g clip-path="url(#SVGID_2_)">
		<defs>
			<rect id="SVGID_3_" y="5374" width="14513.4" height="3765.5"/>
		</defs>
		<clipPath id="SVGID_4_">
			<use xlink:href="#SVGID_3_"  overflow="visible"/>
		</clipPath>
		<g clip-path="url(#SVGID_4_)">
			<g>
				<defs>
					<rect id="SVGID_5_" x="-478.7" y="4493.1" width="15485.2" height="5011.3"/>
				</defs>
				<clipPath id="SVGID_6_">
					<use xlink:href="#SVGID_5_"  overflow="visible"/>
				</clipPath>
				<path clip-path="url(#SVGID_6_)" fill="#88B688" d="M14231.2,8030.7c-94.4-1.6-188.6-3.2-282.9-4.7c0.3-71.4,0.7-143,1.1-214.5
					C13995.4,7565.1,14214.9,7871.5,14231.2,8030.7 M13609.4,7913.2c-311.2-58.1-630.7-100.9-847-335.8
					C12942.3,7151.6,13361,7792.6,13609.4,7913.2 M13331.3,6943.2c72.4-4.7,79.1-136.2,170.3-104.6
					C13588.2,7104.1,13307.8,7151,13331.3,6943.2 M0,9139.5c4045.3-3661.6,8471.1-4429.8,12708-1992
					c-60.3,533.5-400.9,525.5-682.1,632.4c643.1,179.7,1715.4,486,2487.4,362.8c-246.2-745.8-779.2-957.7-1066.9-1626.5
					c-260.4,2.7-368.7,298.8-567.8,419.8C7364.6,3502.3,2275,6410.9,0,9139.5"/>
			</g>
		</g>
	</g>
</g>
</svg>
