<?xml version="1.0" encoding="utf-8"?>
<!-- Generator: Adobe Illustrator 17.1.0, SVG Export Plug-In . SVG Version: 6.00 Build 0)  -->
<!DOCTYPE svg PUBLIC "-//W3C//DTD SVG 1.1//EN" "http://www.w3.org/Graphics/SVG/1.1/DTD/svg11.dtd">
<svg version="1.1" id="Canvas" xmlns="http://www.w3.org/2000/svg" xmlns:xlink="http://www.w3.org/1999/xlink" x="0px" y="0px"
	 width="14513.4px" height="14513.4px" viewBox="0 0 14513.4 14513.4" enable-background="new 0 0 14513.4 14513.4"
	 xml:space="preserve">
<path fill="#010202" d="M14513.4,6332.3v90.5c-56.5,28.3-141.3,50.9-260.1,62.2c-186.6,17-288.3,28.3-316.6,33.9l-186.6,17
	c-96.1,11.3-152.7,33.9-175.3,73.5c-446.7,695.4-882,2216.3-882,3013.5v644.5c0,243.1,11.3,344.9-192.2,344.9
	c-248.8,0-237.5-294-237.5-571c0-571,175.3-1639.6,339.2-2137.1c-684.1,571-1232.5,853.7-1645.3,853.7
	c-214.8,0-407.1-67.8-571-197.9c-158.3-135.7-237.5-305.3-237.5-514.5c0-729.3,1029-2052.3,2097.6-2917.4
	c537.1-441,921.6-655.8,1142.1-638.9c265.7,17,395.8,96.1,395.8,237.5c0,39.6-50.9,147-152.7,327.9c-39.6-130-124.4-186.6-254.4-164
	c-141.3,22.6-367.5,152.7-689.8,384.5c-899,661.5-2131.5,2007.1-2131.5,2725.1c0,333.6,152.7,497.5,452.3,497.5
	c452.3,0,1515.2-848.1,1769.6-1204.3c141.3-203.5,254.4-407.1,339.2-610.6c17-11.3,5.7-17-33.9-17c-96.1,0-344.9,73.5-752,226.2
	c-158.3,62.2-231.8,84.8-339.2,124.4c-50.9,17-90.5,33.9-118.7,45.2c-28.3,11.3-56.5,22.6-79.2,28.3c-28.3,11.3-45.2,17-50.9,22.6
	l-11.3,5.7c-33.9,0-84.8-33.9-158.3-101.8v-203.5c294-294,1634-554.1,2363.3-554.1c186.6,0,350.5,11.3,480.6,33.9
	C14445.5,6298.4,14479.5,6315.3,14513.4,6332.3z M10256.1,5461.6c0-435.3-152.7-882-621.9-882c-469.3,0-1181.7,938.5-1656.6,1956.2
	c-237.5,508.8-356.2,893.3-356.2,1159c0,271.4,118.7,746.3,418.4,746.3c135.7,0,378.8-113.1,729.3-339.2
	C9577.6,7581.8,10256.1,6298.4,10256.1,5461.6z M10634.9,5580.3c0,797.2-616.3,1967.5-1368.2,2651.6
	c-412.7,373.2-797.2,559.7-1153.4,559.7c-565.4,0-899-763.3-899-1164.7c0-1012,1034.7-2713.8,2007.1-3352.7
	c254.4-169.6,418.4-254.4,497.5-254.4c50.9,0,113.1,67.8,113.1,130c0,50.9-33.9,101.8-96.1,158.3
	C10391.7,4376.1,10634.9,4969.7,10634.9,5580.3z M6925.9,7129.5c5.7,39.6,5.7,84.8-5.7,141.3c-180.9,203.5-1068.6,814.2-1204.3,899
	c-424,288.3-576.7,339.2-1057.3,491.9c-311,90.5-520.2,135.7-638.9,135.7c-316.6,0-514.5-412.7-514.5-644.5
	c0-226.2,147-768.9,209.2-904.6c446.7-995.1,1792.3-3347.1,1888.4-3347.1c67.8,0,277,175.3,277,237.5c0,11.3-147,265.7-441,763.3
	c-650.2,1102.5-1487,2459.4-1509.6,3386.6c56.5,56.5,96.1,84.8,113.1,84.8C4443.9,8373.3,5405.1,7960.6,6925.9,7129.5z
	 M1430.4,4828.4c0,96.1-67.8,305.3-203.5,638.9L763.3,6564.1C571,7039,429.7,7423.5,344.9,7717.5c-5.7,22.6-11.3,56.5-22.6,101.8
	c-11.3,45.2-17,79.2-22.6,101.8c-33.9,96.1-101.8,141.3-203.5,147C33.9,8017.1,0,7921,0,7791c0-209.2,180.9-740.7,542.8-1594.4
	c373.2-876.3,565.4-1396.5,576.7-1549.1C1328.7,4630.5,1430.4,4692.7,1430.4,4828.4z M3392.3,6954.2
	c0,633.2-695.4,1260.8-1526.5,1667.9c-373.2,186.6-678.5,277-910.3,277c-746.3,0-819.8-859.4-56.5-1362.6
	c277-192.2,571-339.2,882-435.3h84.8c-474.9,265.7-1142.1,791.5-1142.1,1170.3c0,152.7,73.5,231.8,214.8,226.2
	c565.4-39.6,2041-915.9,2041-1481.3c0-469.3-859.4-718-1249.5-718c-5.7,0-39.6,5.7-90.5,11.3c-50.9,5.7-84.8,11.3-101.8,11.3
	c-175.3,0-231.8-56.5-260.1-243.1l-11.3-135.7c390.1-130,1634-1142.1,1634-1413.5c0-135.7-316.6-214.8-525.8-220.5
	C1781,4268.6,508.8,4534.4,508.8,4851c0,22.6,17,56.5,50.9,101.8l84.8,113.1l-11.3,67.8c-220.5-17-395.8-209.2-395.8-412.7
	c0-22.6,5.7-50.9,11.3-90.5c141.3-361.8,1215.6-672.8,1961.9-672.8c503.2,0,1085.5,141.3,1085.5,542.8
	c0,435.3-831.1,1136.4-1334.3,1470C2702.5,6043.9,3392.3,6349.3,3392.3,6954.2z"/>
</svg>
