<?xml version="1.0" encoding="utf-8"?>
<!-- Generator: Adobe Illustrator 17.1.0, SVG Export Plug-In . SVG Version: 6.00 Build 0)  -->
<!DOCTYPE svg PUBLIC "-//W3C//DTD SVG 1.1//EN" "http://www.w3.org/Graphics/SVG/1.1/DTD/svg11.dtd">
<svg version="1.1" id="Canvas" xmlns="http://www.w3.org/2000/svg" xmlns:xlink="http://www.w3.org/1999/xlink" x="0px" y="0px"
	 width="14513.4px" height="14513.4px" viewBox="0 0 14513.4 14513.4" enable-background="new 0 0 14513.4 14513.4"
	 xml:space="preserve">
<path d="M14355.1,4479.4L8258.9,915.9c-92.6-56.5-206.8-63.3-305.8-19L209.8,4475.2c-118.6,53.3-194.6,171.6-194.1,301.4L0,10047.3
	c0.4,126.6,73.5,241.6,187.7,296l6910.8,3270.3c44.9,21.2,93.1,31.8,141.4,31.8c47.7,0,95.4-10.3,139.7-31.2l6931.8-3237.9
	c115.4-54,189.1-169.7,189.4-297.2l12.6-5317.9C14513.7,4646.2,14453.6,4539.2,14355.1,4479.4z M8065.3,1568.3l5546.9,3150.5
	L7254.5,7727.2L944.8,4815L8065.3,1568.3z M562.1,5362.1l6446.6,2938.7v4494.7L563.2,9837.7L562.1,5362.1z M7552.8,12798.9V8298.6
	l6431.6-3028.6l5.6,4599L7552.8,12798.9z"/>
</svg>
