<?xml version="1.0" encoding="utf-8"?>
<!-- Generator: Adobe Illustrator 16.0.0, SVG Export Plug-In . SVG Version: 6.00 Build 0)  -->
<!DOCTYPE svg PUBLIC "-//W3C//DTD SVG 1.1//EN" "http://www.w3.org/Graphics/SVG/1.1/DTD/svg11.dtd" [
	<!ENTITY ns_extend "http://ns.adobe.com/Extensibility/1.0/">
	<!ENTITY ns_ai "http://ns.adobe.com/AdobeIllustrator/10.0/">
	<!ENTITY ns_graphs "http://ns.adobe.com/Graphs/1.0/">
	<!ENTITY ns_vars "http://ns.adobe.com/Variables/1.0/">
	<!ENTITY ns_imrep "http://ns.adobe.com/ImageReplacement/1.0/">
	<!ENTITY ns_sfw "http://ns.adobe.com/SaveForWeb/1.0/">
	<!ENTITY ns_custom "http://ns.adobe.com/GenericCustomNamespace/1.0/">
	<!ENTITY ns_adobe_xpath "http://ns.adobe.com/XPath/1.0/">
]>
<svg version="1.1" id="Canvas" xmlns:x="&ns_extend;" xmlns:i="&ns_ai;" xmlns:graph="&ns_graphs;"
	 xmlns="http://www.w3.org/2000/svg" xmlns:xlink="http://www.w3.org/1999/xlink" x="0px" y="0px" width="512px" height="512px"
	 viewBox="0 0 512 512" style="enable-background:new 0 0 512 512;" xml:space="preserve">
<metadata>
	<sfw  xmlns="&ns_sfw;">
		<slices></slices>
		<sliceSourceBounds  y="183.03" x="49.5" width="511.999" height="444.732" bottomLeftOrigin="true"></sliceSourceBounds>
	</sfw>
</metadata>
<g>
	<g>
		<polygon points="277.842,197.197 28.551,261.299 31.402,265.291 275.955,202.539 		"/>
		<polygon points="367.119,174.374 338.495,181.485 342.119,185.515 365.396,179.541 365.367,281.586 369.971,280.487 
			369.971,176.583 		"/>
	</g>
	<g>
		<polygon points="459.715,322.329 459.715,376.788 125.956,463.393 125.72,348.294 459.715,262.543 464.236,261.586 
			464.281,259.586 461.43,257.377 122.862,344.31 121.142,346.526 121.381,466.36 124.243,468.571 462.572,380.757 464.281,378.548 
			464.281,321.525 		"/>
	</g>
	<g>
		<polygon points="123.908,342.534 32.404,260.174 28.286,262.494 33.159,267.022 120.092,345.253 120.092,462.634 33.159,384.39 
			33.159,323.308 28.589,319.654 28.589,385.413 29.344,387.108 120.854,469.47 124.67,467.761 124.67,344.235 		"/>
	</g>
	<g>
		<path d="M356.764,223.245c-0.744-0.055-16.191-1.561-27.859-7.657c-12.213-6.383-16.493-14.928-19.639-22.283
			c-2.238-4.479,1.178-10.372,4.715-10.957c8.146-1.359,20.271,4.026,26.414,9.021c5.703,4.637,21.996,21.966,22.146,26.809
			c0,0,0.354,3.182-1.172,4.479C360.535,223.599,356.764,223.245,356.764,223.245z"/>
	</g>
	<g>
		<path d="M225.433,190.711c0,0,14.302-9.761,26.618-12.184c10.158-1.993,22.225-0.166,29.871,2.287
			c3.301,1.06,5.143,4.968,0.723,7.557c-7.102,4.155-19.321,8.81-25.147,8.767C248.044,197.054,226.962,192.513,225.433,190.711z"/>
	</g>
	<g>
		<path d="M215.74,320.649c23.708-29.769,62.719-84.138,70.66-128.288c0.789-4.391,1.018-6.751,1.842-10.998
			c1.297-7.308,2.49-6.111,7.396-5.875c4.948,0.239,9.354,1.908,9.104,6.825c-2.18,43.531-35.983,98.373-62.278,133.376
			L215.74,320.649z"/>
	</g>
	<g>
		<path d="M164.621,393.847l-2.258-0.721l-41.696-47.396l1.167-3.713l339.604-84.65l2.482,0.973l33.789,51.966l-1.377,3.478
			L164.621,393.847z M126.589,345.546l38.301,43.527l327.221-78.989l-31.145-47.873L126.589,345.546z"/>
	</g>
	<g>
		<path d="M509.473,262.756l-47.52-0.875l-1.467-0.567l-94.316-83.011l1.289-3.985l45.744-4.578l1.783,0.597l96.069,88.449
			L509.473,262.756z M462.881,257.325l40.648,0.736l-90.885-83.673l-39.498,3.944L462.881,257.325z"/>
	</g>
	<g>
		<path d="M90.115,375.026L0.136,294.182L0,290.91l29.222-30.613l3.183-0.123l91.504,82.359l0.047,3.345L93.217,374.96
			L90.115,375.026z M4.939,292.371l86.665,77.845l27.402-25.936l-88.005-79.217L4.939,292.371z"/>
	</g>
	<g>
		<path d="M85.261,174.417h-18.64V89.687H43.962l11.251-17.461H85.26v102.192H85.261z"/>
	</g>
	<path d="M127.389,105.443h7.616l20.744,26.4l20.895-26.4h7.62l-24.276,30.768l26.529,34.434h-7.477l-23.284-29.914l-23.141,29.914
		h-7.477l26.529-34.434L127.389,105.443z"/>
	<g>
		<path d="M338.657,116.209c-6.093,24.983-22.63,42.739-22.63,42.739c0.957-0.5,23.219-12.386,30.172-40.894
			c6.771-27.819-1.518-57.114-1.855-58.359C344.344,59.695,344.904,90.441,338.657,116.209 M321.729,105.687
			c3.287-14.15,6.66-48.849,6.66-48.849s-12.965,27.071-17.209,45.015c-4.242,17.93-7.998,54.153-7.998,54.153
			S318.475,119.837,321.729,105.687 M290.805,95.774c6.086-24.967,22.615-42.724,22.615-42.724
			c-0.957,0.49-23.219,12.386-30.158,40.89c-6.791,27.818,1.489,57.107,1.842,58.352C285.104,152.292,284.545,121.54,290.805,95.774
			 M359.9,116.283c-8.31,32.729-30.26,56.211-51.814,57.449c-2.12,0.136-2.312,2.015-3.417,9.79
			c-0.464,3.26-16.706-0.338-16.663-1.757c0.045-1.418,2.674-12.287,0.826-13.554c-17.473-11.988-24.662-42.19-16.53-74.178
			c5.878-23.167,21.761-43.962,36.345-53.273c-3.344,0.365-9.192-9.738,1.474-14.692c12.065-5.613,14.453,8.177,12.979,10.869
			c2.857-0.785,6.467-13.465,17.769-10.582c10.37,2.641,4.67,14.181,1.604,15.153c1.68,1.101,13.717-9.293,20.051-1.636
			c6.939,8.387-5.244,14.7-8.131,14.575C363.318,69.578,365.941,92.501,359.9,116.283"/>
	</g>
	<g>
		<polygon points="278.784,197.197 29.494,261.299 32.345,265.291 276.898,202.539 		"/>
		<polygon points="368.062,174.374 339.438,181.485 343.062,185.515 366.339,179.541 366.311,281.586 370.914,280.487 
			370.914,176.583 		"/>
	</g>
	<g>
		<polygon points="460.657,322.329 460.657,376.788 126.899,463.393 126.663,348.294 460.657,262.543 465.18,261.586 
			465.225,259.586 462.373,257.377 123.805,344.31 122.084,346.526 122.324,466.36 125.186,468.571 463.516,380.757 
			465.225,378.548 465.225,321.525 		"/>
	</g>
	<g>
		<polygon points="124.851,342.534 33.347,260.174 29.229,262.494 34.103,267.022 121.035,345.253 121.035,462.634 34.103,384.39 
			34.103,323.308 29.532,319.654 29.532,385.413 30.287,387.108 121.798,469.47 125.613,467.761 125.613,344.235 		"/>
	</g>
	<g>
		<path d="M357.705,223.245c-0.742-0.055-16.189-1.561-27.857-7.657c-12.214-6.382-16.494-14.927-19.639-22.283
			c-2.24-4.479,1.178-10.372,4.714-10.957c8.147-1.359,20.272,4.026,26.415,9.021c5.701,4.637,21.996,21.966,22.145,26.809
			c0,0,0.353,3.182-1.172,4.479C361.479,223.599,357.705,223.245,357.705,223.245z"/>
	</g>
	<g>
		<path d="M226.377,190.711c0,0,14.301-9.761,26.618-12.184c10.157-1.993,22.224-0.166,29.871,2.287
			c3.3,1.06,5.141,4.968,0.721,7.557c-7.101,4.155-19.319,8.81-25.147,8.767C248.987,197.054,227.905,192.513,226.377,190.711z"/>
	</g>
	<g>
		<path d="M216.682,320.649c23.709-29.769,62.72-84.138,70.662-128.288c0.787-4.391,1.018-6.751,1.842-10.998
			c1.295-7.308,2.488-6.111,7.396-5.875c4.951,0.239,9.354,1.908,9.104,6.825c-2.18,43.531-35.983,98.373-62.277,133.376
			L216.682,320.649z"/>
	</g>
	<g>
		<path d="M165.564,393.847l-2.258-0.721l-41.697-47.396l1.168-3.713l339.604-84.65l2.482,0.973l33.787,51.966l-1.375,3.478
			L165.564,393.847z M127.532,345.546l38.302,43.527l327.221-78.989l-31.145-47.873L127.532,345.546z"/>
	</g>
	<g>
		<path d="M510.415,262.756l-47.521-0.875l-1.465-0.567l-94.316-83.011l1.289-3.985l45.744-4.578l1.783,0.597l96.069,88.449
			L510.415,262.756z M463.824,257.325l40.646,0.736l-90.886-83.673l-39.497,3.944L463.824,257.325z"/>
	</g>
	<g>
		<path d="M86.204,174.417h-18.64V89.687H44.905l11.252-17.461h30.047V174.417z"/>
	</g>
	<path d="M128.331,105.443h7.617l20.743,26.4l20.895-26.4h7.62l-24.275,30.768l26.529,34.434h-7.477l-23.284-29.914l-23.141,29.914
		h-7.478l26.53-34.434L128.331,105.443z"/>
	<g>
		<path d="M339.6,116.209c-6.092,24.983-22.629,42.739-22.629,42.739c0.957-0.5,23.219-12.386,30.172-40.894
			c6.771-27.819-1.518-57.114-1.854-58.359C345.287,59.695,345.846,90.441,339.6,116.209 M322.672,105.687
			c3.285-14.15,6.66-48.849,6.66-48.849s-12.965,27.071-17.209,45.015c-4.242,17.93-8,54.153-8,54.153
			S319.416,119.837,322.672,105.687 M291.748,95.774c6.085-24.967,22.615-42.724,22.615-42.724
			c-0.959,0.49-23.219,12.386-30.158,40.89c-6.791,27.818,1.488,57.107,1.842,58.352C286.047,152.292,285.486,121.54,291.748,95.774
			 M360.844,116.283c-8.309,32.729-30.26,56.211-51.814,57.449c-2.121,0.136-2.312,2.015-3.418,9.79
			c-0.463,3.26-16.707-0.338-16.661-1.757c0.045-1.418,2.674-12.287,0.825-13.554c-17.474-11.988-24.664-42.19-16.53-74.178
			c5.879-23.167,21.76-43.962,36.346-53.273c-3.344,0.365-9.192-9.738,1.474-14.692c12.065-5.613,14.453,8.177,12.979,10.869
			c2.856-0.785,6.468-13.465,17.769-10.582c10.371,2.641,4.67,14.181,1.604,15.153c1.681,1.101,13.715-9.293,20.05-1.636
			c6.94,8.387-5.244,14.7-8.132,14.575C364.262,69.578,366.885,92.501,360.844,116.283"/>
	</g>
</g>
</svg>
