<?xml version="1.0" encoding="utf-8"?>
<!-- Generator: Adobe Illustrator 17.1.0, SVG Export Plug-In . SVG Version: 6.00 Build 0)  -->
<!DOCTYPE svg PUBLIC "-//W3C//DTD SVG 1.1//EN" "http://www.w3.org/Graphics/SVG/1.1/DTD/svg11.dtd">
<svg version="1.1" id="Canvas" xmlns="http://www.w3.org/2000/svg" xmlns:xlink="http://www.w3.org/1999/xlink" x="0px" y="0px"
	 width="14513.4px" height="14513.4px" viewBox="0 0 14513.4 14513.4" enable-background="new 0 0 14513.4 14513.4"
	 xml:space="preserve">
<path fill="#010202" d="M11413,4173H3117.2c-150.8,0-268.1,100.6-268.1,251.4c0,134.1,117.3,251.4,268.1,251.4H11413
	c134.1,0,251.4-117.3,251.4-251.4C11664.3,4273.6,11547,4173,11413,4173z M13993.9,8295.8H519.5V6234.4h13474.3V8295.8z
	 M13491.1,13440.8h-12452V8798.5h12452V13440.8z M3519.4,1072.6h7491.3l2798.8,4642.3H720.6L3519.4,1072.6z M14479.9,5832.2
	L14479.9,5832.2l-3100.4-5145h-16.8c-33.5-83.8-117.3-134.1-217.9-134.1H3368.6c-83.8,0-167.6,50.3-217.9,134.1L33.5,5832.2
	C16.8,5882.4,0,5916,0,5966.2v2580.9c0,150.8,117.3,251.4,251.4,251.4h268.1V13709c0,134.1,117.3,251.4,251.4,251.4h12971.5
	c150.8,0,251.4-117.3,251.4-251.4V8798.5h268.1c150.8,0,251.4-100.6,251.4-251.4V5966.2C14513.4,5916,14496.6,5882.4,14479.9,5832.2
	z M3888.1,3653.5h6737.2c150.8,0,268.1-117.3,268.1-268.1c0-134.1-117.3-251.4-268.1-251.4H3888.1c-134.1,0-251.4,117.3-251.4,251.4
	C3636.7,3536.2,3754,3653.5,3888.1,3653.5z M4407.6,2614.4h5698.1c150.8,0,268.1-117.3,268.1-251.4c0-150.8-117.3-251.4-268.1-251.4
	H4407.6c-150.8,0-251.4,100.6-251.4,251.4C4156.3,2497.1,4256.8,2614.4,4407.6,2614.4z"/>
</svg>
