<?xml version="1.0" encoding="utf-8"?>
<!-- Generator: Adobe Illustrator 17.1.0, SVG Export Plug-In . SVG Version: 6.00 Build 0)  -->
<!DOCTYPE svg PUBLIC "-//W3C//DTD SVG 1.1//EN" "http://www.w3.org/Graphics/SVG/1.1/DTD/svg11.dtd">
<svg version="1.1" id="Canvas" xmlns="http://www.w3.org/2000/svg" xmlns:xlink="http://www.w3.org/1999/xlink" x="0px" y="0px"
	 width="14513.4px" height="14513.4px" viewBox="0 0 14513.4 14513.4" enable-background="new 0 0 14513.4 14513.4"
	 xml:space="preserve">
<path fill="#010202" d="M13667.8,8686.6h-1107v-976.3h914.9v-983.9h-914.9v-960.8h1107l-7.6-914.9h-2075.7v4750.6h2083.3V8686.6z
	 M10754.5,5765.4h645.8v-914.9H9201.7v914.9h638.2v3835.8h914.9V5765.4H10754.5z M7402.7,7602.7l684.1,1998.8h938V4850.5h-907
	v2006.4L7403,4850.5h-938v4750.6h938V7602.7H7402.7z M6096,9063.3V4850.5h-914.9v3597.7c0,299.8-645.8,307.4-645.8,7.6l7.6-3605.3
	h-899.4v4235.6c0,238.4,315.3,515,538.1,515h1406.8C5834.8,9601.2,6096,9340,6096,9063.3z M1652.7,5704h476.7
	c115.2,0,246,61.4,246,192.2v614.8c0,138.3-115.2,222.9-246,222.9h-476.7V5704z M2129.4,7587.2c161.4,0,246,100,246,253.6v630.3
	c0,138.3-100,215.3-246,222.9h-476.7V7587.2H2129.4z M3267.2,7664.1c0-276.7-130.7-499.5-476.7-499.5c346,0,476.7-199.8,476.7-461.2
	V5442.8c0-284.3-145.9-576.5-468.8-584.4l-2060.2-7.6v4750.6h1983.3c330.5,0,545.8-253.6,545.8-515V7664.1z M0,4181.9h14513.4
	v6149.5H0V4181.9z"/>
</svg>
