<?xml version="1.0" encoding="utf-8"?>
<!-- Generator: Adobe Illustrator 17.1.0, SVG Export Plug-In . SVG Version: 6.00 Build 0)  -->
<!DOCTYPE svg PUBLIC "-//W3C//DTD SVG 1.1//EN" "http://www.w3.org/Graphics/SVG/1.1/DTD/svg11.dtd">
<svg version="1.1" id="Canvas" xmlns="http://www.w3.org/2000/svg" xmlns:xlink="http://www.w3.org/1999/xlink" x="0px" y="0px"
	 width="14513.4px" height="14513.4px" viewBox="0 0 14513.4 14513.4" enable-background="new 0 0 14513.4 14513.4"
	 xml:space="preserve">
<path fill="#010202" d="M14513.4,1802.1c0-701.5-580.5-1282-1306.2-1282c-362.8,0-701.5,169.3-943.4,435.4v-24.2L4741,9131.3
	L2201.2,6591.5c-217.7-217.7-556.3-362.8-895-362.8C580.5,6228.7,0,6785,0,7510.7c0,290.3,96.8,532.2,241.9,749.9L3870.2,13437
	c217.7,338.6,604.7,556.3,1064.3,556.3c411.2,0,774-193.5,1015.9-508l8296.8-10885C14416.6,2382.6,14513.4,2116.5,14513.4,1802.1z"
	/>
</svg>
