<?xml version="1.0" encoding="utf-8"?>
<!-- Generator: Adobe Illustrator 17.1.0, SVG Export Plug-In . SVG Version: 6.00 Build 0)  -->
<!DOCTYPE svg PUBLIC "-//W3C//DTD SVG 1.1//EN" "http://www.w3.org/Graphics/SVG/1.1/DTD/svg11.dtd">
<svg version="1.1" id="Canvas" xmlns="http://www.w3.org/2000/svg" xmlns:xlink="http://www.w3.org/1999/xlink" x="0px" y="0px"
	 width="14513.4px" height="14513.4px" viewBox="0 0 14513.4 14513.4" enable-background="new 0 0 14513.4 14513.4"
	 xml:space="preserve">
<path fill="#010202" d="M9941.7,14005.4c895-362.8,1717.4-919.2,2394.7-1572.3l532.2,1572.3H9941.7z M508,7256.7
	C508,3531.6,3531.6,508,7256.7,508s6748.7,3023.6,6748.7,6748.7s-3023.6,6748.7-6748.7,6748.7S508,10981.8,508,7256.7z
	 M1644.9,14005.4l532.2-1572.3c677.3,653.1,1499.7,1209.4,2394.7,1572.3H1644.9z M13473.3,14174.7l-725.7-2177
	c1088.5-1282,1765.8-2926.9,1765.8-4741C14513.4,3241.3,11272.1,0,7256.7,0S0,3241.3,0,7256.7c0,1814.2,677.3,3459,1765.8,4741
	l-725.7,2177h24.2c-24.2,24.2-24.2,48.4-24.2,72.6c0,145.1,120.9,266.1,266.1,266.1h11901c145.1,0,266.1-120.9,266.1-266.1
	c0-24.2,0-48.4-24.2-72.6H13473.3z M7256.7,7764.7c-290.3,0-508-217.7-508-508c0-290.3,217.7-508,508-508c290.3,0,508,217.7,508,508
	C7764.7,7547,7547,7764.7,7256.7,7764.7z M8127.5,7788.9c96.8-145.1,169.3-338.6,169.3-532.2c0-483.8-338.6-895-774-991.7V2322.1
	c0-120.9-120.9-241.9-266.1-241.9c-145.1,0-266.1,120.9-266.1,241.9v3942.8c-435.4,96.8-774,508-774,991.7
	c0,580.5,459.6,1040.1,1040.1,1040.1c193.5,0,362.8-48.4,508-145.1l1499.7,1499.7c96.8,96.8,266.1,96.8,362.8,0s96.8-266.1,0-362.8
	L8127.5,7788.9z"/>
</svg>
