<?xml version="1.0" encoding="utf-8"?>
<!-- Generator: Adobe Illustrator 17.1.0, SVG Export Plug-In . SVG Version: 6.00 Build 0)  -->
<!DOCTYPE svg PUBLIC "-//W3C//DTD SVG 1.1//EN" "http://www.w3.org/Graphics/SVG/1.1/DTD/svg11.dtd">
<svg version="1.1" id="Canvas" xmlns="http://www.w3.org/2000/svg" xmlns:xlink="http://www.w3.org/1999/xlink" x="0px" y="0px"
	 width="14513.4px" height="14513.4px" viewBox="0 0 14513.4 14513.4" enable-background="new 0 0 14513.4 14513.4"
	 xml:space="preserve">
<path fill="#010202" d="M1750.8,10741.9H4336c130.9,0,245.4-114.5,245.4-245.4c0-147.3-114.5-261.8-245.4-261.8H1750.8
	c-147.3,0-261.8,114.5-261.8,261.8C1489,10627.3,1603.5,10741.9,1750.8,10741.9z M14120.7,4164.2H360v-916.3
	c0-278.2,229.1-507.2,523.6-507.2h12729.9c278.2,0,507.2,229.1,507.2,507.2V4164.2z M14120.7,11396.4
	c0,294.5-229.1,392.7-507.2,392.7H883.6c-294.5,0-523.6-98.2-523.6-392.7V5996.8h13760.7V11396.4z M13466.2,2348H965.4
	C392.7,2348,0,3215.2,0,3771.5v7624.8c0,572.7,392.7,769,965.4,769h12500.8c572.7,0,1047.2-196.3,1047.2-769V3771.5
	C14513.4,3215.2,14038.9,2348,13466.2,2348z M13040.8,8909.3h-1816.2v1799.9h1816.2V8909.3z M1750.8,9711h4646.9
	c147.3,0,261.8-114.5,261.8-261.8c0-130.9-114.5-245.4-261.8-245.4H1750.8c-147.3,0-261.8,114.5-261.8,245.4
	C1489,9596.5,1603.5,9711,1750.8,9711z"/>
</svg>
