<?xml version="1.0" encoding="utf-8"?>
<!-- Generator: Adobe Illustrator 18.0.0, SVG Export Plug-In . SVG Version: 6.00 Build 0)  -->
<!DOCTYPE svg PUBLIC "-//W3C//DTD SVG 1.1//EN" "http://www.w3.org/Graphics/SVG/1.1/DTD/svg11.dtd">
<svg version="1.1" xmlns="http://www.w3.org/2000/svg" xmlns:xlink="http://www.w3.org/1999/xlink" x="0px" y="0px"
	 viewBox="0 0 14513.4 14513.4" enable-background="new 0 0 14513.4 14513.4" xml:space="preserve">
<g id="Helper">
</g>
<g id="Canvas">
	<g>
		<g>
			<path d="M9618.1,4372.3c-112.2-101.3-248.2-150.5-395.4-173.5c-16.6-2.7-33-7.1-49.4-10.6H520.4c-0.5,23.9-1.4,47.6-1.4,71.5
				c-0.1,1940.7-0.1,3881.3-0.1,5822.2v59.5c-81.1,25.7-157,40.3-224.6,72.7c-143.6,69.1-235.5,185.6-277.6,340.1
				c-4.8,17.7-11.1,35-16.8,52.5v163.4c10.1,34,17.5,68.9,30.5,101.7c84,213.2,241.3,339.1,469,351.3c228.7,12,458.6,2.5,687.6,2.5
				c210.9-877.6,1062-1431.7,1876.1-1393c801.8,38.1,1503.8,583.2,1719.2,1391.6h5093.3v-57.5c0-2057.6,0.8-4115.1-1-6172.6
				C9874.3,4754.6,9802.4,4538.4,9618.1,4372.3z M14505.2,8646.1c-28.1-240.2-105.9-466.2-200.8-686.7
				c-225.6-523.9-524.7-1005.9-861.5-1463.6c-128.8-175-313.5-270.1-540.7-269.8c-755,1.8-1510.1,0.7-2265.1,0.7h-67.8v4125.1
				c5.9-0.9,10.1,0,12.1-1.8c12.5-11.6,24.2-23.9,36.6-35.6c465.7-440.1,1018-621,1644.9-493
				c740.4,151.1,1217.6,610.5,1435.2,1334.7c15,50.4,36.1,61.7,83.6,60.8c146.3-3,292.5-2.7,438.8-0.7
				c140.6,1.8,250.1-40.8,293-188.8v-2347C14510.6,8669,14506.5,8657.7,14505.2,8646.1z M11301.1,7993.2V6685.3h62.2
				c508.2,0,1016.3,1.1,1524.6-1.2c83.4-0.4,149.3,32.5,193.7,94.1c273.7,379,522.4,773.8,724.4,1196.4c2.1,4.4,2.7,9.4,5.1,18.6
				H11301.1z M2985.6,10285.6c-765.9-0.3-1390.4,623.3-1396.6,1382.7c-6.2,768.2,612.3,1393.8,1369.5,1408.9
				c776.8,15.4,1427.1-613.2,1423.9-1394.7C4382.4,10909.4,3758.9,10285.7,2985.6,10285.6z M2987,12329.7
				c-356.2,0.4-648.8-291.8-648.7-648.1c0.1-357.2,291-646.6,649.4-646.5c357.9,0.2,645.2,289.4,645.2,649.4
				C3632.7,12038.9,3342,12329.2,2987,12329.7z M11913.7,10236.8c-771.8,2.3-1380.1,612.5-1398.1,1360.3
				c-19.2,794.7,612,1408.2,1351.6,1431c784.1,23.9,1435.6-599,1441.1-1377C13314,10864.5,12693.3,10238.6,11913.7,10236.8z
				 M11919,12280.8c-358.6,3-653.3-288.2-655.5-647.2c-2.2-347.6,289.1-644.9,634.2-647.3c365.9-2.5,659.2,280.2,661.9,638.6
				C12562.3,11983.9,12274.9,12278.2,11919,12280.8z"/>
		</g>
	</g>
</g>
</svg>
