<?xml version="1.0" encoding="utf-8"?>
<!-- Generator: Adobe Illustrator 17.1.0, SVG Export Plug-In . SVG Version: 6.00 Build 0)  -->
<!DOCTYPE svg PUBLIC "-//W3C//DTD SVG 1.1//EN" "http://www.w3.org/Graphics/SVG/1.1/DTD/svg11.dtd">
<svg version="1.1" id="Canvas" xmlns="http://www.w3.org/2000/svg" xmlns:xlink="http://www.w3.org/1999/xlink" x="0px" y="0px"
	 width="14513.4px" height="14513.4px" viewBox="0 0 14513.4 14513.4" enable-background="new 0 0 14513.4 14513.4"
	 xml:space="preserve">
<path fill="#010202" d="M2561.3,7459.2c-7.2,137.4-14.6,289.3-65.2,434.1c-36.1,115.9-101.3,217.2-195.4,303.9
	c-195.4,173.7-513.6,188-723.4,14.6c-123-101.3-209.8-238.7-246.1-390.6c-65.2-282.1-65.2-557.1,7.2-832.1
	c36.1-123,94.1-231.5,188-318.2c202.6-188,520.8-188,709.1-50.6c130.2,94.1,217.2,224.3,260.4,376.3
	C2546.7,7140.7,2554.1,7292.7,2561.3,7459.2z M8175.6,7227.7v347.4c65.2,0,115.9,7.2,173.7,7.2c14.6,65.2,7.2,123,7.2,195.4h-173.7
	c-7.2,28.9-7.2,50.6-7.2,72.4v419.5c0,94.1,50.6,130.2,130.2,108.5c14.6-7.2,28.9-7.2,43.5-7.2c21.7,50.6,21.7,101.3,21.7,151.9
	c0,14.6-14.6,36.1-28.9,36.1c-101.3,36.1-209.8,43.5-311.1,0c-43.5-21.7-72.4-57.8-86.7-108.5c-7.2-36.1-14.6-72.4-14.6-115.9
	v-470.2c0-28.9-7.2-50.6-7.2-79.6l-115.9-14.6c0-28.9,0-57.8,0-94.1V7582c21.7,0,36.1,0,57.8,0c57.8-7.2,65.2-7.2,65.2-72.4
	c0-36.1,0-65.2,0-94.1c0-21.7,7.2-43.5,14.6-50.6C8016.5,7321.6,8088.9,7278.4,8175.6,7227.7z M10548.7,7162.5
	c-108.5,43.5-209.8,57.8-318.2,21.7c-86.7-28.9-123-94.1-137.4-173.7c0-43.5,0-86.7,0-130.2c0-137.4,0-275,0-412.3l-7.2-72.4
	c-36.1,0-72.4-7.2-115.9-7.2v-202.6c21.7,0,43.5,0,57.8,0l57.8-7.2c7.2-50.6,7.2-101.3,7.2-144.8c-7.2-36.1,7.2-57.8,36.1-72.4
	l217.2-130.2c0,123,0,231.5,0,347.4h173.7c7.2,72.4,7.2,137.4,7.2,209.8h-173.7c-7.2,28.9-7.2,43.5-7.2,65.2
	c0,137.4,0,282.1,0,419.5v43.5c14.6,50.6,43.5,79.6,94.1,72.4c28.9-7.2,50.6-14.6,86.7-21.7
	C10534.1,7032.3,10541.5,7097.5,10548.7,7162.5z M12451.3,6475.1c-79.6,14.6-159.1,28.9-238.7,43.5c-7.2-14.6-7.2-21.7-14.6-28.9
	c-43.5-94.1-94.1-130.2-195.4-123c-94.1,7.2-159.1,57.8-180.9,151.9c-28.9,108.5-28.9,217.2,0,318.2
	c36.1,115.9,130.2,173.7,246.1,151.9c57.8-14.6,101.3-50.6,130.2-108.5c7.2-21.7,14.6-43.5,28.9-79.6
	c79.6,14.6,159.1,28.9,246.1,43.5c-36.1,166.5-115.9,282.1-275,332.8c-108.5,36.1-224.3,36.1-332.8,7.2
	c-188-50.6-289.3-188-318.2-376.3c-14.6-101.3-14.6-195.4,7.2-296.7c50.6-195.4,195.4-325.6,398-347.4c79.6-7.2,159.1,0,238.7,21.7
	C12328.6,6221.9,12422.4,6330.6,12451.3,6475.1z M10635.4,7582.3h246.1c0,28.9,0,50.6,0,72.4v477.6c0,43.5,7.2,94.1,14.6,137.4
	c14.6,79.6,65.2,123,144.8,130.2c108.5,7.2,217.2-72.4,224.3-166.5c7.2-36.1,7.2-65.2,7.2-94.1c7.2-166.5,7.2-332.8,7.2-499.3
	c0-14.6,7.2-36.1,7.2-57.8h231.5c0,14.6,7.2,36.1,7.2,50.6V8508c0,14.6-7.2,28.9-7.2,50.6c-72.4,0-137.4,0-217.2,0l-7.2-123
	c-28.9,0-36.1,21.7-50.6,36.1c-101.3,94.1-224.3,130.2-354.5,108.5c-159.1-21.7-253.2-137.4-253.2-318.2v-622.1
	C10635.4,7625.5,10635.4,7611.2,10635.4,7582.3z M13580.2,7806.3c-65.2,14.6-137.4,28.9-202.6,43.5c-14.6-7.2-14.6-7.2-21.7-14.6
	c-36.1-72.4-101.3-101.3-180.9-101.3c-43.5,0-94.1,7.2-137.4,21.7c-28.9,7.2-50.6,28.9-50.6,57.8c-7.2,43.5,14.6,65.2,50.6,72.4
	c72.4,28.9,144.8,43.5,217.2,65.2c72.4,21.7,151.9,43.5,217.2,72.4c159.1,65.2,209.8,231.5,123,383.4
	c-43.5,65.2-101.3,115.9-180.9,144.8c-159.1,50.6-318.2,50.6-477.6-7.2c-86.7-28.9-151.9-94.1-195.4-173.7
	c-7.2-21.7-14.6-43.5-28.9-72.4c86.7-14.6,166.5-28.9,246.1-36.1c7.2,7.2,14.6,14.6,14.6,28.9c36.1,79.6,101.3,115.9,195.4,123
	c36.1,0,79.6-7.2,115.9-14.6c21.7-7.2,43.5-14.6,65.2-28.9c50.6-43.5,43.5-123-21.7-144.8c-43.5-21.7-86.7-28.9-130.2-36.1
	c-101.3-28.9-195.4-57.8-289.3-94.1c-94.1-36.1-144.8-108.5-159.1-202.6c-14.6-137.4,57.8-253.2,188-303.9
	c101.3-36.1,202.6-36.1,303.9-28.9c43.5,7.2,94.1,14.6,137.4,21.7c94.1,28.9,159.1,86.7,202.6,180.9c0,7.2,7.2,14.6,7.2,21.7
	L13580.2,7806.3z M6844.4,8305.7l43.5-14.6c57.8-14.6,108.5-21.7,166.5-28.9c21.7,0,36.1,0,50.6,28.9
	c65.2,123,231.5,166.5,354.5,94.1c36.1-21.7,50.6-57.8,50.6-101.3c-7.2-36.1-36.1-57.8-72.4-65.2c-72.4-21.7-144.8-36.1-217.2-57.8
	c-57.8-14.6-115.9-36.1-173.7-57.8c-101.3-43.5-166.5-115.9-166.5-231.5c-7.2-123,50.6-209.8,151.9-267.6
	c65.2-28.9,130.2-36.1,202.6-43.5c86.7-7.2,180.9,0,267.6,21.7c101.3,28.9,166.5,86.7,202.6,180.9c7.2,14.6,7.2,21.7,14.6,43.5
	c-79.6,14.6-151.9,28.9-217.2,43.5c-86.7-108.5-188-144.8-318.2-108.5c-14.6,7.2-28.9,14.6-43.5,21.7c-43.5,36.1-43.5,86.7,0,115.9
	c28.9,14.6,57.8,28.9,94.1,36.1l246.1,65.2c43.5,7.2,86.7,21.7,123,43.5c151.9,72.4,202.6,238.7,115.9,383.4
	c-36.1,65.2-94.1,115.9-166.5,137.4c-166.5,57.8-332.8,65.2-491.9,0C6952.9,8501.1,6880.5,8421.5,6844.4,8305.7z M9875.9,7177.1
	h-217.2c-7.2-43.5-7.2-79.6-14.6-130.2c-14.6,14.6-28.9,28.9-43.5,36.1c-86.7,86.7-195.4,130.2-318.2,115.9
	c-166.5-7.2-275-115.9-289.3-282.1c0-28.9,0-57.8,0-86.7l-7.2-571.5c0-21.7,0-43.5,0-72.4h253.2c0,21.7,7.2,43.5,7.2,65.2V6700
	c0,50.6,0,101.3,7.2,151.9c14.6,115.9,86.7,173.7,202.6,151.9c86.7-21.7,159.1-86.7,166.5-173.7c7.4-87,7.2-180.9,7.2-275
	c7.2-108.5,7.2-217.2,7.2-332.8c0-7.2,0-21.7,0-36.1h238.7C9897.4,6236.5,9897.4,7111.8,9875.9,7177.1z M11424,6417.3
	c-86.7,21.7-159.1,28.9-238.7,43.5c-79.6-108.5-180.9-144.8-311.1-101.3c-7.2,0-21.7,7.2-28.9,14.6c-21.7,7.2-36.1,28.9-36.1,57.8
	c0,28.9,14.6,50.6,36.1,57.8c36.1,14.6,72.4,28.9,108.5,36.1l209.8,50.6c43.5,14.6,94.1,28.9,137.4,50.6
	c159.1,79.6,202.6,260.4,108.5,405.2c-50.6,72.4-123,123-202.6,144.8c-137.4,36.1-275,36.1-405.2,0
	c-130.2-36.1-217.2-115.9-260.4-238.7c-7.2-7.2-7.2-21.7-7.2-36.1c79.6-14.6,166.5-28.9,238.7-36.1l14.6,7.2
	c65.2,137.4,217.2,188,347.4,115.9c43.5-14.6,65.2-43.5,57.8-86.7c0-43.5-28.9-65.2-65.2-72.4c-79.6-21.7-166.5-43.5-246.1-65.2
	c-43.5-14.6-94.1-28.9-144.8-43.5c-101.3-43.5-166.5-123-173.7-238.7c0-123,50.6-209.8,159.1-267.6c36.1-21.7,72.4-36.1,115.9-36.1
	c115.9-21.7,231.5-21.7,347.4,7.2C11308.4,6214.7,11380.8,6294.3,11424,6417.3z M9007.7,8088.7c-101.3,21.7-188,43.5-275,72.4
	c-65.2,14.6-94.1,65.2-94.1,115.9c0,57.8,50.6,115.9,108.5,130.2c94.1,28.9,224.3-36.1,253.2-130.2
	C9014.9,8218.9,9007.7,8160.9,9007.7,8088.7z M9297.1,8558.9h-231.5c-14.6-28.9-28.9-57.8-43.5-94.1c-21.7,14.6-43.5,28.9-57.8,43.5
	c-108.5,79.6-231.5,94.1-368.9,65.2c-115.9-28.9-195.4-130.2-202.6-238.7c-14.6-137.4,50.6-246.1,173.7-289.3
	c79.6-28.9,173.7-43.5,260.4-65.2l137.4-36.1c43.5-14.6,43.5-21.7,43.5-72.4c-7.2-65.2-36.1-108.5-101.3-115.9
	c-36.1-7.2-79.6-7.2-115.9-7.2c-57.8,0-101.3,28.9-130.2,79.6c-14.6,36.1-36.1,43.5-72.4,36.1c-50.6-14.6-108.5-21.7-166.5-36.1
	c36.1-123,101.3-209.8,217.2-246.1c94.1-28.9,188-28.9,289.3-21.7l57.8,7.2c202.6,28.9,260.4,123,267.6,282.1v340
	c0,65.2,0,130.2,0,188C9260.7,8435.9,9282.5,8493.7,9297.1,8558.9z M8602.6,6598.2c0-94.1-21.7-166.5-101.3-217.2
	c-72.4-36.1-137.4-36.1-202.6,14.6c-72.4,43.5-94.1,115.9-94.1,202.6H8602.6z M8841.2,6916.7c-50.6,166.5-180.9,267.6-368.9,282.1
	c-65.2,7.2-137.4,0-202.6-14.6c-137.4-28.9-238.7-108.5-289.3-246.1c-65.2-166.5-65.2-340,7.2-513.6
	c65.2-159.1,188-246.1,368.9-260.4c65.2-7.2,137.4,0,202.6,21.7c72.4,28.9,130.2,65.2,180.9,115.9c108.5,130.2,123,282.1,123,448.7
	h-651.3c-21.7,101.3,36.1,217.2,137.4,246.1c101.3,36.1,180.9,0,238.7-115.9C8631.5,6873.2,8783.4,6894.9,8841.2,6916.7z
	 M13854.9,6591c86.7,14.6,347.4,14.6,390.6,0c7.2-137.4-79.6-238.7-195.4-231.5C13927.3,6359.5,13847.7,6460.8,13854.9,6591z
	 M14513.3,6757.3h-658.4c-14.6,108.5,50.6,209.8,144.8,238.7c101.3,36.1,180.9,0,238.7-123c79.6,7.2,166.5,21.7,253.2,36.1
	c-21.7,79.6-57.8,137.4-115.9,188c-173.7,151.9-513.6,137.4-665.6-28.9c-79.6-86.7-115.9-195.4-123-311.1
	c-14.6-86.7-7.2-180.9,21.7-267.6c57.8-202.6,216.9-325.6,426.9-325.6c253.2,0,419.5,137.4,463,390.6L14513.3,6757.3z
	 M13478.9,7177.1h-79.6c-57.8,0-108.5,0-173.7,0v-72.4c0-173.7,0-340-7.2-506.5c0-43.5,0-86.7-7.2-123
	c-7.2-57.8-43.5-94.1-101.3-108.5c-101.3-36.1-217.2,21.7-253.2,130.2c-14.6,43.5-21.7,94.1-21.7,144.8c-7.2,151.9,0,303.9,0,455.8
	v79.6c-86.7,0-166.5,0-253.2,0c0-21.7-7.2-43.5-7.2-65.2c0-412.3,0-832.1,0-1244.5l7.2-65.2c79.6,0,159.1,0,253.2,0v506.5
	c21.7-21.7,43.5-36.1,57.8-50.6c108.5-94.1,238.7-115.9,376.3-79.6c123,36.1,188,130.2,202.6,260.4c7.2,36.1,7.2,79.6,7.2,115.9v550
	C13478.9,7126.4,13478.9,7148.2,13478.9,7177.1z M12429.8,8067c-14.6-50.6-21.7-115.9-43.5-173.7c-28.9-86.7-94.1-137.4-188-137.4
	c-94.1-7.2-159.1,36.1-202.6,123c-57.8,130.2-50.6,267.6,14.6,398c43.5,86.7,123,123,217.2,115.9c94.1-14.6,144.8-72.4,173.7-159.1
	C12415.3,8182.6,12415.3,8132,12429.8,8067z M11974,8450.4c-21.7,57.8-7.2,115.9-14.6,166.5c0,50.6,0,108.5,0,159.1
	c0,50.6,0,108.5,0,166.5h-238.7c0-14.6-7.2-28.9-7.2-43.5V7864.4c0-86.7,7.2-180.9,7.2-275c72.4-14.6,144.8-7.2,217.2-7.2
	c7.2,43.5,7.2,86.7,14.6,137.4l36.1-36.1c166.5-188,484.7-173.7,622.1,86.7c65.2,115.9,72.4,253.2,65.2,383.4
	c-7.2,79.6-28.9,151.9-65.2,224.3c-101.3,166.5-267.6,246.1-455.8,195.4c-57.8-21.7-101.3-57.8-151.9-101.3
	C11995.8,8464.8,11988.3,8464.8,11974,8450.4z M9427.3,7582.3h217.2c7.2,43.5,7.2,79.6,14.6,130.2c21.7-21.7,36.1-36.1,43.5-50.6
	c65.2-94.1,159.1-123,275-94.1c7.2,7.2,21.7,7.2,28.9,7.2c86.7,14.6,101.3,7.2,101.3-86.7c0-137.4-21.7-94.1,101.3-166.5
	c43.5-28.9,86.7-57.8,144.8-86.7v340c65.2,0,115.9,7.2,173.7,7.2c14.6,65.2,7.2,123,7.2,195.4h-173.7c0,28.9-7.2,50.6-7.2,72.4
	v419.5c7.2,101.3,36.1,123,130.2,108.5c14.6-7.2,28.9-7.2,50.6-7.2l14.6,151.9c7.2,21.7-7.2,36.1-28.9,43.5
	c-101.3,28.9-202.6,36.1-296.7-7.2c-57.8-21.7-86.7-57.8-101.3-115.9c-7.2-36.1-14.6-72.4-14.6-108.5c0-159.1,0-318.2,0-477.6
	c0-21.7,0-43.5-7.2-72.4c-50.6-7.2-94.1-21.7-130.2,28.9c-21.7-14.6-43.5-21.7-65.2-28.9c-86.7-21.7-159.1,7.2-188,86.7
	c-21.7,50.6-36.1,108.5-36.1,166.5c-7.2,144.8-7.2,296.7-14.6,448.7c0,21.7,0,43.5,0,72.4c-79.6,0-144.8,0-209.8,0
	c-14.6,0-21.7-14.6-28.9-28.9c-7.2-14.6,0-28.9,0-50.6v-817.5C9427.3,7640.1,9427.3,7611.2,9427.3,7582.3z M7589.6,6677.7
	c-7.2-57.8-14.6-123-36.1-180.9c-14.6-65.2-65.2-108.5-130.2-130.2c-115.9-36.1-231.5,28.9-267.6,144.8
	c-36.1,108.5-28.9,217.2,0,325.6c28.9,94.1,108.5,159.1,202.6,159.1c86.7,7.2,166.5-50.6,202.6-144.8
	C7575,6793.6,7582.4,6735.8,7589.6,6677.7z M7582.4,6280c0-159.1,0-311.1,0-477.6h246.1c14.6,50.6,21.7,1287.7,7.2,1374.7
	c-36.1,0-72.4,0-115.9,0h-108.5c-7.2-43.5-7.2-79.6-14.6-130.2c-14.6,14.6-28.9,21.7-36.1,28.9c-159.1,173.7-455.8,180.9-607.8-72.4
	c-36.1-50.6-57.8-108.5-65.2-166.5c-28.9-130.2-28.9-267.6,14.6-398c65.2-202.6,253.2-311.1,463-267.6
	c65.2,7.2,115.9,36.1,159.1,79.6l43.5,36.1C7575,6280,7582.4,6280,7582.4,6280z M2532.4,5324.8l-7.2,14.6v7.2
	c0,368.9,0,730.8,0,1092.5v21.7c0,7.2-7.2,7.2-7.2,7.2s0,0-7.2,0l-7.2-7.2c-224.3-253.2-513.6-332.8-839.3-260.4
	c-347.4,72.4-578.9,289.3-701.7,614.9c-86.7,217.2-115.9,448.7-108.5,687.3c7.2,166.5,36.1,325.6,94.1,484.7
	c166.5,448.7,557.1,716.2,984.1,694.5c231.5-7.2,434.1-94.1,578.9-282.1c7.2-14.6,21.7-21.7,36.1-43.5c7.2,94.1,0,180.9,7.2,267.6
	c130.2,0,253.2,0,383.4,0v-484.7c14.6,7.2,21.7,21.7,21.7,28.9c115.9,253.2,303.9,405.2,571.5,470.2c166.5,43.5,340,50.6,506.5,43.5
	c151.9-14.6,289.3-50.6,426.9-115.9c231.5-115.9,383.4-296.7,419.5-557.1c21.7-188-14.6-361.7-144.8-499.3
	c-72.4-79.6-151.9-130.2-253.2-166.5c-101.3-36.3-202.6-72.4-303.9-101.3l-557.1-159.1c-65.2-14.6-130.2-43.5-188-94.1
	c-86.7-86.7-101.3-209.8-21.7-311.1c43.5-65.2,108.5-101.3,180.9-123c144.8-36.1,282.1-43.5,426.9-21.7
	c195.4,36.1,318.2,144.8,361.7,340c0,14.6,7.2,21.7,14.6,36.1c130.2-14.6,260.4-28.9,398-50.6c-14.6-101.3-36.1-188-79.6-267.6
	c-50.6-115.9-130.2-202.6-231.5-260.4c-50.6-28.9-108.5-57.8-159.1-79.6c-253.2-86.7-506.5-101.3-766.9-43.5
	c-123,28.9-246.1,72.4-354.5,151.9c-361.7,289.3-332.8,882.8,130.2,1077.9c36.1,14.6,72.4,28.9,108.5,36.1
	c130.2,43.5,260.4,79.6,390.6,123c151.9,43.5,303.9,79.6,448.7,130.2c173.7,65.2,224.3,246.1,123,405.2
	c-57.8,86.7-137.4,144.8-238.7,173.7c-108.5,28.9-231.5,28.9-347.4,21.7c-267.6-14.6-448.7-166.5-506.5-426.9
	c-7.2-21.7-14.6-36.1-14.6-57.8c-123,21.7-238.7,36.1-354.5,57.8c0-36.1,0-65.2,0-94.1l-7.2-2402c0-28.9,0-50.6,0-79.6h-405.7
	V5324.8z M2886.9,4362.7c1591.6,0,2893.9,1295.1,2893.9,2886.7c0,1584.4-1273.4,2901.3-2901.3,2901.3
	C1251.6,10143.6,0,8826.7,0,7256.9C0.2,5693.9,1251.9,4377.1,2886.9,4362.7z"/>
</svg>
