<?xml version="1.0" encoding="utf-8"?>
<!-- Generator: Adobe Illustrator 18.0.0, SVG Export Plug-In . SVG Version: 6.00 Build 0)  -->
<!DOCTYPE svg PUBLIC "-//W3C//DTD SVG 1.1//EN" "http://www.w3.org/Graphics/SVG/1.1/DTD/svg11.dtd">
<svg version="1.1" id="Canvas" xmlns="http://www.w3.org/2000/svg" xmlns:xlink="http://www.w3.org/1999/xlink" x="0px" y="0px"
	 viewBox="0 0 14513.4 14513.4" enable-background="new 0 0 14513.4 14513.4" xml:space="preserve">
<g>
	<g>
		<path d="M10753.8,5778.2c0,0-504.1,0-524.6,349.4c-20.5,349.4-699.4,7687-699.4,7687c0,193-156.6,349.4-349.7,349.4H5333.3
			c-193.1,0-349.7-156.4-349.7-349.4c0,0-655.6-7204.9-699.4-7687c-43.9-482.1-524.6-349.4-524.6-349.4
			c-96.6,0-174.9,78.3-174.9,174.7c0,96.6,78.3,174.7,174.9,174.7h174.9l699.4,7687c0,385.9,313.2,698.8,699.4,698.8h3846.8
			c386.3,0,699.4-312.9,699.4-698.8l699.4-7687h174.9c96.6,0,174.9-78.2,174.9-174.7C10928.7,5856.5,10850.4,5778.2,10753.8,5778.2z
			 M5265,3406.7c193.1,334.2,620.9,448.7,955.4,255.7c97-55.8,239.2-169.1,387.4-308.5c-46.8,197.9-73.8,377.6-73.8,489.5
			c0,333.9,234.4,613.1,547.8,682.3v8513.6h349.7V4513.9c289.8-85.4,501.3-353.2,501.3-670.4c0-111.9-27-291.7-73.9-489.7
			c148.2,139.6,290.6,252.7,387.6,308.6c334.5,193,762.3,78.5,955.4-255.7c193.3-334.2,78.5-761.6-256-954.6
			c-97-56-266.4-122.5-461.4-181c195-58.5,364.4-125,461.4-181c334.5-193,449.3-620.3,256-954.6
			c-193.1-334.2-620.9-448.7-955.4-255.7c-96.8,56-239.2,169.1-387.4,308.6c46.8-198.1,73.8-377.7,73.8-489.7
			C7932.9,312.9,7619.7,0,7233.5,0C6847.2,0,6534,312.9,6534,698.8c0,111.9,27.2,291.9,73.9,489.8
			c-148.2-139.6-290.6-252.9-387.6-308.8c-334.5-193-762.3-78.5-955.4,255.7c-193.3,334.2-78.5,761.6,256,954.6
			c97,56,266.4,122.7,461.4,181.2c-195,58.4-364.4,124.9-461.4,180.9C5186.4,2645.1,5071.7,3072.5,5265,3406.7z M8421.4,1182.3
			c167.4-96.4,381.1-39.1,477.8,127.9c96.5,167.2,39.3,380.8-128.1,477.4c-106.4,61.4-536.9,236.3-861.6,313.1
			c-32.3-127.8-98-241.6-189.7-330.5C7949,1527.8,8315.4,1243.6,8421.4,1182.3z M7909.7,2441.2c324.8,77,755.3,252.2,861.5,313.4
			c167.4,96.6,224.6,310.3,128.1,477.4c-96.7,167.2-310.4,224.3-477.8,127.9c-106-61.2-472.5-345.5-701.6-587.9
			C7811.5,2683.2,7877.4,2569,7909.7,2441.2z M7233.5,349.4c193.1,0,349.7,156.4,349.7,349.4c0,122.9-63.7,583.5-159.7,902.9
			c-60.8-17.2-123.8-29.3-190.1-29.3c-66.3,0-129.1,12.1-190.1,29.3c-96-319.4-159.7-780-159.7-902.9
			C6883.8,505.8,7040.3,349.4,7233.5,349.4z M7233.5,1921.7c193.1,0,349.7,156.5,349.7,349.4c0,193-156.6,349.4-349.7,349.4
			s-349.7-156.5-349.7-349.4C6883.8,2078.2,7040.3,1921.7,7233.5,1921.7z M7043.6,2940.6c60.8,17.2,123.6,29.3,189.9,29.3
			c66.3,0,129.3-12.1,189.9-29.3c96.1,319.4,159.8,780,159.8,902.9c0,158.4-105.5,292.2-250.1,335h-199.2
			c-144.6-42.9-250.1-176.6-250.1-335C6883.8,3720.6,6947.6,3260,7043.6,2940.6z M5695.8,1787.6
			c-167.4-96.6-224.6-310.2-128.1-477.4c96.7-167,310.4-224.4,477.8-127.9c106,61.2,472.5,345.5,701.6,587.9
			c-91.7,88.9-157.6,203-189.9,330.8C6232.5,2024.1,5802,1848.9,5695.8,1787.6z M5695.8,2754.7c106.4-61.3,536.9-236.1,861.6-312.9
			c32.3,127.6,98,241.6,189.7,330.3c-229.2,242.4-595.6,526.7-701.6,587.9c-167.4,96.4-381.1,39.3-477.8-127.9
			C5471.3,3065,5528.4,2851.2,5695.8,2754.7z"/>
	</g>
</g>
</svg>
