<?xml version="1.0" encoding="utf-8"?>
<!-- Generator: Adobe Illustrator 18.0.0, SVG Export Plug-In . SVG Version: 6.00 Build 0)  -->
<!DOCTYPE svg PUBLIC "-//W3C//DTD SVG 1.1//EN" "http://www.w3.org/Graphics/SVG/1.1/DTD/svg11.dtd">
<svg version="1.1" id="Canvas" xmlns="http://www.w3.org/2000/svg" xmlns:xlink="http://www.w3.org/1999/xlink" x="0px" y="0px"
	 viewBox="0 0 14513.4 14513.4" enable-background="new 0 0 14513.4 14513.4" xml:space="preserve">
<g>
	<g>
		<path d="M8141.6,2697.3c0-496.5-396.2-899.1-884.9-899.1s-884.9,402.6-884.9,899.1c0,496.6,396.2,899.1,884.9,899.1
			S8141.6,3193.8,8141.6,2697.3z M8194.3,7144.1V6069h-716.4v-702.3c280.6-58.8,523.7-221.2,682.9-451.5
			c342.9,60.8,708.2-41.5,973-310.6c264.6-268.9,365.5-640.3,305.7-988.7c284.7-203.3,471.8-538.2,471.8-918.6
			c0-380.4-187.1-715.3-471.8-918.6c59.8-348.4-41-719.6-305.7-988.7c-264.9-268.8-630.2-371.1-973-310.6
			C7960.7,190.1,7631.1,0,7256.7,0s-704.1,190.1-904.1,479.4c-342.8-60.8-708.1,41.8-973,310.6
			c-264.6,269.1-365.5,640.3-305.7,988.7c-284.7,203.3-471.8,538.2-471.8,918.6c0,380.5,187.1,715.4,471.8,918.6
			c-59.9,348.4,41,719.8,305.7,988.7c264.9,269.1,630.2,371.4,973,310.6c159.2,230.3,402.2,392.7,682.9,451.5V6069h-716.4v1075.1
			c-1603.6,428-2749.4,1923.1-2749.4,3623.2c0,2065.5,1653.9,3746.1,3687,3746.1c2033.1,0,3687-1680.5,3687-3746.1
			C10943.7,9067.2,9797.9,7572.2,8194.3,7144.1z M6597.4,4314.6c-260.8,232.2-656.3,224.8-905-27.9
			c-248.6-252.6-256-654.6-27.4-919.5c-345.9-23-620.4-312.6-620.4-670c0-357.3,274.6-646.8,620.4-669.9
			c-228.6-264.7-221.2-666.7,27.4-919.5c248.7-252.7,644.2-260.2,905-27.9c22.7-351.4,307.6-630.4,659.3-630.4
			c351.7,0,636.6,279,659.3,630.4c260.7-232.2,656.3-224.8,904.9,27.9c248.7,252.8,256,654.8,27.4,919.5
			c346.1,23.1,620.4,312.6,620.4,669.9c0,357.4-274.4,646.9-620.4,670c228.6,264.9,221.2,666.9-27.4,919.5
			c-248.7,252.6-644.2,260.1-904.9,27.9c-22.7,351.7-307.7,630.4-659.3,630.4C6905,4945,6620.1,4666.3,6597.4,4314.6z
			 M7256.7,14063.8c-1789.2,0-3244.6-1478.8-3244.6-3296.5c0-1550.2,1082.3-2906.7,2573.8-3225.4l175.6-37.5v-985.8h990.3v985.8
			l175.6,37.5c1491.5,318.7,2573.8,1675.3,2573.8,3225.4C10501.3,12585,9045.9,14063.8,7256.7,14063.8z"/>
	</g>
</g>
</svg>
