<?xml version="1.0" encoding="utf-8"?>
<!-- Generator: Adobe Illustrator 18.0.0, SVG Export Plug-In . SVG Version: 6.00 Build 0)  -->
<!DOCTYPE svg PUBLIC "-//W3C//DTD SVG 1.1//EN" "http://www.w3.org/Graphics/SVG/1.1/DTD/svg11.dtd">
<svg version="1.1" id="Canvas" xmlns="http://www.w3.org/2000/svg" xmlns:xlink="http://www.w3.org/1999/xlink" x="0px" y="0px"
	 viewBox="0 0 14513.4 14513.4" enable-background="new 0 0 14513.4 14513.4" xml:space="preserve">
<g>
	<g>
		<path d="M11800,5413.3c0,0-462.3,0-481,318c-18.8,318-641.4,6995.6-641.4,6995.6c0,175.6-143.6,318-320.7,318
			c0,0-1531.4-6.7-2012.5-6.7c-481.1,0-378.4,324.7-24.2,324.7h2036.6c354.2,0,641.4-284.7,641.4-636l641.4-6995.6h160.4
			c88.6,0,160.4-71.1,160.4-159C11960.4,5484.6,11888.6,5413.3,11800,5413.3z M8432.6,4113.7v7792.1h320.7V4113.7
			c276.6-70.6,481.1-319.6,481.1-615.9c0-101.9-24.8-265.5-67.8-445.6c135.9,127,266.5,230,355.5,280.9
			c306.8,175.6,699,71.4,876.1-232.7c177.3-304.2,72-693.1-234.7-868.7c-88.9-50.9-244.3-111.5-423.1-164.7
			c178.8-53.2,334.2-113.8,423.1-164.7c306.8-175.6,412-564.5,234.7-868.7c-177.1-304.2-569.4-408.3-876.1-232.7
			c-88.8,50.9-219.4,153.9-355.3,280.9c42.9-180.3,67.7-343.8,67.7-445.6c0-351.2-287.2-636-641.4-636
			c-354.2,0-641.4,284.7-641.4,636c0,101.8,24.9,265.7,67.8,445.8c-135.9-127-266.5-230.1-355.5-281
			c-306.8-175.6-699.1-71.4-876.2,232.7c-177.3,304.2-72,693.1,234.8,868.7c88.9,50.9,244.3,111.6,423.1,164.9
			c-178.8,53.1-334.2,113.6-423.1,164.6c-306.8,175.6-412,564.5-234.8,868.7c177.1,304.2,569.4,408.4,876.2,232.7
			c88.9-50.8,219.4-153.9,355.3-280.7c-42.9,180.1-67.6,343.6-67.6,445.5C7951.6,3794.1,8156,4043.1,8432.6,4113.7z M9682.4,1076
			c153.5-87.7,349.5-35.6,438.2,116.4c88.5,152.2,36,346.6-117.5,434.4c-97.6,55.9-492.3,215.1-790.2,284.9
			c-29.6-116.3-89.9-219.9-174-300.8C9249.1,1390.4,9585.2,1131.7,9682.4,1076z M9213.1,2221.7c297.8,70,692.6,229.5,790,285.2
			c153.5,87.9,205.9,282.4,117.5,434.4c-88.6,152.2-284.7,204.2-438.2,116.5c-97.2-55.8-433.3-314.4-643.4-535
			C9123.1,2441.8,9183.5,2338,9213.1,2221.7z M8593,318c177.1,0,320.7,142.4,320.7,318c0,111.8-58.4,531-146.4,821.7
			c-55.7-15.7-113.5-26.7-174.3-26.7c-60.8,0-118.4,11-174.3,26.7c-88-290.7-146.4-709.9-146.4-821.7
			C8272.3,460.3,8415.9,318,8593,318z M8593,1748.9c177.1,0,320.7,142.4,320.7,318s-143.6,318-320.7,318
			c-177.1,0-320.7-142.4-320.7-318S8415.9,1748.9,8593,1748.9z M8418.9,2676.1c55.7,15.7,113.4,26.7,174.1,26.7
			c60.7,0,118.5-11,174.1-26.7c88.2,290.7,146.6,709.9,146.6,821.7c0,175.6-143.6,318-320.7,318c-177.1,0-320.7-142.4-320.7-318
			C8272.3,3386,8330.8,2966.8,8418.9,2676.1z M7182.9,1626.9c-153.5-87.9-205.9-282.3-117.5-434.4c88.6-152,284.7-204.2,438.1-116.4
			c97.2,55.7,433.3,314.4,643.4,535c-84.1,80.9-144.5,184.8-174.1,301.1C7675,1842,7280.3,1682.6,7182.9,1626.9z M7503.6,3057.8
			c-153.5,87.7-349.5,35.7-438.1-116.5c-88.5-152-36-346.5,117.5-434.4c97.6-55.8,492.3-214.9,790.2-284.7
			c29.6,116.1,89.9,219.8,174,300.6C7936.9,2743.4,7600.8,3002,7503.6,3057.8z M5867,6155.4c0-351.2-287.2-636-641.4-636
			c-354.2,0-641.4,284.7-641.4,636c0,351.2,287.2,636,641.4,636C5579.8,6791.4,5867,6506.6,5867,6155.4z M5905.2,9300.8v-760.5
			h-519.3v-496.7c203.4-41.6,379.6-156.5,495-319.4c248.5,43,513.3-29.4,705.3-219.7c191.8-190.2,264.9-452.9,221.6-699.3
			c206.4-143.8,342-380.7,342-649.8s-135.6-506-342-649.8c43.4-246.4-29.7-509-221.6-699.3c-192-190.2-456.8-262.5-705.3-219.7
			c-145-204.6-384-339.1-655.3-339.1c-271.4,0-510.3,134.5-655.3,339.1c-248.5-43-513.3,29.5-705.3,219.7
			c-191.8,190.4-265,452.9-221.6,699.3c-206.4,143.8-342,380.7-342,649.8s135.6,506,342,649.8c-43.4,246.4,29.8,509.1,221.6,699.3
			c192,190.3,456.8,262.7,705.3,219.7c115.4,162.9,291.6,277.8,495,319.4v496.7H4546v760.5c-1162.4,302.8-1993,1360.3-1993,2562.8
			c0,1461,1198.9,2649.8,2672.6,2649.8c1473.7,0,2672.6-1188.7,2672.6-2649.8C7898.2,10661.1,7067.6,9603.6,5905.2,9300.8z
			 M4747.7,7299.4c-189,164.3-475.7,159-656-19.7c-180.2-178.7-185.6-463-19.9-650.4c-250.7-16.3-449.7-221.1-449.7-473.9
			c0-252.8,199-457.6,449.7-473.9c-165.7-187.2-160.4-471.5,19.9-650.4c180.2-178.7,466.9-184,656-19.7
			c16.4-248.6,223-445.9,477.9-445.9c254.9,0,461.5,197.3,477.9,445.9c189-164.3,475.7-159,656,19.7
			c180.2,178.9,185.6,463.2,19.9,650.4c250.9,16.3,449.7,221.1,449.7,473.9c0,252.7-198.9,457.6-449.7,473.9
			c165.7,187.4,160.3,471.7-19.9,650.4c-180.2,178.7-467,184-656,19.7c-16.4,248.8-223,445.9-477.9,445.9
			C4970.7,7745.3,4764.1,7548.2,4747.7,7299.4z M5225.6,14195.4c-1296.9,0-2351.9-1046-2351.9-2331.8
			c0-1096.5,784.5-2056,1865.7-2281.4l127.3-26.6v-697.3h717.8v697.3l127.3,26.6c1081.1,225.4,1865.7,1185,1865.7,2281.4
			C7577.5,13149.4,6522.5,14195.4,5225.6,14195.4z"/>
	</g>
</g>
</svg>
