<?xml version="1.0" encoding="utf-8"?>
<!-- Generator: Adobe Illustrator 16.0.0, SVG Export Plug-In . SVG Version: 6.00 Build 0)  -->
<!DOCTYPE svg PUBLIC "-//W3C//DTD SVG 1.1//EN" "http://www.w3.org/Graphics/SVG/1.1/DTD/svg11.dtd">
<svg version="1.1" xmlns="http://www.w3.org/2000/svg" xmlns:xlink="http://www.w3.org/1999/xlink" x="0px" y="0px" width="38.5px"
	 height="38.5px" viewBox="0 0 38.5 38.5" enable-background="new 0 0 38.5 38.5" xml:space="preserve">
<g id="Layer_1">
	<path fill="#88C08B" d="M36.773,21.739c0.043-0.029,0.162-0.275,0.227-0.416c-0.492-1.535-6.908-1.868-7.209-1.881l-0.455-0.232
		c5.818,0.264,6.408-1.574,6.467-1.906l0.02-0.111l-0.043,0.031c-0.041,0.029-0.115,0.018-0.115,0.018
		c0.049-0.068,0.061-0.143,0.068-0.18l0.012-0.074l-0.096-0.094l0.02-0.109c-0.527-0.475-2.654-0.506-3.074-0.504
		c1.551-0.793,1.865-2.146,1.891-2.295l0.008-0.037c0.012-0.074,0.031-0.184-0.006-0.191c-0.061-0.086-0.281-0.125-0.393-0.145
		l0.174-0.123c0,0,0.006-0.037-0.031-0.043c-0.061-0.086-0.23-0.193-0.305-0.205c0.182-0.387,0.27-0.676,0.303-0.861
		c0.025-0.148,0.039-0.221-0.021-0.309c0.008-0.037-0.066-0.051-0.066-0.051l0.006-0.035c0.006-0.037,0.014-0.074-0.023-0.082
		c-0.025-0.08-0.062-0.086-0.1-0.094c0.045-0.029,0.088-0.061,0.094-0.096c0.008-0.037,0.008-0.037-0.023-0.082
		c-0.059-0.314-0.734-0.586-0.84-0.643c0.289-0.33,0.551-0.74,0.596-1c0.014-0.074-0.018-0.115-0.041-0.197
		c-0.098-0.094-0.473-0.121-0.664-0.117c0.16-0.047,0.451-0.188,0.516-0.328l-0.02-0.117c-1.584-2.031-6.553,0.445-7.146,0.797
		c0.814-1.381,1.236-2.486,1.387-3.336c0.332-1.883-0.523-2.645-0.523-2.645l-0.031-0.043L27.32,4.077
		c0.023,0.08,0.004,0.191-0.016,0.303L27.265,4.6c-0.047-0.16-0.143-0.482-0.217-0.496c-0.26-0.045-0.789,0.584-0.84,0.652
		l-0.441-0.078c0.174-0.35,0.264-0.639,0.309-0.896c0.105-0.592-0.084-0.814-0.115-0.859c-0.117,0.018-0.154,0.012-0.184-0.031
		l0.012-0.074l0.051-0.066L25.796,2.78c-0.197,0.041-0.234,0.035-0.279,0.064l0.168-0.084l0.043-0.031l-0.072-0.012
		c-2.393-0.689-4.583,2.656-4.895,3.135c-0.115-4.322-1.824-4.777-1.824-4.777c-0.074-0.012-0.125,0.055-0.131,0.092
		c-0.111-0.02-0.191,0.004-0.271,0.027c-0.051,0.068-0.1,0.135-0.113,0.209l-0.02,0.111c-0.02,0.111-0.105,0.172-0.113,0.209
		c-0.023-0.08-0.016-0.346-0.156-0.408c0.008-0.037-0.029-0.045-0.066-0.051c-0.637,0.154-1.004,1.156-1.074,1.334
		c-0.188-0.223-0.699-0.352-0.736-0.359l-0.037-0.006L16.212,2.27c0,0-0.014,0.074-0.057,0.105c-0.043,0.029-0.141-0.064-0.17-0.107
		l-0.033-0.043l-0.012,0.074c-0.062,0.141-0.102,0.361-0.176,0.35c-0.037-0.008-0.061-0.088-0.078-0.205s-0.041-0.197-0.152-0.217
		c-0.469,0.068-0.762,1.084-0.838,1.299c-1.078-2.094-2.16-2.018-2.195-2.023l-0.014,0.072l-0.035-0.006c0,0,0.029,0.043-0.02,0.111
		l-0.031-0.045c-0.031-0.043-0.023-0.08-0.062-0.086c-0.035-0.006-0.078,0.023-0.123,0.055c-0.305,0.213-0.436,0.531-0.494,0.865
		c-0.078,0.443-0.01,0.912,0.039,1.072c-0.734-0.586-1.598-0.662-1.82-0.473C9.896,3.098,9.847,3.167,9.839,3.204
		C9.82,3.315,9.832,3.467,9.855,3.549c-0.098-0.094-0.158-0.182-0.27-0.201C9.542,3.379,9.5,3.411,9.494,3.448
		c-0.158,0.238-0.24,0.49-0.293,0.785C8.966,5.563,9.802,7.309,9.941,7.6C9.013,7.247,8.382,7.592,8.33,7.661
		C5.74,6.366,5.087,7.049,5.08,7.086L5.037,7.118l0.037,0.006c-0.006,0.037,0.023,0.08,0.018,0.117L5.085,7.278
		C5.048,7.272,4.982,7.221,4.982,7.221L4.974,7.258C4.929,7.29,4.923,7.325,4.917,7.362C4.904,7.436,4.923,7.553,4.99,7.604
		c-0.111-0.02-0.234,0.035-0.234,0.035C4.705,7.706,4.693,7.78,4.679,7.854c-0.162,0.924,0.77,2.115,0.891,2.289
		c-0.434,0.076-1.334,0.223-1.635,0.625l-0.031,0.186c0.064,0.277,0.654,0.611,0.832,0.68c-0.117,0.018-0.303-0.016-0.523-0.055
		c-0.297-0.051-0.592-0.104-0.617,0.045c-0.039,0.221,0.117,0.631,0.209,0.76c-1.033-0.41-1.645-0.176-1.684-0.182l-0.045,0.258
		l-0.029-0.043l-0.068-0.049l0.025,0.08c0.029,0.043,0.018,0.117,0.018,0.117l-0.014,0.072c-0.043,0.031-0.08,0.025-0.08,0.025
		L1.919,12.7c-0.158,1.113,1.348,2.293,1.654,2.5c-0.074-0.014-0.123,0.055-0.123,0.055c-0.113,0.855,1.312,1.412,2.08,1.586
		c0.695,0.16,3.176,0.559,4.033,0.672c-7.373-0.082-8.107,2.571-8.166,2.903l-0.014,0.074l0.037,0.006
		c0.072,0.014,0.201,0.148,0.225,0.23c-0.035-0.008-0.172,0.121-0.191,0.232c-0.014,0.074,0.016,0.117,0.01,0.154
		c0.23,0.422,1.553,0.693,1.775,0.732c-1.006,0.736-1.281,1.221-1.34,1.553l-0.02,0.111c-0.002,0.229,0.09,0.359,0.125,0.365
		c0.377,0.027,0.4,0.107,0.4,0.107c-0.006,0.037-0.123,0.055-0.248,0.109l-0.037-0.006l0.031,0.043
		c0.217,0.496,0.906,0.693,1.016,0.713l-0.051,0.295c-0.008,0.037,0.092,0.131,0.195,0.188c-0.043,0.03-0.094,0.098-0.094,0.098
		l0.037,0.006c0.715,1.344,3.201,0.641,3.523,0.545l-0.033,0.186c-0.748,0.781-0.969,1.389-1.027,1.723
		c-0.033,0.184-0.016,0.303-0.021,0.338l-0.008,0.037l0.045-0.029c0.043-0.031,0.129-0.092,0.203-0.08l-0.025,0.148l0.031,0.043
		l0.041-0.029c0.051-0.068,0.162-0.047,0.229,0.002c-0.203,0.078-0.297,0.176-0.34,0.205c0.223,0.459,0.877,0.422,1.068,0.418
		c-0.094,0.098-0.344,0.436-0.396,0.73c-0.02,0.111,0,0.229,0.066,0.277c0.326,0.744,1.27,0.795,1.57,0.811
		c-0.006,0.037,0.018,0.117,0.018,0.117l0.037,0.008c0.088-0.062,0.211-0.115,0.322-0.096c-0.008,0.035-0.254,0.145-0.459,0.223
		l-0.006,0.037c0.525,0.475,2.639-1.363,3.094-1.777c-0.391,0.693-0.568,1.271-0.646,1.715c-0.129,0.738-0.01,1.141-0.01,1.141
		l-0.006,0.037l0.037,0.006c0,0,0.258,0.045,0.361,0.102l0.037,0.006c-0.006,0.037-0.049,0.068-0.092,0.1l-0.045,0.029l0.518,0.092
		c-0.068,0.178-0.172,0.541-0.23,0.873c-0.039,0.223-0.072,0.406-0.004,0.457c0.098,0.094,0.104,0.285,0.104,0.285l-0.008,0.035
		l0.037,0.008c0.037,0.006,0.074,0.012,0.117-0.018c0.043-0.031,0.094-0.098,0.105-0.172c0.064-0.143,0.107-0.172,0.182-0.16
		l-0.092,0.518c0.779,0.557,1.717-0.23,1.896-0.389c0.045,0.617,0.436,0.99,0.436,0.99l1.586-0.139l0.311-0.25
		c0.354,1.016,0.982,1.125,1.019,1.133l0.1-0.137c0.074,0.014,0.141,0.064,0.172,0.107l0.035,0.006l0.088-0.061
		c0.037,0.008,0.068,0.051,0.068,0.051l0.006-0.037c0.891-0.301,1.307-1.369,1.307-1.369c0.746-0.555,1.105-1.938,1.164-2.27
		c0.676,2.213,1.465,2.924,1.966,3.088c0.326,0.096,0.574-0.014,0.66-0.074c0.131-0.09,0.125-0.055,0.162-0.047l0.104,0.057
		c0.327,0.096,0.788-1.004,0.845-1.109l0.074,0.014l0.15-0.201l0.221,0.039c0,0,0.025-0.148,0.088-0.289
		c0.102-0.135,0.258-1.021,0.326-1.201c1.094,1.146,2.273,0.936,2.311,0.941l0.057-0.104c0.117-0.018,0.203-0.078,0.209-0.115
		c0.037,0.006,0.1,0.094,0.1,0.094l0.076-0.215c0.086-0.062,0.162-0.277,0.176-0.352c0.764,0.631,1.486,0.645,1.486,0.645
		l0.08-0.025l-0.066-0.049c-0.105-0.057-0.066-0.279-0.061-0.316l0.037,0.006l0.047-0.258c0.135,0.1,0.473,0.123,0.473,0.123
		l0.037,0.006l0.014-0.074l0.074,0.014c0,0,0.014-0.074-0.025-0.082l0.111,0.02l0.043-0.029l0.053-0.295
		c0.117-0.666-0.066-1.574-0.102-1.809c0.266,0.238,0.951,0.436,1.188,0.4l0.08-0.023c0.037,0.006,0.051-0.068,0.051-0.068
		c0.02-0.111,0.002-0.229-0.023-0.309l0.334,0.059c0.043-0.029,0.057-0.104,0.068-0.178l0.014-0.074l0.074,0.014l0.031-0.186
		c0.066-0.369-0.023-0.727-0.041-0.846c0.143,0.064,0.303,0.016,0.303,0.016s0.014-0.072,0.057-0.104l0.072,0.012l0.041-0.221
		c-0.008,0.037,0.066,0.051,0.066,0.051l0.039-0.223l0.186,0.033l0.025-0.148c0.365-2.068-2.508-4.784-3.199-5.401
		c1.699,0.947,3.055,1.033,3.055,1.033c1.518,0.686,2.338,0.564,2.791,0.379c0.494-0.219,0.604-0.617,0.604-0.617l0.006-0.037
		c-0.074-0.014-0.133-0.102-0.172-0.107c0.006-0.037,0.088-0.061,0.107-0.172c0.02-0.109-0.285-0.545-0.375-0.676
		c1.697-0.348,2.062-1.121,2.068-1.158l0.008-0.035l-0.037-0.008C36.802,21.782,36.767,21.776,36.773,21.739z M22.047,17.673
		l0.005-0.005l0.003,0.004c0.002,0.009,0.043,0.15-0.145,0.382c0.025,0.004,0.114,0.032,0.125,0.048
		c0.008,0.017,0,0.027,0.004,0.033c0.006-0.005,0.024,0.001,0.034-0.002l0.001,0.002c0,0,0.032,0.065-0.009,0.148
		c-0.042,0.074-0.133,0.183-0.407,0.255c0,0-0.19,0.14-0.517,0.206c0.16,0.003,0.835,0.043,1.015,0.355l0.016,0.022l-0.03,0.018
		l0.018,0.034c0,0-0.008,0.006-0.013,0l0.019,0.033l-0.011,0.006c-0.001,0.011,0.005,0.017,0.005,0.017s-0.014,0.027-0.043,0.037
		c0.016,0.01,0.066,0.046,0.101,0.105l0.014,0.026l-0.011,0.008l0.007,0.009c0.008,0.014,0.011,0.024,0.01,0.031l-0.053,0.031
		c0.017,0.007,0.031,0.021,0.04,0.036c0,0,0.005,0.011,0,0.016l-0.009,0.014c-0.025,0.031-0.138,0.08-0.199,0.076
		c0.032,0.028,0.155,0.127,0.211,0.226l0.026,0.047l-0.004,0.006l-0.015,0.009c0.009-0.003,0.017,0.011,0.017,0.011l-0.017,0.005
		l0.009,0.013l-0.005-0.002c0,0-0.049,0.037-0.077,0.038l0.024,0.04l-0.005,0.004c0.004,0.006,0.024,0.04,0.042,0.036l0.014-0.001
		l-0.007,0.01c0,0-0.097,0.08-0.267,0.079c0.008,0.014,0.017,0.048,0.018,0.068l0.011,0.037c0,0-0.018-0.006-0.024,0
		c0.005,0.006,0.002,0.021-0.013,0.033l0.002,0.024c-0.005,0-0.135,0.159-0.405,0.129c0.009,0.032,0.087,0.163,0.089,0.194
		c0.005,0.027,0.018,0.048,0.018,0.048l-0.033,0.019l0.004,0.041l-0.013,0.007c0.005,0.021,0.067,0.219,0.013,0.241l-0.018,0.001
		c-0.006,0.006-0.011,0-0.02,0.027c-0.004,0.015-0.024,0.058-0.079,0.082c-0.084,0.036-0.265,0.026-0.6-0.189
		c0.029,0.048,0.133,0.271,0.098,0.428c0,0,0.064,0.185-0.021,0.32l0.005,0.006c0,0-0.01-0.001-0.014,0.003l-0.005,0.017
		l-0.006,0.004c-0.009-0.005-0.024-0.003-0.034,0.003l0.003,0.029c-0.004,0.003-0.104,0.057-0.262-0.039l-0.013,0.07l-0.191,0.192
		c0,0-0.092-0.008-0.17-0.083c-0.006,0.042-0.038,0.248-0.203,0.26l-0.045-0.079c-0.015,0.007-0.016,0.018-0.009,0.043
		c0.009,0.01,0.008,0.024,0.007,0.034c0,0.006-0.007,0.011-0.016,0.012l-0.005,0.006l-0.001-0.009c0,0-0.023-0.02-0.046-0.024
		c-0.015,0.002-0.029-0.028-0.048-0.061c-0.029-0.046-0.054-0.107-0.068-0.139l-0.078,0.045l0.002-0.007
		c0.002-0.013,0.005-0.022,0.001-0.025l-0.006,0.003c-0.018,0.005-0.06,0.027-0.06,0.027l-0.004,0.002l-0.003-0.007
		c0,0-0.058-0.039-0.125-0.149c-0.037-0.068-0.078-0.164-0.104-0.294c-0.013,0.101-0.091,0.577-0.211,0.571l-0.005-0.005
		c0.02-0.031,0.042-0.075,0.038-0.082c-0.016,0.011-0.029,0.034-0.032,0.049l-0.005,0.005c0,0-0.01-0.008-0.015-0.013
		c-0.044,0.029-0.169,0.128-0.295,0.061c-0.011,0.002-0.03-0.01-0.035-0.026c-0.03-0.042-0.034-0.116-0.033-0.138
		c-0.024,0.021-0.108,0.096-0.187,0.061c0.002-0.009,0.004-0.03,0.022-0.063c-0.012,0-0.031,0.009-0.028,0.023l-0.004,0.006
		l-0.006,0l-0.015-0.02c-0.009,0.004-0.017,0.024-0.017,0.033l-0.005,0.007l-0.004-0.005c0.003-0.005-0.015-0.017-0.031-0.046
		c-0.029-0.049-0.067-0.153-0.053-0.339l-0.02-0.03c-0.03,0.049-0.281,0.415-0.523,0.317l-0.003,0.003c0,0-0.002-0.014,0-0.024
		c-0.02,0.004-0.045,0.002-0.05-0.004l-0.021-0.042c-0.016,0.01-0.131,0.059-0.213,0.018l-0.008-0.003l0.004-0.003
		c0.012-0.021,0.026-0.036,0.021-0.042c0,0-0.01-0.008-0.064,0.032c-0.006,0-0.03-0.005-0.058-0.037l-0.007-0.017
		c-0.029-0.05-0.048-0.142,0.004-0.352c-0.037,0.021-0.24,0.133-0.314,0.103c-0.005-0.007-0.012-0.01-0.02-0.02
		c-0.012-0.019-0.006-0.051-0.001-0.055c-0.011-0.007-0.044-0.01-0.052-0.005l-0.006,0.005l-0.009-0.013
		c-0.028-0.05-0.224-0.478,0.754-1.28c-0.124,0.078-0.494,0.296-0.606,0.354c-0.117,0.062-0.367,0.148-0.446,0.022
		c0,0,0.002-0.016,0.01-0.022c-0.063,0.007-0.391,0.017-0.491-0.146l-0.005-0.005c0,0,0.006-0.005,0.008-0.01L16.449,20.3
		c0,0-0.008-0.009-0.017-0.011l-0.01-0.008l0.015,0.002l0.009,0.002l-0.022-0.042c0.004-0.003,0.057-0.104,0.24-0.161
		c-0.028-0.007-0.094-0.043-0.113-0.077c-0.01-0.023,0.031-0.048,0.078-0.074c0.035-0.019,0.058-0.036,0.072-0.05
		c-0.029,0.01-0.146,0.03-0.184-0.001l-0.017-0.023c-0.005-0.089,0.099-0.206,0.148-0.265c-0.035-0.01-0.29-0.062-0.371-0.202
		c-0.004-0.012-0.014-0.025-0.014-0.037c0,0,0.01-0.02,0.027-0.03c-0.011,0-0.026-0.014-0.036-0.024
		c-0.003-0.008-0.005-0.01-0.004-0.02l-0.002-0.008c0,0,0.016,0.003,0.021-0.002l-0.005-0.006c-0.005-0.005-0.012-0.01-0.015-0.013
		l-0.005,0.005l0-0.01c0-0.006,0.006-0.169,0.493-0.283c0-0.013,0.044-0.132,0.205-0.185c-0.052-0.022-0.356-0.161-0.468-0.362
		c-0.026-0.045-0.042-0.088-0.047-0.137c-0.005-0.005-0.006-0.014-0.001-0.021c0.017-0.01,0.035-0.006,0.059-0.004
		c-0.013-0.009-0.031-0.029-0.041-0.043c-0.004-0.005-0.005-0.022-0.001-0.029c0.006-0.051,0.129-0.135,0.29-0.141
		c-0.023-0.016-0.083-0.068-0.121-0.134c-0.032-0.052-0.048-0.11-0.03-0.171c0-0.006,0.002-0.015,0.008-0.02
		c0.007-0.005,0.007,0.004,0.018,0.005h0.01c-0.004-0.012-0.009-0.015-0.009-0.015l0.001-0.001l-0.001-0.012
		c0.006-0.004,0.138-0.134,0.511,0.023c-0.018-0.035-0.088-0.203-0.036-0.261c0.019-0.012,0.031-0.001,0.046,0.011
		c0.014,0.01,0.026,0.02,0.034,0.018c0.009-0.008-0.01-0.042-0.018-0.067l-0.006-0.008l0.01,0c0.007,0.004,0.03,0.005,0.033-0.004
		c0.003-0.01-0.004-0.02-0.004-0.02l-0.001-0.01l0.001-0.002c0.008-0.003,0.089-0.042,0.138-0.033
		c-0.011-0.034-0.072-0.203-0.004-0.293c0.006-0.005,0.009-0.006,0.014-0.001c0.024-0.009,0.055,0.028,0.067,0.038
		c-0.004-0.005,0.002-0.024-0.008-0.042l-0.009-0.015c-0.01-0.012-0.007-0.026-0.01-0.041c0.006-0.011,0.016-0.023,0.033-0.034
		c-0.004-0.006-0.003-0.019,0.005-0.027c0,0,0.277-0.127,0.766,0.431c-0.01-0.098-0.092-0.781,0.299-0.955l0.01-0.004l-0.002,0.009
		l-0.01,0.03c0.001-0.01,0.006-0.015,0.028-0.043l0.002-0.005l0,0.014l0.008,0.009c0.009,0.003,0.012,0,0.029-0.015
		c0.007,0.004,0.058,0.01,0.108,0.098c0.022,0.041,0.042,0.089,0.058,0.154l0.065-0.039c0.002-0.014,0-0.155,0.042-0.177
		c0.01-0.007,0.058,0.024,0.081,0.04l-0.019-0.034c-0.008-0.015-0.017-0.033-0.029-0.041l-0.01-0.011l0.013,0.003
		c0,0,0.196,0.005,0.36,0.291c0.073,0.125,0.138,0.32,0.185,0.591c0.04-0.11,0.419-0.987,0.852-0.895l0.015,0.014
		c0.004,0.028-0.019,0.077-0.03,0.104c0.021-0.024,0.076-0.061,0.098-0.062c0.012,0.011,0.022,0.013,0.025,0.024
		c0.025,0.037,0.037,0.122,0.032,0.197c0.022-0.004,0.141-0.041,0.182-0.008c0.014,0.003,0.014,0.003,0.009,0.008
		c0.005,0.006,0.005,0.016,0.003,0.021c0.006,0,0.011-0.002,0.025,0.002c0.004-0.003,0.005,0.004,0.01,0.01l0.004,0.004
		c0,0,0.007-0.007,0.012-0.001c0.019,0.007,0.024,0.017,0.038,0.042c0.015,0.025,0.036,0.074,0.057,0.144
		c0.01-0.007,0.043-0.011,0.06-0.005c0.006-0.004,0.012,0,0.012,0l-0.01,0.035c0.017-0.011,0.05-0.029,0.067-0.024
		c0.005-0.001,0.013,0.016,0.021,0.024l0.002,0.008c0.015,0.02,0.122,0.233,0.006,0.507c0.056-0.046,0.338-0.274,0.462-0.27
		l0.007,0.015l0.022,0.003l0.006,0.007c0.001,0.009,0.012,0.02,0.009,0.035c0,0,0.014-0.008,0.013-0.017l0.004-0.006l0.01,0.014
		c0.029,0.052,0.156,0.358-0.639,0.966l0.084-0.02c0.041-0.033,0.924-0.693,1.156-0.548c0.008,0.025,0.018,0.069,0.017,0.079
		C22.033,17.687,22.036,17.684,22.047,17.673z"/>
</g>
<g id="Layer_2">
</g>
</svg>
