<?xml version="1.0" encoding="utf-8"?>
<!-- Generator: Adobe Illustrator 17.1.0, SVG Export Plug-In . SVG Version: 6.00 Build 0)  -->
<!DOCTYPE svg PUBLIC "-//W3C//DTD SVG 1.1//EN" "http://www.w3.org/Graphics/SVG/1.1/DTD/svg11.dtd">
<svg version="1.1" id="Canvas" xmlns="http://www.w3.org/2000/svg" xmlns:xlink="http://www.w3.org/1999/xlink" x="0px" y="0px"
	 width="14513.4px" height="14513.4px" viewBox="0 0 14513.4 14513.4" enable-background="new 0 0 14513.4 14513.4"
	 xml:space="preserve">
<path fill="#010202" d="M13257.1,8265.5c122.9,51.9,252.4,51.9,381.9,6.4c6.4-19.4,6.4-38.8,6.4-64.6c32.4,25.8,25.8,51.9,25.8,84.1
	C13528.9,8343.1,13386.6,8349.5,13257.1,8265.5z M7846.7,6174.9c97.1,13,174.7-19.4,239.4-84.1c58.2-58.2,90.7-135.9,71.3-226.6
	c25.8,25.8,32.4,58.2,32.4,84.1c-6.4,142.3-161.7,265.4-278.2,252.4C7891.9,6194.3,7872.5,6194.3,7846.7,6174.9z M8726.8,7928.8
	c-6.4-45.2-6.4-90.7-13-135.9c51.9,45.2,32.4,103.5,51.9,161.7c-19.4,0-32.4,0-38.8,0h-498.4c-19.4,0-38.8,6.4-45.2-25.8H8726.8z
	 M13910.9,6485.6c19.4,13,19.4,25.8,13,45.2c-58.2,84.1-116.5,174.7-174.7,258.8c-13,13-19.4,19.4-38.8,19.4h-181.1
	c-19.4,0-32.4-6.4-38.8-25.8c13,0,25.8-6.4,32.4-6.4l168.4,6.4c19.4,0,32.4-13,45.2-25.8l155.3-239.4
	C13897.9,6505,13904.5,6498.6,13910.9,6485.6z M5063.8,7760.6c13,19.4,13,32.4,0,45.2l-71.3,129.5c-13,13-25.8,19.4-38.8,19.4
	c-32.4,0-71.3,0-103.5,0h-479c-19.4,0-38.8,6.4-58.2-25.8c13,0,25.8,0,38.8,0h556.7c38.8,0,64.6-6.4,84.1-45.2
	C5011.9,7844.7,5037.7,7805.9,5063.8,7760.6z M9600.5,7928.8c19.4,0,38.8,0,51.9,0h543.6c32.4,0,51.9-6.4,64.6-32.4l90.7-155.3
	c19.4,6.4,25.8,19.4,13,38.8l-90.7,161.7c-13,6.4-19.4,13-32.4,13c-6.4,0-13,0-19.4,0h-563.1
	C9639.3,7954.8,9619.9,7961.2,9600.5,7928.8z M6746.4,7559.9c6.4,6.4,13,13,19.4,19.4l-71.3,71.3c-71.3,71.3-148.9,142.3-233,200.6
	c-129.5,84.1-265.4,122.9-414.1,110.1c-51.9-6.4-97.1-19.4-142.3-45.2c6.4,0,13,0,13,0c103.5,38.8,200.6,32.4,304.3,6.4
	c116.5-19.4,213.6-77.7,304.3-155.3c64.6-58.2,129.5-122.9,194.2-181.1C6726.9,7579.3,6733.6,7566.5,6746.4,7559.9z M12493.5,7553.5
	c19.4,13,19.4,19.4,6.4,32.4l-51.9,58.2c-77.7,77.7-155.3,148.9-239.4,207.2c-116.5,77.7-239.4,116.5-381.9,110.1
	c-64.6,0-135.9-25.8-181.1-58.2c77.7,38.8,161.7,45.2,252.4,32.4c110.1-13,213.6-51.9,310.7-116.5
	c90.7-64.6,174.7-142.3,252.4-226.6C12474.1,7579.3,12487.1,7566.5,12493.5,7553.5z M10480.6,5708.9c51.9,13,97.1,25.8,148.9,32.4
	c116.5,19.4,233,6.4,343.1-19.4c97.1-25.8,181.1-58.2,265.4-116.5c45.2-25.8,90.7-64.6,122.9-110.1c71.3-90.7,97.1-187.8,84.1-304.3
	v-25.8c38.8,90.7,38.8,181.1-6.4,271.8c-32.4,71.3-84.1,122.9-148.9,174.7c-122.9,90.7-265.4,142.3-420.8,161.7
	c-116.5,13-226.6,6.4-330.1-32.4c-19.4-6.4-38.8-19.4-58.2-25.8V5708.9z M9153.9,7559.9c-13-13-19.4-19.4-25.8-25.8
	c-32.4-58.2-32.4-110.1-6.4-181.1h110.1c90.7-6.4,181.1-25.8,265.4-58.2c97.1-38.8,187.8-84.1,278.2-135.9
	c129.5-84.1,220-200.6,284.8-336.5c19.4-45.2,32.4-103.5,45.2-155.3c6.4-38.8,13-77.7,45.2-110.1c13,6.4,19.4,19.4,13,38.8
	c-19.4,38.8-32.4,77.7-38.8,116.5c-32.4,148.9-116.5,271.8-226.6,381.9c-116.5,110.1-265.4,181.1-414.1,233
	c-97.1,38.8-200.6,58.2-304.3,51.9h-32.4C9121.5,7443.4,9134.5,7501.6,9153.9,7559.9z M6131.7,7572.9
	c-51.9-64.6-58.2-135.9-25.8-220h51.9c116.5,6.4,220-13,323.7-58.2c103.5-38.8,207.2-84.1,297.6-155.3
	c116.5-77.7,207.2-187.8,265.4-317c19.4-45.2,25.8-103.5,38.8-155.3c13-38.8,19.4-77.7,45.2-110.1c13,13,25.8,19.4,13,38.8
	c-13,38.8-25.8,77.7-38.8,116.5c-25.8,161.7-116.5,284.8-226.6,394.7c-116.5,103.5-252.4,168.4-401.3,220
	c-110.1,45.2-226.6,64.6-349.5,58.2c0,19.4-13,32.4-13,51.9c6.4,32.4,13,71.3,13,103.5C6125,7553.5,6131.7,7559.9,6131.7,7572.9z
	 M1899,6420.9c6.4,0,13,6.4,13,6.4c122.9,58.2,252.4,77.7,381.9,64.6c174.7-13,336.5-51.9,491.8-135.9
	c226.6-129.5,388.3-317,453-569.5c19.4-58.2,25.8-110.1,32.4-168.4c6.4-64.6-13-129.5-38.8-194.2c-6.4-13-6.4-19.4-6.4-38.8
	c6.4,19.4,19.4,38.8,25.8,51.9c38.8,84.1,51.9,161.7,38.8,252.4c-51.9,355.9-258.8,595.5-582.5,737.8
	c-168.4,71.3-349.5,103.5-530.6,90.7c-97.1-6.4-187.8-38.8-265.4-84.1c-6.4,0-6.4-6.4-13-6.4L1899,6420.9L1899,6420.9z
	 M10687.8,5210.8c-265.4,45.2-479,174.7-679.6,343.1c-343.1,291.2-653.8,614.9-945,957.8c-168.4,194.2-343.1,388.3-511.2,582.5
	c-19.4,25.8-25.8,45.2-19.4,71.3c19.4,129.5,45.2,258.8,64.6,381.9l6.4,38.8c-25.8,6.4-32.4-6.4-32.4-25.8
	c-13-58.2-25.8-116.5-32.4-181.1c-13-71.3-25.8-142.3-38.8-220c-6.4-19.4-6.4-38.8,13-64.6c271.8-310.7,543.6-621.3,821.9-932
	c207.2-239.4,446.6-453,686-653.8c122.9-110.1,252.4-194.2,407.7-246c77.7-25.8,161.7-45.2,239.4-51.9
	C10674.8,5210.8,10681.4,5210.8,10687.8,5210.8z M8079.7,5819c-6.4,122.9-129.5,246-258.8,252.4c-84.1,0-142.3-58.2-142.3-142.3
	c6.4-129.5,129.5-252.4,258.8-258.8C8021.4,5670.1,8079.7,5728.4,8079.7,5819z M7613.7,7469.4l-13,19.4
	c-155.3,142.3-330.1,252.4-524.2,330.1c-45.2,13-97.1,32.4-148.9,19.4c-116.5-19.4-194.2-148.9-155.3-265.4
	c13-32.4,32.4-58.2,45.2-90.7c168.4-284.8,336.5-576.1,504.8-860.7c6.4-19.4,19.4-32.4,25.8-51.9c-51.9-13-103.5,0-155.3-6.4
	c6.4-32.4,64.6-142.3,103.5-187.8c148.9,0,304.3,0,466,0l-19.4,38.8c-194.2,336.5-388.3,679.6-582.5,1022.7c-6.4,6.4-13,13-13,19.4
	c-19.4,32.4-6.4,64.6,19.4,84.1c25.8,13,64.6,6.4,84.1-19.4c6.4-6.4,13-19.4,19.4-32.4c181.1-317,362.5-634.3,543.6-951.4
	c13-13,19.4-25.8,25.8-38.8c25.8,6.4,19.4,25.8,6.4,38.8l-116.5,207.2c-129.5,233-265.4,466-394.7,699l-13,32.4
	c64.6-32.4,116.5-77.7,181.1-129.5L7613.7,7469.4z M9639.3,6718.6c-25.8,13-51.9,19.4-64.6,32.4
	c-110.1,71.3-200.6,161.7-278.2,265.4l-13,19.4C9419.4,7016.2,9639.3,6828.7,9639.3,6718.6z M9645.7,6686.1
	c0-58.2-32.4-90.7-84.1-77.7c-32.4,6.4-64.6,19.4-90.7,32.4c-142.3,97.1-258.8,213.6-343.1,362.5l-19.4,38.8
	c0,13,6.4,25.8,19.4,25.8c32.4,0,64.6,0,90.7-6.4c13-6.4,25.8-25.8,32.4-38.8C9354.5,6880.3,9477.6,6757.4,9645.7,6686.1z
	 M9153.9,7559.9c6.4,13,19.4,13,32.4,13l97.1-32.4c110.1-45.2,213.6-110.1,297.6-194.2c25.8,13,77.7,77.7,103.5,116.5
	c0,0,0,6.4-6.4,13c-135.9,161.7-304.3,291.2-511.2,343.1c-77.7,19.4-148.9,32.4-226.6,25.8c-168.4-25.8-278.2-155.3-278.2-323.7
	c0-97.1,19.4-187.8,51.9-278.2c168.4-440.2,479-731.4,938.4-860.7c103.5-25.8,207.2-32.4,310.7-6.4c25.8,0,51.9,13,77.7,25.8
	c32.4,13,38.8,38.8,19.4,64.6c-25.8,38.8-45.2,77.7-51.9,122.9c-25.8,142.3-103.5,258.8-194.2,362.5
	c-103.5,110.1-233,181.1-375.3,233c-122.9,45.2-252.4,58.2-381.9,51.9h-32.4c-45.2,64.6-71.3,135.9-64.6,220
	c13,84.1,97.1,142.3,181.1,116.5C9140.9,7572.9,9147.5,7566.5,9153.9,7559.9z M5426.1,6899.7c6.4,13,13,19.4,19.4,32.4
	c19.4,32.4,32.4,38.8,58.2,6.4c38.8-38.8,64.6-84.1,77.7-142.3c0-6.4,0-13,0-19.4C5516.7,6789.8,5464.9,6828.7,5426.1,6899.7z
	 M4986.1,7585.9c84.1-148.9,168.4-291.2,252.4-440.2c-38.8-58.2-38.8-116.5-6.4-181.1c38.8-58.2,90.7-84.1,161.7-77.7
	c45.2-64.6,103.5-122.9,187.8-142.3c6.4-77.7-45.2-116.5-116.5-97.1c-71.3,19.4-122.9,71.3-155.3,135.9
	c-71.3,116.5-142.3,233-207.2,355.9c-90.7,148.9-181.1,304.3-265.4,453l-19.4,38.8c51.9,6.4,103.5,0,161.7,6.4
	c-13,32.4-32.4,64.6-45.2,90.7c-19.4,32.4-38.8,64.6-51.9,90.7h-660.1c38.8-64.6,77.7-122.9,110.1-187.8l129.5,6.4
	c32.4,0,45.2-6.4,58.2-32.4c194.2-336.5,388.3-673.2,588.9-1009.6c0-6.4,6.4-13,13-32.4h-161.7c6.4-19.4,13-32.4,19.4-45.2
	c-6.4,0-13,0-13,0c-148.9,135.9-323.7,220-517.8,278.2c-77.7,25.8-77.7,25.8-103.5,103.5c-38.8,129.5-58.2,265.4-58.2,401.3v90.7
	c-64.6,0-135.9,0-200.6,0c-6.4,0-19.4-6.4-32.4-13c32.4-13,64.6-13,103.5-13c32.4,0,64.6,0,103.5,0v-51.4
	c0-135.9,13-265.4,51.9-401.3c6.4-25.8,19.4-58.2,32.4-84.1c6.4-25.8,19.4-38.8,45.2-45.2c116.5-32.4,220-71.3,323.7-129.5
	c110.1-51.9,213.6-122.9,291.2-220c51.9-58.2,97.1-122.9,110.1-200.6c13-38.8,6.4-77.7-6.4-122.9c32.4,25.8,38.8,45.2,38.8,77.7
	c6.4,45.2-6.4,90.7-25.8,129.5c-13,19.4-19.4,32.4-25.8,51.9c13,0,25.8,6.4,38.8,6.4c103.5,0,200.6,0,304.3,0
	c38.8-6.4,77.7,6.4,90.7,51.9c168.4-71.3,336.5-84.1,511.2-19.4c-90.7,84.1-142.3,187.8-194.2,297.6
	c-19.4,38.8-38.8,77.7-58.2,122.9c-38.8,97.1-103.5,174.7-174.7,252.4c-51.9,51.9-116.5,90.7-187.8,116.5
	c-45.2,13-84.1,6.4-129.5-13c-6.4,0-19.4-6.4-32.4-13l-25.8,38.8c-64.6,116.5-135.9,233-207.2,355.9
	C5025,7579.3,5018.3,7598.7,4986.1,7585.9z M6617.1,6731.6c-84.1,13-317,213.6-349.5,310.7
	C6371.1,7042.3,6617.1,6841.5,6617.1,6731.6z M6138.1,7074.5l51.9-6.4c19.4-6.4,25.8-13,38.8-25.8c45.2-84.1,116.5-155.3,187.8-220
	c58.2-51.9,116.5-103.5,194.2-122.9c19.4-6.4,25.8-13,19.4-32.4c-6.4-38.8-45.2-64.6-90.7-58.2c-25.8,6.4-51.9,19.4-77.7,32.4
	c-148.9,97.1-271.8,220-355.9,375.3c-6.4,6.4-6.4,13-13,19.4c-6.4,19.4,0,32.4,25.8,38.8h19.4V7074.5z M6131.7,7572.9
	c13,0,25.8,0,38.8,0c142.3-32.4,258.8-103.5,368.9-200.6c6.4-6.4,13-13,19.4-19.4c0-6.4,6.4-6.4,13-6.4
	c25.8,38.8,64.6,77.7,97.1,116.5c-6.4,0,0,6.4-6.4,6.4c-122.9,161.7-278.2,284.8-479,343.1c-71.3,19.4-142.3,32.4-213.6,38.8
	c-142.3,6.4-323.7-110.1-330.1-317c0-90.7,19.4-174.7,45.2-252.4c6.4-13,6.4-25.8,13-45.2c-13,6.4-19.4,13-25.8,13
	c-38.8,25.8-77.7,45.2-122.9,64.6c-45.2,19.4-110.1,13-155.3-13c90.7,32.4,168.4-13,239.4-58.2c58.2-38.8,103.5-90.7,135.9-155.3
	c25.8-58.2,64.6-110.1,97.1-168.4c19.4-38.8,45.2-71.3,64.6-110.1l110.1-200.6c19.4-25.8,45.2-51.9,71.3-71.3
	c25.8,13,13,25.8,0,32.4c-51.9,51.9-90.7,110.1-122.9,174.7c0,6.4,0,13,0,19.4l32.4-32.4c174.7-161.7,368.9-278.2,595.5-336.5
	c97.1-32.4,207.2-45.2,310.7-25.8c32.4,6.4,64.6,19.4,90.7,32.4c38.8,13,45.2,38.8,19.4,71.3c-25.8,32.4-38.8,71.3-45.2,110.1
	c-51.9,226.6-174.7,394.7-368.9,511.2c-181.1,103.5-375.3,161.7-582.5,142.3c-32.4,0-45.2,13-58.2,38.8
	c-25.8,51.9-45.2,110.1-38.8,181.1c6.4,110.1,110.1,135.9,181.1,122.9L6131.7,7572.9z M12021.1,7042.3c0,0,0,0,6.4,0
	c129.5-45.2,233-129.5,317.1-239.4c13-25.8,25.8-45.2,25.8-77.7C12279.9,6738,12060,6932.2,12021.1,7042.3z M12377,6686.1
	c6.4-51.9-25.8-90.7-77.7-77.7c-32.4,6.4-64.6,19.4-90.7,32.4c-122.9,71.3-213.6,174.7-297.6,284.8c-25.8,25.8-38.8,58.2-58.2,90.7
	c0,0,0,6.4-6.4,13c-6.4,25.8,0,38.8,25.8,38.8c19.4,0,45.2-6.4,64.6-6.4c19.4,0,32.4-13,45.2-25.8
	C12085.8,6886.9,12208.7,6757.4,12377,6686.1z M11412.6,7644.2c-13,6.4-25.8,13-32.4,19.4c-110.1,97.1-226.6,168.4-349.5,239.4
	c-77.7,45.2-161.7,77.7-252.4,64.6c-19.4,0-45.2-6.4-64.6-13c129.5,13,246-38.8,355.9-110.1c103.5-64.6,200.6-129.5,297.6-213.6
	c19.4-19.4,32.4-38.8,25.8-77.7c-13-77.7,6.4-161.7,25.8-239.4c103.5-330.1,304.3-595.5,601.9-776.6
	c142.3-84.1,291.2-148.9,453-168.4c84.1-13,174.7-13,258.8,13c13,6.4,32.4,13,45.2,19.4c25.8,13,38.8,38.8,19.4,64.6
	c-32.4,38.8-45.2,84.1-58.2,135.9c-45.2,187.8-148.9,336.5-304.3,446.6c-174.7,122.9-375.3,194.2-601.9,187.8h-58.2
	c-13-6.4-19.4,0-25.8,13c-32.4,51.9-58.2,116.5-58.2,181.1c0,103.5,77.7,161.7,181.1,142.3c-6.4-38.8-25.8-71.3-32.4-110.1
	c-6.4-32.4,0-71.3,19.4-110.1h97.1c103.5-6.4,207.2-32.4,304.3-71.3c129.5-51.9,252.4-116.5,355.9-213.6
	c77.7-71.3,135.9-155.3,181.1-252.4c19.4-38.8,25.8-84.1,32.4-129.5l19.4-71.3c6.4-25.8,19.4-38.8,25.8-64.6
	c25.8,13,25.8,25.8,19.4,45.2c-19.4,32.4-32.4,64.6-32.4,97.1c-32.4,181.1-129.5,323.7-265.4,427.2
	c-200.6,161.7-427.2,258.8-692.6,258.8h-25.8c-25.8,71.3-13,129.5,13,194.2c168.4-32.4,304.3-110.1,427.2-233
	c32.4,38.8,64.6,77.7,97.1,116.5c0,6.4,0,6.4,0,13c-122.9,155.3-278.2,271.8-466,336.5c-71.3,19.4-142.3,32.4-220,38.8
	c-129.5,6.4-233-51.9-297.6-168.4C11425.6,7663.6,11419.2,7656.9,11412.6,7644.2z M9762.2,7553.5c6.4,6.4,13,13,19.4,19.4
	l-45.2,51.9c38.8,13,45.2,13,64.6-19.4c194.2-336.5,388.3-673.2,582.5-1009.6c6.4-6.4,6.4-19.4,19.4-32.4
	c-58.2-6.4-110.1,0-168.4-6.4c6.4-6.4,6.4-13,13-19.4l84.1-148.9c6.4-13,13-19.4,25.8-19.4h440.2c6.4,38.8-25.8,64.6-19.4,97.1
	c6.4,0,13,0,19.4-6.4c129.5-84.1,271.8-110.1,420.8-97.1c142.3,13,194.2,155.3,135.9,252.4l-142.3,252.4
	c-110.1,187.8-220,381.9-330.1,576.1l-13,13c-13,32.4-6.4,64.6,19.4,84.1c25.8,19.4,64.6,13,90.7-13c0-6.4,6.4-19.4,13-25.8
	l439.9-770.2c32.4-51.9,32.4-103.5,13-168.4c51.9,64.6,51.9,122.9,13,187.8l-207.2,355.9c-64.6,110.1-122.9,220-187.8,336.5
	l-13,32.4c58.2-32.4,110.1-84.1,168.4-129.5l110.1,129.5c-6.4,6.4-13,13-19.4,19.4c-110.1,103.5-233,194.2-368.9,265.4
	c-64.6,38.8-135.9,64.6-213.6,84.1c-135.9,32.4-271.8-110.1-233-246c13-38.8,25.8-71.3,45.2-103.5
	c129.5-226.6,265.4-453,394.7-673.2c6.4-13,13-25.8,25.8-45.2c-19.4,6.4-32.4,6.4-38.8,13c-148.9,64.6-258.8,174.7-343.1,310.7
	c-90.7,148.9-174.7,304.3-258.8,459.6c-13,13-19.4,38.8-45.2,25.8c0-13,6.4-19.4,6.4-25.8c97.1-168.4,187.8-336.5,291.2-498.4
	c90.7-155.3,226.6-258.8,388.3-323.7c32.4-13,45.2-38.8,45.2-64.6c-6.4-32.4-32.4-58.2-58.2-58.2s-51.9,6.4-71.3,13
	c-161.7,71.3-297.6,174.7-388.3,323.7c-129.5,213.6-252.4,433.5-381.9,653.8c0,6.4-6.4,13-13,25.8c64.6,6.4,122.9,0,187.8,6.4
	l-13,32.4c-19.4,32.4-45.2,71.3-64.6,110.1c-13,32.4-38.8,45.2-77.7,45.2c-187.8-6.4-375.3,0-563.1-6.4c-32.4,0-58.2,13-84.1,25.8
	c-110.1,77.7-239.4,116.5-375.3,116.5c-64.6,0-135.9-19.4-174.7-51.9c226.6,71.3,420.8,0,595.5-129.5c13-6.4,19.4-19.4,25.8-32.4
	c19.4-32.4,32.4-64.6,51.9-90.7c6.4-13,13-25.8,32.4-19.4c45.2,6.4,71.3-19.4,97.1-51.9C9742.8,7572.9,9749.4,7566.5,9762.2,7553.5z
	 M13101.8,7598.7c19.4-6.4,32.4-6.4,45.2-13c71.3-32.4,129.5-77.7,168.4-135.9c25.8-32.4,38.8-64.6,51.9-97.1
	c13-19.4,13-38.8-6.4-58.2c-19.4-13-38.8-13-64.6,0l-19.4,19.4c-84.1,58.2-142.3,142.3-168.4,246
	C13101.8,7566.5,13101.8,7579.3,13101.8,7598.7z M13684.3,6369.1h155.3c-6.4,13-6.4,25.8-13,32.4c-51.9,77.7-110.1,161.7-161.7,246
	c-13,19.4-25.8,32.4-51.9,32.4l-194.2-6.4c32.4-45.2,64.6-90.7,97.1-135.9c-45.2-13-84.1-6.4-122.9-6.4c-13,6.4-25.8,19.4-32.4,32.4
	l-187.8,304.3c-110.1,187.8-213.6,388.3-304.3,588.9c-13,32.4-25.8,58.2-25.8,90.7c6.4,58.2,38.8,90.7,97.1,84.1l6.4-6.4
	c45.2-155.3,122.9-297.6,200.6-433.5c77.7-148.9,168.4-291.2,252.4-433.5c6.4-13,13-19.4,19.4-32.4c19.4,13,19.4,25.8,6.4,45.2
	c-32.4,58.2-71.3,110.1-103.5,168.4c-51.9,84.1-97.1,174.7-148.9,258.8c-6.4,13-6.4,25.8-6.4,38.8c6.4-6.4,19.4-13,32.4-19.4
	c51.9-38.8,110.1-64.6,174.7-64.6c84.1,0,142.3,51.9,148.9,135.9c0,45.2-6.4,90.7-25.8,129.5c-19.4,51.9-45.2,97.1-84.1,142.3
	c-71.3,77.7-148.9,135.9-239.4,187.8c-25.8,13-51.9,25.8-77.7,38.8c-6.4,64.6,45.2,168.4,103.5,213.6
	c-6.4-38.8-19.4-71.3-25.8-103.5c19.4-13,32.4-19.4,45.2-25.8c103.5-51.9,194.2-116.5,271.8-200.6c32.4-38.8,58.2-77.7,84.1-122.9
	c32.4-71.3,38.8-116.5,25.8-207.2c19.4,19.4,25.8,45.2,25.8,71.3c6.4,51.9-6.4,97.1-25.8,142.3c-45.2,97.1-110.1,161.7-187.8,226.6
	c-51.9,45.2-110.1,77.7-168.4,110.1l-38.8,19.4c0,38.8,13,77.7,25.8,110.1c6.4,13,19.4,19.4,32.4,25.8
	c58.2,19.4,122.9,25.8,187.8,19.4c32.4-6.4,64.6-13,103.5-19.4l13,116.5c-6.4,0-13,6.4-19.4,6.4c-103.5,38.8-213.6,38.8-317.1,6.4
	c-84.1-32.4-148.9-84.1-194.2-161.7c-19.4-25.8-32.4-38.8-64.6-32.4c-51.9,6.4-103.5-6.4-148.9-32.4c58.2,6.4,110.1,19.4,168.4-6.4
	c-13-38.8-25.8-71.3-45.2-110.1c-13,0-32.4,6.4-45.2,13c-181.1,45.2-349.5-90.7-349.5-278.2c6.4-38.8,13-84.1,25.8-122.9
	c32.4-142.3,97.1-265.4,168.4-394.7c90.7-155.3,187.8-310.7,284.8-466c13-13,19.4-25.8,32.4-45.2c-32.4-6.4-58.2-6.4-84.1-6.4h-84.1
	c0-6.4,6.4-19.4,6.4-25.8l71.3-110.1c13-19.4,25.8-25.8,45.2-25.8h122.9c19.4,0,32.4-6.4,45.2-19.4
	c122.9-181.1,252.4-355.9,394.7-524.2c0-6.4,6.4-13,13-25.8c-148.9,13-291.2,32.4-420.8-45.2l122.9,25.8
	c110.1,19.4,213.6,6.4,317.1-13l6.4-6.4c32.4-32.4,64.6-64.6,90.7-103.5c13-19.4-6.4-38.8-32.4-32.4c-38.8,6.4-84.1,19.4-122.9,25.8
	c-110.1,25.8-226.6,38.8-343.1,13c-135.9-25.8-239.4-97.1-297.6-220c-6.4-6.4-6.4-13-13-32.4c181.1-6.4,349.5-45.2,511.2-148.9
	c19.4,32.4,38.8,58.2,64.6,90.7c-13,13-19.4,25.8-32.4,38.8c-25.8,32.4-19.4,51.9,19.4,64.6c25.8,6.4,51.9,6.4,84.1,6.4
	c84.1,0,168.4-25.8,246-51.9c181.1-64.6,349.5-161.7,498.4-278.2c13-13,25.8-25.8,38.8-38.8c38.8,58.2,64.6,110.1,97.1,168.4
	c-343.1,336.5-660.1,705.4-938.4,1106.7h148.9c6.4,0,19.4-13,25.8-25.8c58.2-71.3,110.1-142.3,168.4-220
	c187.8-239.4,394.7-472.4,614.9-692.6c19.4-19.4,32.4-32.4,51.9-45.2c13,6.4,19.4,13,6.4,25.8c-6.4,6.4-19.4,19.4-25.8,25.8
	c-278.2,278.2-530.6,576.1-763.6,886.7C13703.7,6336.6,13697.3,6349.7,13684.3,6369.1z M8455,6686.1c6.4,0,6.4,6.4,13,6.4
	c6.4-13,19.4-25.8,32.4-38.8h-51.9C8455,6666.7,8455,6679.7,8455,6686.1z M8099.1,7624.7c0,0,0,0,0,6.4c32.4,0,64.6,6.4,103.5-6.4
	l-19.4-97.1C8150.9,7559.9,8124.9,7592.3,8099.1,7624.7z M6959.9,7935.4c58.2,25.8,116.5,19.4,174.7,0
	c45.2-19.4,90.7-32.4,135.9-58.2c194.2-97.1,375.3-220,524.2-388.3l297.6-355.9c13-13,19.4-25.8,13-45.2
	c-25.8-168.4-58.2-336.5-84.1-504.8c0-6.4-6.4-13-6.4-19.4c-45.2,0-84.1,0-129.5,0l-13-187.8c174.7,0,355.9,0,530.6,0l19.4,181.1
	c-45.2,6.4-90.7,6.4-135.9,6.4c13,90.7,32.4,181.1,45.2,271.8l19.4-13c25.8-25.8,58.2-51.9,71.3-84.1c13-32.4,0-71.3-6.4-110.1
	c32.4-6.4,64.6-6.4,103.5-6.4c0-45.2,6.4-84.1,6.4-129.5c38.8,19.4,19.4,58.2,32.4,84.1c13,0,19.4-19.4,32.4-25.8
	c187.8-226.6,375.3-446.6,563.1-666.5c278.2-323.7,582.5-608.3,932-854.3c148.9-103.5,310.7-187.8,491.8-226.6
	c148.9-38.8,304.3-51.9,459.6-19.4c161.7,32.4,271.8,122.9,310.7,284.8c25.8,97.1,6.4,187.8-45.2,271.8
	c-64.6,90.7-148.9,155.3-246,207.2c-142.3,71.3-291.2,103.5-453,90.7c-84.1,0-161.7-25.8-246-58.2c-6.4,0-13-13-25.8-19.4
	c19.4-13,32.4-6.4,51.9-6.4c103.5,0,207.2-13,304.3-58.2c51.9-25.8,97.1-51.9,135.9-97.1c25.8-25.8,51.9-64.6,58.2-103.5
	c19.4-64.6-6.4-122.9-58.2-161.7c-45.2-32.4-97.1-45.2-148.9-38.8c-148.9,13-284.8,45.2-414.1,110.1
	c-142.3,64.6-258.8,155.3-375.3,252.4c-317.1,271.8-601.9,569.5-880.1,880.1c-200.6,233-407.7,459.6-608.3,692.6
	c-19.4,19.4-25.8,38.8-19.4,64.6c25.8,161.7,58.2,323.7,84.1,485.4c6.4,19.4,6.4,32.4,13,51.9h129.5c6.4,64.6,13,122.9,19.4,181.1
	c-32.4,13-479,13-550,6.4l-13-155.3c-19.4,19.4-32.4,32.4-45.2,51.9c-226.6,252.4-479,472.4-750.8,666.5
	c-135.9,97.1-278.2,174.7-427.2,233c-207.2,77.7-427.2,97.1-640.7,77.7c-45.2-6.4-90.7-13-129.5-25.8c32.4,6.4,58.2,6.4,90.7,13
	c271.8,19.4,530.6-25.8,770.2-142.3c187.8-90.7,355.9-200.6,517.8-330.1c246-200.6,472.4-427.2,679.6-666.5
	c38.8-45.2,58.2-84.1,38.8-142.3c-6.4-19.4-6.4-45.2-13-71.3l-38.8,38.8c-116.5,129.5-233,258.8-349.5,381.9
	c-187.8,200.6-394.7,375.3-621.3,530.6c-161.7,116.5-330.1,207.2-524.2,265.4c-187.8,58.2-381.9,84.1-576.1,64.6
	c-103.5-6.4-207.2-32.4-297.6-90.7c-32.4-25.8-71.3-51.9-103.5-84.1c-103.5-116.5-58.2-297.6,84.1-355.9
	c142.3-51.9,278.2-38.8,407.7,45.2c6.4,0,6.4,0,13,6.4c0,6.4,6.4,19.4,6.4,25.8c0,0-13,6.4-19.4,13c-13,0-25.8,0-38.8,6.4
	c-32.4,13-58.2,38.8-58.2,71.3s19.4,58.2,51.9,71.3c51.9,25.8,103.5,38.8,161.7,38.8c155.3,6.4,304.3-13,453-71.3
	c207.2-84.1,414.1-187.8,595.5-330.1c38.8-32.4,77.7-64.6,116.5-97.1c13-6.4,19.4-13,25.8-19.4c0,0-6.4-6.4-6.4-13
	c-13,13-25.8,19.4-38.8,25.8c-84.1,51.9-168.4,90.7-265.4,116.5C7070,7980.6,7011.8,7967.6,6959.9,7935.4z M7833.7,4783.6
	c-19.4,13-32.4,25.8-51.9,32.4c-148.9,110.1-297.6,220-433.5,343.1c-19.4,13-38.8,19.4-58.2,13c-129.5-13-258.8-25.8-388.3-32.4
	c-135.9-13-271.8-25.8-407.7-38.8c-142.3-13-284.8-25.8-427.2-38.8c-110.1-6.4-226.6-19.4-336.5-25.8
	c-155.3-13-304.3-25.8-459.6-38.8c-122.9-13-246-19.4-362.5-25.8l-427.2-32.4c-142.3-13-284.8-19.4-427.2-25.8
	c-200.6-13-401.3-25.8-601.9-32.4c-200.6,0-394.7-6.4-588.9,0c-135.9,0-271.8,38.8-401.3,90.7c-148.9,51.9-291.2,116.5-414.1,220
	c-122.9,103.5-220,213.6-278.2,362.5c-38.8,97.1-58.2,207.2-25.8,317c58.2,194.2,291.2,381.9,550,278.2
	c97.1-38.8,168.4-103.5,220-194.2c13-25.8,19.4-51.9,19.4-77.7c-77.7-45.2-142.3-25.8-207.2,45.2l-25.8-25.8
	c64.6-64.6,142.3-77.7,220-45.2c6.4-51.9-32.4-97.1-84.1-122.9c-71.3-38.8-142.3-19.4-226.6,51.9c-6.4-13-6.4-19.4-13-25.8
	c-32.4-51.9-71.3-103.5-103.5-148.9c-6.4-13-19.4-19.4-13-38.8c6.4-19.4,19.4-19.4,38.8-25.8c148.9-19.4,291.2-51.9,433.5-110.1
	c161.7-64.6,310.7-155.3,427.2-297.6c84.1,45.2,148.9,110.1,187.8,200.6c32.4,90.7,38.8,181.1,19.4,278.2
	c-58.2,297.6-233,511.2-498.4,647.1c-103.5,58.2-213.6,97.1-330.1,116.5c-265.4,32.4-504.8-25.8-699-220
	c-129.5-122.9-168.4-278.2-155.3-446.6c19.4-161.7,84.1-297.6,181.1-427.2c142.3-194.2,330.1-330.1,550-440.2
	c168.4-84.1,349.5-129.5,543.6-155.3c194.2-19.4,388.3-13,582.5-13c394.7,13,789.7,19.4,1190.8,25.8l744.2,19.4
	c375.3,6.4,750.8,13,1126.1,25.8c368.9,6.4,744.2,13,1119.7,25.8c97.1,0,187.8,0,284.8,6.4L7833.7,4783.6z M4837.2,6181.6
	c6.4-32.4-6.4-45.2-32.4-38.8c-32.4,13-64.6,25.8-90.7,45.2c-116.5,64.6-207.2,155.3-291.2,265.4c0,0-6.4,6.4-6.4,13
	c-6.4,13,0,32.4,19.4,32.4c6.4-6.4,13-6.4,19.4-6.4l103.5-45.2c103.5-51.9,187.8-122.9,252.4-220L4837.2,6181.6z M5122,5152.5
	c-64.6-13-122.9-13-181.1-19.4c-181.1-13-355.9-25.8-537.3-38.8l-407.7-25.8c-148.9-13-304.3-19.4-459.6-32.4
	c-187.8-6.4-375.3-25.8-563.1-25.8c-258.8,6.4-511.2,64.6-744.2,187.8c-116.5,64.6-220,148.9-297.6,252.4
	c-25.8,38.8-51.9,77.7-77.7,116.5c6.4-13,13-32.4,19.4-45.2c71.3-129.5,174.7-233,297.6-310.7c168.4-110.1,355.9-174.7,556.7-207.2
	c174.7-32.4,355.9-25.8,537.3-13c116.5,6.4,226.6,13,336.5,19.4c155.3,13,304.3,19.4,453,32.4l414.1,25.8
	c135.9,13,278.2,19.4,420.8,32.4c116.5,6.4,226.6,13,343.1,19.4c25.8,0,58.2-6.4,90.7-13c45.2-6.4,90.7-13,135.9-19.4
	c19.4-6.4,32.4,0,38.8,19.4l64.6,110.1c-84.1,19.4-168.4,38.8-246,58.2c-246,71.3-453,194.2-627.7,375.3
	c-148.9,148.9-291.2,297.6-407.7,466c-97.1,142.3-181.1,291.2-265.4,440.2c0,0,0,6.4-6.4,19.4c45.2,0,90.7-6.4,129.5-13
	c19.4,0,25.8-13,32.4-25.8c38.8-77.7,84.1-148.9,122.9-220c110.1-174.7,239.4-330.1,381.9-472.4l122.9-129.5
	c181.1-174.7,388.3-297.6,627.7-362.5l252.4-64.6c-19.4-38.8-32.4-84.1-58.2-129.5c51.9,0,103.5,6.4,148.9,13
	c142.3,13,284.8,25.8,427.2,38.8c135.9,13,278.2,19.4,414.1,32.4c129.5,13,265.4,25.8,401.3,38.8c97.1,6.4,194.2,13,297.6,25.8
	c25.8,6.4,51.9-6.4,71.3-25.8c148.9-110.1,304.3-226.6,453-336.5l38.8-32.4c13,25.8,6.4,45.2-13,58.2l-485.4,355.9
	c-13,13-32.4,13-51.9,13l-524.2-45.2c-200.6-19.4-401.3-32.4-608.3-51.9c-155.3-13-317-32.4-479-45.2c-6.4,0-19.4,0-32.4,0
	l45.2,116.5c-13,0-25.8,6.4-38.8,6.4l-343.1,90.7c-161.7,51.9-310.7,135.9-433.5,246c-168.4,142.3-323.7,304.3-453,479
	c-13,19.4-25.8,38.8-32.4,58.2c6.4-6.4,13-6.4,19.4-13c51.9-45.2,97.1-90.7,148.9-129.5c71.3-58.2,155.3-103.5,252.4-116.5
	c38.8-6.4,71.3-6.4,110.1,0c58.2,19.4,90.7,64.6,97.1,122.9c0,51.9-13,103.5-32.4,148.9c-45.2,77.7-97.1,148.9-168.4,207.2
	c-110.1,84.1-233,148.9-355.9,200.6c-71.3,25.8-135.9,51.9-207.2,71.3c-25.8,6.4-38.8,19.4-51.9,45.2
	c-64.6,161.7-97.1,323.7-97.1,498.4c0,13,0,25.8-6.4,38.8h-161.7c-6.4-103.5,19.4-207.2,32.4-317c-13,13-19.4,25.8-25.8,45.2
	l-479,886c-84.1,148.9-181.1,291.2-278.2,427.2c-194.2,284.8-414.1,550-666.5,789.7c-38.8,38.8-77.7,77.7-122.9,110.1
	c-194.2,148.9-394.7,297.6-614.9,401.3c-226.6,110.1-466,174.7-712,213.6c-116.5,13-233,19.4-349.5,13c-51.9,0-103.5-6.4-148.9-25.8
	c77.7,6.4,161.7,13,239.4,13c246-6.4,479-58.2,705.4-135.9c213.6-71.3,401.3-187.8,582.5-304.3c168.4-110.1,317-226.6,459.6-362.5
	c207.2-207.2,394.7-433.5,563.1-666.5c174.7-239.4,323.7-491.8,453-750.8c122.9-226.6,246-446.6,368.9-673.2
	c6.4-19.4,13-38.8,38.8-45.2c0,0,6.4-6.4,6.4-13c19.4-38.8,32.4-84.1,51.9-135.9c-58.2,6.4-110.1,6.4-155.3,13
	c-13,6.4-25.8,19.4-32.4,32.4l-155.3,284.8c-129.5,246-252.4,485.4-388.3,724.8c-77.7,148.9-174.7,291.2-271.8,433.5
	c-148.9,207.2-310.7,401.3-485.4,588.9c-239.4,258.8-517.8,459.6-815.5,634.3c-258.8,142.3-537.3,226.6-828.5,271.8
	c-148.9,25.8-297.6,25.8-446.6,0c-103.5-13-200.6-45.2-284.8-103.5C21.5,9495.5-43.1,9294.8,28.2,9087.8
	c32.4-90.7,84.1-174.7,148.9-246C326,8686.5,513.6,8583,720.7,8531.1c181.1-51.9,362.5-58.2,543.6-6.4
	c103.5,25.8,194.2,71.3,271.8,142.3c6.4,6.4,19.4,13,25.8,25.8c19.4,25.8,25.8,64.6,6.4,97.1c-19.4,32.4-51.9,45.2-84.1,38.8
	l-77.7-13c-135.9-25.8-265.4-19.4-401.3,6.4c-142.3,32.4-278.2,77.7-401.3,161.7c-64.6,38.8-116.5,84.1-161.7,148.9
	c-32.4,51.9-51.9,103.5-45.2,161.7c6.4,38.8,19.4,64.6,51.9,97.1c13-122.9,84.1-200.6,174.7-265.4
	c135.9-103.5,284.8-155.3,446.6-187.8c122.9-25.8,246-25.8,368.9-6.4l71.3,13c77.7,19.4,122.9-19.4,122.9-97.1v-13
	c32.4,19.4,32.4,51.9,25.8,77.7c-6.4,38.8-25.8,58.2-64.6,64.6c-13,0-32.4,0-45.2,0c-220-58.2-427.2-32.4-640.7,38.8
	c-97.1,32.4-194.2,77.7-278.2,142.3c-45.2,38.8-90.7,77.7-116.5,122.9c-19.4,32.4-32.4,71.3-38.8,103.5
	c-6.4,25.8,6.4,45.2,25.8,58.2c58.2,38.8,129.5,58.2,194.2,71.3c213.6,32.4,414.1,0,608.3-84.1c239.4-97.1,453-239.4,647.1-414.1
	c368.9-343.1,666.5-737.8,912.6-1171.4c161.7-284.8,323.7-569.5,491.8-860.7l19.4-38.8c-19.4,6.4-32.4,6.4-45.2,6.4
	c-284.8,45.2-550,142.3-770.2,323.7c-220,174.7-355.9,394.7-407.7,666.5l-13,84.1c-6.4,32.4-6.4,58.2-6.4,97.1
	c-19.4-84.1-13-148.9-6.4-220c38.8-213.6,135.9-394.7,284.8-550c207.2-200.6,453-330.1,731.4-394.7c71.3-19.4,155.3-32.4,233-45.2
	c13,0,25.8-6.4,38.8-19.4c13-25.8,25.8-51.9,45.2-84.1c-13,0-19.4-6.4-25.8-6.4c-407.7,25.8-776.6,155.3-1080.9,440.2
	c-142.3,129.5-246,284.8-297.6,472.4c-45.2,174.7-38.8,343.1,19.4,517.8c6.4,13,13,19.4,13,32.4c6.4,19.4,0,38.8-19.4,45.2
	c-13,13-32.4,6.4-45.2-6.4l-19.4-19.4c-142.3-187.8-207.2-394.7-187.8-627.7c13-142.3,58.2-271.8,135.9-388.3
	c110.1-174.7,258.8-304.3,433.5-407.7c168.4-90.7,349.5-148.9,537.3-187.8c168.4-25.8,336.5-51.9,511.2-58.2
	c38.8-6.4,77.7-6.4,110.1-6.4c25.8,0,38.8-6.4,51.9-25.8c168.4-271.8,355.9-524.2,556.7-763.6c258.8-297.6,563.1-524.2,945-653.8
	C5102.6,5165.3,5109,5158.9,5122,5152.5z"/>
</svg>
