<?xml version="1.0" encoding="utf-8"?>
<!-- Generator: Adobe Illustrator 17.1.0, SVG Export Plug-In . SVG Version: 6.00 Build 0)  -->
<!DOCTYPE svg PUBLIC "-//W3C//DTD SVG 1.1//EN" "http://www.w3.org/Graphics/SVG/1.1/DTD/svg11.dtd">
<svg version="1.1" id="Canvas" xmlns="http://www.w3.org/2000/svg" xmlns:xlink="http://www.w3.org/1999/xlink" x="0px" y="0px"
	 width="14513.4px" height="14513.4px" viewBox="0 0 14513.4 14513.4" enable-background="new 0 0 14513.4 14513.4"
	 xml:space="preserve">
<path fill="#010202" d="M13987.3,6222.6H8816.9V4154.5h5170.4V6222.6z M13479.3,13987.3H8816.9V6730.6h4662.4V13987.3z M8581,3628.3
	h-635c272.1-308.4,526.1-689.4,762-1106.6C9306.7,1542,9905.4,526.1,10921.3,526.1c598.7,0,997.8,381,997.8,979.7
	c0,489.8-272.1,997.8-762,1378.8C10739.9,3229.2,9941.7,3628.3,8581,3628.3z M8290.8,6222.6H6222.6V4154.5h2068.2V6222.6z
	 M8290.8,13987.3H6222.6V6730.6h2068.2V13987.3z M3356.2,2884.5c-489.8-381-762-888.9-762-1378.8c0-598.7,399.1-979.7,997.8-979.7
	c1015.9,0,1614.6,1015.9,2213.3,1995.6c235.8,417.3,489.8,798.2,762,1106.6h-635C4571.7,3628.3,3773.5,3229.2,3356.2,2884.5z
	 M5696.5,6222.6H526.1V4154.5h5170.4V6222.6z M5696.5,13987.3H1034.1V6730.6h4662.4V13987.3z M13987.3,3628.3h-3029.7
	c217.7-108.9,399.1-235.8,526.1-344.7c616.8-471.7,961.5-1124.8,961.5-1777.9c0-888.9-635-1505.8-1523.9-1505.8
	c-1306.2,0-2050,1251.8-2648.7,2249.6c-344.7,562.4-671.2,1106.6-1015.9,1288.1C6912,3356.2,6585.5,2812,6240.8,2249.6
	C5642.1,1251.8,4898.3,0,3592.1,0c-888.9,0-1523.9,616.8-1523.9,1505.8c0,653.1,344.7,1306.2,961.5,1777.9
	c127,108.9,308.4,235.8,526.1,344.7H526.1C235.8,3628.3,0,3864.2,0,4154.5v2068.2c0,290.3,235.8,508,526.1,508v7256.7
	c0,290.3,217.7,526.1,508,526.1h4662.4h3120.4h4662.4c290.3,0,508-235.8,508-526.1V6730.6c290.3,0,526.1-217.7,526.1-508V4154.5
	C14513.4,3864.2,14277.5,3628.3,13987.3,3628.3z"/>
</svg>
