<?xml version="1.0" encoding="utf-8"?>
<!-- Generator: Adobe Illustrator 17.1.0, SVG Export Plug-In . SVG Version: 6.00 Build 0)  -->
<!DOCTYPE svg PUBLIC "-//W3C//DTD SVG 1.1//EN" "http://www.w3.org/Graphics/SVG/1.1/DTD/svg11.dtd">
<svg version="1.1" id="Canvas" xmlns="http://www.w3.org/2000/svg" xmlns:xlink="http://www.w3.org/1999/xlink" x="0px" y="0px"
	 width="14513.4px" height="14513.4px" viewBox="0 0 14513.4 14513.4" enable-background="new 0 0 14513.4 14513.4"
	 xml:space="preserve">
<path fill="#010202" d="M14102.2,7256.7H9119.2c943.4-580.5,1862.6-1741.6,1983.5-2612.4c48.4-362.8-24.2-870.8-628.9-1257.8
	c-580.5-387-1233.6-435.4-1814.2-120.9c-483.8,266.1-919.2,749.9-1233.6,1354.6V2007.7h6676.2V7256.7z M14102.2,12505.7H7426V8079.1
	c314.5,217.7,628.9,435.4,870.8,701.5c580.5,580.5,774,1064.3,701.5,1282c-48.4,120.9,24.2,266.1,169.3,314.5
	c24.2,24.2,48.4,24.2,72.6,24.2c120.9,0,217.7-72.6,241.9-193.5c169.3-459.6-120.9-1112.7-798.2-1790
	c-290.3-290.3-628.9-411.2-967.6-628.9c96.8-48.4,217.7-96.8,314.5-145.1h6071.4V12505.7z M7039,4620.1
	c-290.3-604.7-725.7-1088.5-1209.4-1354.6c-580.5-314.5-1233.6-266.1-1814.2,120.9c-604.7,387-677.3,895-628.9,1257.8
	c120.9,870.8,1040.1,2031.9,1983.5,2612.4H459.6v-5249H7039V4620.1z M7039,7256.7h-508c-1112.7-387-2515.7-1814.2-2612.4-2685
	c-48.4-314.5,72.6-556.3,387-749.9c411.2-290.3,846.6-314.5,1282-96.8C6410.1,4184.7,7039,5732.8,7039,7014.8c0,24.2,0,72.6,0,96.8
	V7256.7z M7039,12505.7H459.6v-4862h5974.7c120.9,48.4,217.7,96.8,338.6,145.1c-362.8,217.7-677.3,338.6-967.6,628.9
	c-677.3,677.3-967.6,1330.4-798.2,1790c24.2,120.9,120.9,193.5,241.9,193.5c24.2,0,48.4,0,72.6-24.2
	c145.1-48.4,217.7-193.5,169.3-314.5c-72.6-217.7,120.9-701.5,677.3-1282c266.1-266.1,556.3-483.8,870.8-701.5V12505.7z
	 M7426,7111.6c24.2-24.2,24.2-72.6,24.2-96.8c0-1282,628.9-2830.1,1451.3-3289.7c435.4-217.7,846.6-193.5,1282,96.8
	c314.5,193.5,435.4,435.4,387,749.9c-120.9,870.8-1499.7,2298-2612.4,2685H7426V7111.6z M13981.2,1548.1H459.6
	C169.3,1548.1,0,1717.4,0,2007.7v10498c0,290.3,290.3,459.6,580.5,459.6h13521.6c290.3,0,411.2-169.3,411.2-459.6v-10498
	C14513.4,1717.4,14271.5,1548.1,13981.2,1548.1z"/>
</svg>
