<?xml version="1.0" encoding="utf-8"?>
<!-- Generator: Adobe Illustrator 17.1.0, SVG Export Plug-In . SVG Version: 6.00 Build 0)  -->
<!DOCTYPE svg PUBLIC "-//W3C//DTD SVG 1.1//EN" "http://www.w3.org/Graphics/SVG/1.1/DTD/svg11.dtd">
<svg version="1.1" id="Canvas" xmlns="http://www.w3.org/2000/svg" xmlns:xlink="http://www.w3.org/1999/xlink" x="0px" y="0px"
	 width="14513.4px" height="14513.4px" viewBox="0 0 14513.4 14513.4" enable-background="new 0 0 14513.4 14513.4"
	 xml:space="preserve">
<path fill="#010202" d="M7153.4,5986.1c20,450-320,820-760,810c-200-10-370-90-510-230c-210-200-320-450-390-730
	c-30-130-50-280-60-360c0-190,20-320,60-440c80-230,250-370,490-430c270-60,510,20,700,210s300,410,380,660
	C7113.4,5636.1,7143.4,5806.1,7153.4,5986.1z M5303.4,9546.1c-310-280-350-750-100-1060c140-160,330-260,530-320
	c310-100,620-130,940-120c30,0,60,10,80,20c190,150,390,290,570,450c130,110,220,240,250,410c50,290-30,530-250,720
	c-160,130-350,200-550,230c-120,20-240,20-360,40c-290-10-580-50-840-190C5473.4,9676.1,5383.4,9616.1,5303.4,9546.1z
	 M8263.4,7176.1c250,0,510,0,770,0c0,260,0,520,0,770c130,0,250,0,380,0c0-260,0-510,0-770c270,0,520,0,770,0c0-130,0-260,0-390
	c-260,0-510,0-770,0c0-260,0-510,0-770c-130,0-250,0-380,0c0,260,0,520,0,780c-260,0-520,0-770,0
	C8263.4,6926.1,8263.4,7046.1,8263.4,7176.1z M4773.4,9926.1c240,170,510,250,800,290c230,40,460,40,690,30c350-30,690-110,1010-260
	c300-160,560-370,720-680c220-420,180-930-160-1300c-90-90-180-170-270-250c-150-120-300-230-450-360c-170-140-190-340-40-510
	c50-70,130-130,190-200c90-80,190-150,270-240c290-290,370-650,310-1050c-50-290-200-520-420-720c-20-20-40-40-70-70
	c140,0,270,10,390,0c40,0,70-10,100-20c140-80,270-170,400-250c30-10,50-40,90-70c-40,0-50,0-70,0c-600,0-1200-10-1800,0
	c-290,0-570,60-840,170s-500,260-660,510c-140,200-200,430-230,670c-40,380,70,720,340,1000c240,260,550,370,890,390
	c110,0,210,0,320,0c-140,300-50,560,160,800c-110,10-200,20-290,30c-290,20-580,70-850,170c-270,90-510,230-700,440
	C4183.4,8916.1,4253.4,9566.1,4773.4,9926.1z"/>
</svg>
