<?xml version="1.0" encoding="utf-8"?>
<!-- Generator: Adobe Illustrator 16.0.0, SVG Export Plug-In . SVG Version: 6.00 Build 0)  -->
<!DOCTYPE svg PUBLIC "-//W3C//DTD SVG 1.1//EN" "http://www.w3.org/Graphics/SVG/1.1/DTD/svg11.dtd">
<svg version="1.1" id="nav_home" xmlns="http://www.w3.org/2000/svg" xmlns:xlink="http://www.w3.org/1999/xlink" x="0px" y="0px"
	 width="130px" height="100px" viewBox="0 0 130 100" enable-background="new 0 0 130 100" xml:space="preserve">
<path fill="#999998" d="M123,0H7C3.15,0,0,3.15,0,7v86.001C0,96.85,3.15,100,7,100h116c3.851,0,7-3.15,7-6.999V7
	C130,3.149,126.851,0,123,0z M55.196,69.533l-0.34,0.117c-3.601,1.232-7.706,1.83-12.552,1.83c-13.308,0-21.909-8.508-21.909-21.675
	c0-12.562,9.034-21.331,21.966-21.331c6.104,0,8.746,0.907,12.088,2.061l0.37,0.128l-0.564,7.111l-0.711-0.466
	c-2.986-1.95-6.04-2.709-10.89-2.709c-8.881,0-15.082,6.331-15.082,15.382c0,8.91,6.22,15.373,14.79,15.373
	c3.303,0,4.529-0.273,5.712-0.537c0.1-0.021,0.199-0.041,0.297-0.064V53.336h-8.548v-5.78h15.373V69.533z M65.706,79.455h-1.411
	V20.739h1.411V79.455z M107.336,53.473c0,11.612-5.775,18.008-16.266,18.008c-10.488,0-16.267-6.396-16.267-18.008V29.172h6.825
	v23.543c0,8.623,3.002,12.639,9.44,12.639c6.442,0,9.44-4.016,9.44-12.639V29.172h6.826V53.473z"/>
</svg>
