<?xml version="1.0" encoding="utf-8"?>
<!-- Generator: Adobe Illustrator 17.1.0, SVG Export Plug-In . SVG Version: 6.00 Build 0)  -->
<!DOCTYPE svg PUBLIC "-//W3C//DTD SVG 1.1//EN" "http://www.w3.org/Graphics/SVG/1.1/DTD/svg11.dtd">
<svg version="1.1" id="Canvas" xmlns="http://www.w3.org/2000/svg" xmlns:xlink="http://www.w3.org/1999/xlink" x="0px" y="0px"
	 width="14513.4px" height="14513.4px" viewBox="0 0 14513.4 14513.4" enable-background="new 0 0 14513.4 14513.4"
	 xml:space="preserve">
<path fill="#010202" d="M12427.1,10215.4c-30.2,120.9-30.2,332.6-151.2,544.3c-151.2,514-423.3,876.9-846.6,1239.7
	c-755.9,695.4-1511.8,1088.5-2056.1,1904.9v30.2l-151.2-120.9c-272.1-241.9-544.3-514-876.9-816.4
	c-907.1-876.9-1693.2-1542-1935.1-2872.4c-30.2-90.7-90.7-332.6-90.7-635c30.2-332.6,181.4-604.7,272.1-695.4
	c302.4-302.4,604.7-332.6,1058.3-272.1c907.1,211.7,1632.8,816.4,1814.2,1753.7c-30.2-151.2,120.9-272.1,90.7-362.8
	c0-90.7,0-151.2-30.2-211.7v-30.2c0-120.9,30.2-181.4,60.5-241.9c90.7-151.2,181.4-272.1,272.1-393.1
	c241.9-241.9,544.3-423.3,876.9-483.8c665.2-211.7,1239.7-90.7,1542,635c120.9,211.7,151.2,423.3,151.2,604.7
	C12427.1,9913,12427.1,10094.4,12427.1,10215.4z M12487.6,8885c-362.8-816.4-1360.6-907.1-2086.3-574.5
	c-604.7,272.1-816.4,725.7-967.6,1149c-272.1-695.4-1088.5-1149-1904.9-1269.9c-393.1-60.5-846.6-30.2-1179.2,241.9
	c-302.4,241.9-362.8,695.4-362.8,1088.5c0,1239.7,604.7,2116.5,1269.9,2872.4c423.3,483.8,1088.5,1088.5,1511.8,1481.6
	c181.4,120.9,514,423.3,604.7,544.3c60.5,30.2,90.7,90.7,90.7,60.5c0-60.5,30.2-120.9,60.5-181.4
	c665.2-1028,1723.5-1511.8,2479.4-2418.9c453.5-483.8,695.4-1149,725.7-1783.9C12729.5,9701.3,12699.2,9278,12487.6,8885z
	 M14211,2081.8c-30.2,151.2-30.2,332.6-151.2,574.5c-151.2,514-423.3,876.9-846.6,1209.4c-755.9,725.7-1511.8,1118.7-2056.1,1935.1
	v30.2l-151.2-151.2c-272.1-211.7-544.3-483.8-876.9-786.1C9222,4016.9,8435.9,3321.5,8194,2021.3c-30.2-90.7-90.7-332.6-90.7-635
	c30.2-332.6,181.4-604.7,272.1-725.7c302.4-302.4,604.7-332.6,1058.3-241.9c907.1,181.4,1632.8,786.1,1814.2,1723.5
	c-30.2-120.9,120.9-241.9,90.7-362.8c0-60.5,0-120.9-30.2-181.4v-60.5c0-90.7,30.2-151.2,60.5-211.7
	c90.7-151.2,181.4-272.1,272.1-423.3c241.9-241.9,544.3-393.1,876.8-453.5c665.2-211.7,1239.7-120.9,1542,635
	c120.9,181.4,151.2,393.1,151.2,604.7C14211,1779.5,14211,1991.1,14211,2081.8z M14271.5,781.7
	c-362.8-816.4-1360.6-907.1-2086.3-574.5c-604.7,272.1-816.4,695.4-967.6,1149C10945.5,630.5,10129.1,207.2,9312.8,56
	c-393.1-60.5-846.6-30.2-1179.2,241.9c-302.4,272.1-362.8,725.7-362.8,1118.7c0,1239.7,604.7,2116.5,1269.9,2872.4
	c423.3,453.5,1088.5,1058.3,1511.8,1481.6c181.4,120.9,514,423.3,604.7,514c60.5,60.5,90.7,120.9,90.7,90.7
	c0-90.7,30.2-151.2,60.5-181.4c665.2-1028,1723.5-1511.8,2479.4-2418.9c453.5-514,695.4-1149,725.7-1783.9
	C14513.4,1598,14483.2,1174.7,14271.5,781.7z M6410.1,4954.3c-30.2,120.9-30.2,332.6-120.9,574.5
	c-181.4,483.8-423.3,876.9-846.6,1209.4c-755.9,695.4-1511.8,1118.7-2056.1,1904.9v30.2l-151.2-120.9
	c-272.1-241.9-544.3-514-876.9-816.4c-907.1-876.9-1693.2-1542-1935.1-2842.2c-30.2-120.9-90.7-362.8-90.7-665.2
	c30.2-332.6,151.2-604.7,272.1-695.4c302.4-302.4,604.7-332.6,1028-272.1c907.1,211.7,1663,816.4,1814.2,1753.7
	c-30.2-120.9,151.2-272.1,120.9-362.8c0-60.5,0-151.2-30.2-211.7V4410c0-90.7,30.2-181.4,60.5-241.9
	c90.7-120.9,181.4-272.1,272.1-393.1c241.9-241.9,544.3-393.1,876.9-483.8c665.2-181.4,1239.7-90.7,1542,635
	c90.7,211.7,120.9,423.3,120.9,604.7C6410.1,4651.9,6410.1,4863.6,6410.1,4954.3z M6500.8,3623.9
	c-393.1-786.1-1360.6-907.1-2086.3-574.5c-604.7,272.1-816.4,725.7-997.8,1149c-272.1-695.4-1058.3-1149-1874.6-1269.9
	c-393.1-60.5-846.6-30.2-1179.2,241.9C60.5,3442.5,0,3865.8,0,4289.1c0,1239.7,604.7,2116.5,1269.9,2842.2
	c393.1,483.8,1088.5,1088.5,1511.8,1481.6c181.4,151.2,514,453.5,604.7,544.3c30.2,30.2,60.5,90.7,60.5,60.5
	c0-60.5,60.5-120.9,90.7-151.2C4202.8,8008.1,5230.9,7554.6,6017,6647.5c453.5-514,665.2-1149,695.4-1783.9
	C6712.4,4440.2,6682.2,4047.2,6500.8,3623.9z"/>
</svg>
