<?xml version="1.0" encoding="utf-8"?>
<!-- Generator: Adobe Illustrator 17.1.0, SVG Export Plug-In . SVG Version: 6.00 Build 0)  -->
<!DOCTYPE svg PUBLIC "-//W3C//DTD SVG 1.1//EN" "http://www.w3.org/Graphics/SVG/1.1/DTD/svg11.dtd">
<svg version="1.1" id="Canvas" xmlns="http://www.w3.org/2000/svg" xmlns:xlink="http://www.w3.org/1999/xlink" x="0px" y="0px"
	 width="14513.4px" height="14513.4px" viewBox="0 0 14513.4 14513.4" enable-background="new 0 0 14513.4 14513.4"
	 xml:space="preserve">
<path fill="#010202" d="M13835,4851.7c-24.2,339.2-48.5,751.1-242.3,1259.9c-387.7,1066.1-993.4,1914.1-1817.2,2640.9
	c-1696,1502.2-3319.3,2374.4-4458.1,4143.1v24.2l-339.2-290.7c-581.5-508.8-1211.4-1090.3-1889.8-1744.5
	C3101.6,9019.1,1454.1,7541.1,896.8,4754.8c-48.5-266.5-193.8-775.3-169.6-1429.5c24.2-726.9,315-1284.1,557.3-1526.4
	c629.9-629.9,1308.4-726.9,2229.1-533C5476,1677.8,7099.4,2986.1,7462.8,4997.1c-48.5-242.3,290.7-533,242.3-775.3
	c-24.2-169.6-48.5-290.7-96.9-436.1c0,0,0-48.5,0-72.7c24.2-218.1,96.9-339.2,169.6-484.6c169.6-339.2,339.2-605.7,581.5-872.2
	c484.6-533,1163-872.2,1841.4-1066.1c1453.7-411.9,2713.6-218.1,3392,1429.5c169.6,387.7,242.3,872.2,266.5,1308.4
	C13859.2,4221.8,13859.2,4657.9,13835,4851.7z M14028.8,2065.4c-848-1768.7-2955.9-2011-4555-1284.1
	c-1284.1,605.7-1696,1526.4-2083.7,2495.6c-557.3-1550.6-2326-2495.6-4094.7-2786.3c-848-121.1-1792.9-24.2-2495.6,557.3
	S0.3,2574.2,0.3,3446.5c-24.2,2640.9,1284.1,4555,2762.1,6178.3c872.2,969.2,2326,2326,3270.9,3198.2
	c315,266.5,1041.8,896.5,1284.1,1163c48.5,48.5,145.4,193.8,169.6,96.9c0-96.9,48.5-290.7,96.9-363.4
	c1502.2-2253.3,3707-3270.9,5427.3-5233.4c920.7-1066.1,1453.7-2422.9,1502.2-3803.9C14513.4,3785.7,14440.7,2913.4,14028.8,2065.4z
	"/>
</svg>
