<?xml version="1.0" encoding="utf-8"?>
<!-- Generator: Adobe Illustrator 17.1.0, SVG Export Plug-In . SVG Version: 6.00 Build 0)  -->
<!DOCTYPE svg PUBLIC "-//W3C//DTD SVG 1.1//EN" "http://www.w3.org/Graphics/SVG/1.1/DTD/svg11.dtd">
<svg version="1.1" id="Canvas" xmlns="http://www.w3.org/2000/svg" xmlns:xlink="http://www.w3.org/1999/xlink" x="0px" y="0px"
	 width="14513.4px" height="14513.4px" viewBox="0 0 14513.4 14513.4" enable-background="new 0 0 14513.4 14513.4"
	 xml:space="preserve">
<path fill="#010202" d="M4668.5,3241.3c-1136.9,0-2056.1,919.2-2056.1,2007.7c0,604.7,217.7,1064.3,677.3,1475.5l3967,3604.2
	l3821.9-3459c508-483.8,822.4-1088.5,822.4-1620.7c0-1088.5-919.2-2007.7-2056.1-2007.7c-604.7,0-1185.3,266.1-1572.3,749.9
	L7256.7,5176.4L6240.8,3991.2C5853.7,3507.4,5273.2,3241.3,4668.5,3241.3z M7256.7,13811.9l-5757-5224.8C508,7716.3,0,6555.2,0,5249
	C0,2733.4,2104.4,701.5,4668.5,701.5c943.4,0,1838.4,266.1,2588.2,749.9c749.9-483.8,1644.9-749.9,2588.2-749.9
	c2564,0,4668.5,2031.9,4668.5,4547.5c0,1257.8-604.7,2539.8-1669,3483.2L7256.7,13811.9z"/>
</svg>
