<?xml version="1.0" encoding="utf-8"?>
<!-- Generator: Adobe Illustrator 17.1.0, SVG Export Plug-In . SVG Version: 6.00 Build 0)  -->
<!DOCTYPE svg PUBLIC "-//W3C//DTD SVG 1.1//EN" "http://www.w3.org/Graphics/SVG/1.1/DTD/svg11.dtd">
<svg version="1.1" id="Canvas" xmlns="http://www.w3.org/2000/svg" xmlns:xlink="http://www.w3.org/1999/xlink" x="0px" y="0px"
	 width="14513.4px" height="14513.4px" viewBox="0 0 14513.4 14513.4" enable-background="new 0 0 14513.4 14513.4"
	 xml:space="preserve">
<path fill="#010202" d="M9566.7,10256.7h-4620c-380,0-690-310-690-690v-4610c0-390,310-700,690-700h4620c380,0,690,310,690,700v4610
	C10256.7,9946.7,9946.7,10256.7,9566.7,10256.7z M7256.7,6106.7c-640,0-1150,520-1150,1150c0,640,510,1160,1150,1160
	s1150-520,1150-1160C8406.7,6626.7,7896.7,6106.7,7256.7,6106.7z M9566.7,5186.7c0-130-110-230-230-230h-700c-120,0-230,100-230,230
	v690c0,130,110,230,230,230h700c120,0,230-100,230-230V5186.7z M9566.7,6796.7h-520c30,150,60,300,60,460c0,1020-830,1850-1850,1850
	s-1850-830-1850-1850c0-160,30-310,60-460h-520v2540c0,130,110,230,230,230h4160c120,0,230-100,230-230V6796.7z"/>
</svg>
