<?xml version="1.0" encoding="utf-8"?>
<!-- Generator: Adobe Illustrator 17.1.0, SVG Export Plug-In . SVG Version: 6.00 Build 0)  -->
<!DOCTYPE svg PUBLIC "-//W3C//DTD SVG 1.1//EN" "http://www.w3.org/Graphics/SVG/1.1/DTD/svg11.dtd">
<svg version="1.1" id="Canvas" xmlns="http://www.w3.org/2000/svg" xmlns:xlink="http://www.w3.org/1999/xlink" x="0px" y="0px"
	 width="14513.4px" height="14513.4px" viewBox="0 0 14513.4 14513.4" enable-background="new 0 0 14513.4 14513.4"
	 xml:space="preserve">
<path fill="#010202" d="M6434.3,5502.2c-155.4,9-237.5-100.5-228.4-219.4c9-155.4,100.5-246.9,283.4-255.9
	c128-9,228.4,91.4,219.4,219.4C6708.6,5392.3,6580.6,5520.2,6434.3,5502.2z M13471.5,5154.8c-137-91.4-137-246.9-54.9-374.8
	c54.9-100.5,210.4-137,319.9-82.4c73,36.5,109.5,155.4,82.4,255.9c-45.6,164.5-146.4,283.4-283.4,383.9
	c-45.6,36.5-91.4,64-146.4,82.4c-36.5,27.5-82.4,36.5-118.9-18.4c-18.4-36.5-9-100.5,36.5-128
	C13361.7,5236.9,13407.6,5191.3,13471.5,5154.8z M12721.9,8545.3h-1736.5c-237.5,0-465.9,9-694.7,9c-146.4,0-283.4,9-420.4,18.4
	c-191.9,0-383.9,9-584.9,18.4l-438.8,27.5c-173.5,9-356.4,18.4-539.3,36.5c-182.9,9-365.4,27.5-548.3,45.6
	c-201,27.5-402,45.6-603.3,73c-219.4,27.5-438.8,54.9-657.9,91.4c-292.4,45.6-584.9,100.5-877.3,155.4
	c-292.4,64-584.9,128-877.3,201c-201,45.6-402,118.9-612.3,173.5c-210.4,64-429.4,128-648.8,173.5c-109.5,18.4-237.5,9-356.4-9
	c-146.4-18.4-292.4-54.9-429.4-82.4c-45.6-9-91.4-27.5-128-36.5c-54.9-27.5-91.4-64-100.5-128c-9-54.9,27.5-91.4,82.4-100.5
	c100.5-36.5,210.4-73,319.9-100.5c292.4-73,575.8-146.4,868.2-210.4c292.4-54.9,584.9-109.5,877.3-164.5l648.8-100.5
	c164.5-27.5,338-45.6,502.8-64l456.9-64c137-18.4,274.3-27.5,420.4-36.5c210.4-18.4,420.4-45.6,630.7-64
	c146.4-9,292.4-18.4,438.8-18.4c219.4-18.4,438.8-36.5,657.9-36.5l895.7-27.5c493.4-9,977.8-9,1471.5-18.4l356.4,9
	c201,0,411.3,0,612.3,9c137,0,274.3,9,420.4,9l740.3,27.5c64,0,118.9,9,182.9,9c54.9,9,118.9,54.9,109.5,91.4
	c0,45.6-54.9,91.4-109.5,91.4c-109.5,0-219.4,0-328.9,0v-8.4H12721.9z M4698.1,10912.2c0-228.4,0-456.9,0-694.7h191.9
	c0,228.4,0,465.9,0,694.7H4698.1z M12356.4,10912.2v-493.4c-36.5,0-73,0-118.9,0v-100.5c0,9,9,9,9,9c45.6-27.5,82.4-73,128-91.4
	c36.5-27.5,91.4-18.4,155.4-27.5c0,237.5,0,475.3,0,703.8H12356.4z M9340.8,10912.2v-493.4c-45.6,0-82.4,0-118.9,0v-91.4
	c0,0,0,0,9,9c36.5-36.5,82.4-82.4,128-118.9c9-9,27.5,0,45.6,0l109.5-9c0,237.5,0,475.3,0,703.8H9340.8z M6772.6,10912.2
	c-100.5-45.6-182.9-118.9-191.9-228.4c-27.5-164.5-27.5-328.9,118.9-420.4c173.5-118.9,365.4-64,456.9,137
	c-54.9,18.4-109.5,36.5-164.5,54.9l-9-9c-27.5-54.9-64-91.4-128-82.4c-64,9-91.4,54.9-100.5,109.5c-9,64,0,128,9,182.9
	c0,64,36.5,100.5,100.5,109.5c64,9,100.5-27.5,128-73l9-27.5c54.9,27.5,100.5,54.9,155.4,82.4c-36.5,82.4-109.5,128-182.9,164.5
	L6772.6,10912.2L6772.6,10912.2z M7668.3,10912.2c0-228.4,0-465.9,0-694.7h520.9c0,45.6,0,91.4,0,137h-347.4c0,45.6,0,82.4,0,128
	h201c0,45.6,0,82.4,0,128h-201c0,54.9,0,100.5,0,155.4h356.4c0,45.6,0,100.5,0,146.4L7668.3,10912.2L7668.3,10912.2z
	 M3747.5,10912.2c-54.9-27.5-109.5-45.6-164.5-73c27.5-45.6,54.9-91.4,82.4-137c100.5,36.5,201,109.5,310.8,27.5
	c-18.4-64-64-73-109.5-91.4c-45.6-9-91.4-18.4-137-36.5c-82.4-18.4-118.9-82.4-128-155.4c-18.4-82.4,27.5-164.5,100.5-201
	c146.4-64,292.4-45.6,438.8,36.5l-82.4,128c-73-18.4-146.4-36.5-210.4-45.6c-18.4-9-45.6,27.5-64,36.5c9,18.4,27.5,45.6,45.6,54.9
	l210.4,73c82.4,27.5,109.5,91.4,109.5,173.5c-9,91.4-36.5,155.4-118.9,191.9c-18.4,0-27.5,9-36.5,18.4h-246.9V10912.2z
	 M11287.2,10912.2c-45.6-27.5-100.5-45.6-146.4-64v-18.4c45.6-118.9,45.6-109.5,164.5-82.4c54.9,18.4,118.9,18.4,173.5,18.4
	s82.4-45.6,82.4-100.5c-9-64-54.9-82.4-100.5-82.4c-27.5,0-64,0-82.4,9c-54.9,27.5-91.4,9-137,0c-73-9-82.4-45.6-73-109.5
	c9-82.4,18.4-173.5,18.4-265c173.5,0,328.9,0,493.4,0v137c-118.9,0-237.5,0-347.4,0v109.5c54.9-9,109.5-18.4,164.5-18.4
	c173.5,9,210.4,73,228.4,210.4c9,100.5-36.5,219.4-182.9,246.9c0,0-9,0-9,9h-246.5V10912.2z M10364.1,10327.3
	c-54.9,0-100.5,18.4-109.5,73c0,18.4,18.4,54.9,36.5,73c18.4,9,45.6,18.4,73,18.4c36.5-9,91.4-9,109.5-64
	c18.4-45.6-18.4-64-36.5-82.4C10419,10336.4,10391.5,10336.4,10364.1,10327.3z M10373.5,10601.7c-36.5,0-64,9-100.5,18.4
	c-45.6,9-64,54.9-45.6,91.4c18.4,54.9,64,73,118.9,82.4c82.4,0,137-27.5,155.4-73c0-9,0-18.4,0-27.5
	C10510.5,10638.2,10464.6,10601.7,10373.5,10601.7z M10245.5,10912.2c-54.9-36.5-118.9-54.9-155.4-100.5
	c-73-100.5-54.9-173.5,64-274.3c-118.9-82.4-82.4-255.9,45.6-301.5c109.5-36.5,219.4-36.5,328.9,0c128,45.6,173.5,219.4,36.5,301.5
	c27.5,18.4,64,36.5,82.4,64c64,91.4,27.5,210.4-64,265c-36.5,18.4-64,27.5-91.4,45.6h-246.5V10912.2z M5474.9,10912.2v-694.7
	c45.6,0,91.4-9,128,0c18.4,0,45.6,18.4,54.9,36.5c73,100.5,155.4,210.4,228.4,319.9c9,9,18.4,18.4,27.5,18.4
	c0-118.9,0-246.9,0-374.8h164.5c0,228.4,0,465.9,0,694.7h-146.4c-100.5-137-191.9-274-283.4-411.3c0,137,0,274.3,0,411.3H5474.9z
	 M14056.4,6013.6c-9,0-9-9-18.4-9c-228.4,301.5-502.8,557.4-785.8,804.3c164.5-18.4,255.9,45.6,274.3,155.4c9,54.9,9,128-18.4,182.9
	s-91.4,91.4-146.4,137c9,9,18.4,36.5,45.6,54.9c173.5,137,392.9,91.4,529.9-82.4c137-164.5,182.9-365.4,182.9-575.8
	C14120.4,6461.5,14074.5,6233,14056.4,6013.6z M14513.3,6973.3c-18.4,73-36.5,146.4-64,210.4c-109.5,237.5-301.5,374.8-548.3,438.8
	c-228.4,54.9-438.8,36.5-630.7-100.5c-182.9-118.9-274.3-374.8-182.9-566.8c0,0,0-9,0-18.4c-36.5,27.5-82.4,45.6-118.9,64
	c-64,27.5-137,9-164.5-27.5c-36.5-45.6-27.5-109.5,27.5-164.5c137-118.9,283.4-228.4,420.4-356.4c137-128,283.4-265,411.3-402
	c118.9-128,228.4-274.3,328.9-411.3c36.5-64,64-137,91.4-210.4c45.6-82.4,100.5-137,201-137c91.4,9,155.4,82.4,146.4,173.5
	c-18.4,73-45.6,155.4-100.5,219.4c-73,73-73,164.5-36.5,255.9c45.6,118.9,91.4,246.9,137,374.8c27.5,100.5,45.6,201,73,301.5
	c0,9,9,9,9,9v347.4H14513.3z M3784,5940.6c-64-128-228.4-128-310.8-118.9c-18.4,9-45.6,36.5-45.6,54.9c0,18.4,18.4,45.6,27.5,54.9
	c27.5,9,64,18.4,100.5,18.4C3628.6,5949.7,3701.9,5940.6,3784,5940.6z M6864,7275.1c9,0,18.4-9,27.5-9l36.5-18.4
	c228.4-146.4,420.4-319.9,593.9-511.8c100.5-109.5,182.9-237.5,210.4-383.9c18.4-118.9-54.9-219.4-173.5-210.4
	c-100.5,0-182.9,54.9-246.9,118.9c-155.4,137-274.3,301.5-347.4,484.4C6891.5,6909.3,6845.6,7083.2,6864,7275.1z M11223.3,6543.9
	c9,0,18.4,9,27.5,9c9-9,18.4-18.4,27.5-27.5c109.5-109.5,228.4-228.4,338-347.4c109.5-128,228.4-246.9,338-374.8
	c191.9-265,383.9-520.9,566.8-795.2c91.4-146.4,146.4-310.8,219.4-465.9c18.4-54.9,9-91.4-27.5-137c-36.5-36.5-73-27.5-109.5-9
	c-91.4,54.9-191.9,109.5-274,182.9c-173.5,155.4-328.9,338-456.9,529.9c-201,274.3-365.4,566.8-484.4,886.3
	C11323.8,6178.4,11278.2,6361,11223.3,6543.9z M7275.4,3601.2c82.4,36.5,164.5,64,237.5,109.5c100.5,54.9,146.4,164.5,155.4,274.3
	c18.4,246.9-100.5,429.4-301.5,575.8c-155.4,109.5-328.9,146.4-520.9,137c-27.5,0-73-27.5-73-45.6c-9-27.5,9-73,36.5-91.4
	c100.5-54.9,210.4-91.4,310.8-146.4c109.5-54.9,191.9-128,246.9-246.9c64-146.4-27.5-255.9-155.4-265c-201-9-383.9,64-539.3,182.9
	c-146.4,100.5-283.4,210.4-402,328.9c-265,246.9-520.9,511.8-785.8,758.7c-319.9,301.5-657.9,557.4-1051.1,740.3
	c-64,36.5-128,54.9-191.9,82.4c128,164.5,182.9,347.4,201,548.3c18.4,182.9,9,365.4-18.4,557.4c-18.4,118.9-36.5,237.5-36.5,356.4
	c0,64,9,137,36.5,201c36.5,82.4,128,118.9,219.4,100.5c128-27.5,219.4-109.5,292.4-210.4c118.9-155.4,237.5-310.8,338-475.3
	c109.5-201,210.4-411.3,310.8-612.3c64-128,137-246.9,191.9-374.8c45.6-100.5,128-128,219.4-128h265c73,0,109.5,45.6,73,109.5
	L6087.2,6507c-109.5,201-210.4,402-310.8,603.3c-54.9,109.5-91.4,219.4-91.4,338c-9,210.4,137,319.9,338,255.9
	c146.4-45.6,283.4-118.9,429.4-173.5c9-9,18.4-45.6,18.4-54.9c-91.4-328.9-36.5-630.7,128-913.8c128-228.4,301.5-411.3,520.9-548.3
	c237.5-146.4,484.4-210.4,758.7-155.4c182.9,45.6,237.5,146.4,255.9,338c18.4,155.4-54.9,292.4-128,420.4
	c-155.4,265-392.9,447.8-639.8,612.3c-137,91.4-274.3,173.5-411.3,255.9c45.6,118.9,228.4,164.5,328.9,146.4
	c210.4-45.6,383.9-164.5,548.3-292.4c146.4-109.5,283.4-237.5,420.4-365.4c164.5-155.4,283.4-338,392.9-539.3
	c118.9-210.4,246.9-429.4,374.8-639.8c109.5-201,228.4-402,347.4-603.3l383.9-657.9c36.5-64,64-128,100.5-182.9
	c36.5-64,91.4-91.4,164.5-91.4c73,9,155.4,9,237.5,0c91.4,0,128,64,91.4,146.4c-64,118.9-128,228.4-191.9,338
	c-146.4,237.5-283.4,475.3-429.4,712.8l-310.8,529.9c-9,9-18.4,36.5-27.5,64c73-45.6,146.4-91.4,210.4-128
	c155.4-73,310.8-118.9,484.4-109.5c164.5,9,310.8,109.5,310.8,319.9c9,191.9-82.4,356.4-182.9,511.8
	c-91.4,155.4-191.9,301.5-274.3,456.9c-36.5,73-54.9,155.4-64,237.5c-9,100.5,82.4,173.5,182.9,128
	c109.5-45.6,219.4-100.5,319.9-173.5c128-91.4,246.9-191.9,374.8-292.4c18.4-18.4,27.5-45.6,27.5-82.4c0-155.4,9-310.8,27.5-465.9
	c36.5-237.5,100.5-465.9,210.4-676.3c82.4-182.9,164.5-356.4,265-529.9c146.4-246.9,319.9-475.3,529.9-676.3
	c210.4-191.9,429.4-374.8,712.8-456.9c118.9-36.5,237.5-45.6,356.4-18.4c118.9,27.1,191.9,128,201,246.9
	c9,201-36.5,374.8-118.9,548.3c-128,292.4-310.8,548.3-520.9,785.8c-128,155.4-255.9,301.5-392.9,447.8
	c-155.4,164.5-319.9,338-484.4,502.8c-82.4,73-173.5,155.4-255.9,228.4c-54.9,45.6-73,82.4-54.9,155.4
	c36.5,118.9,73,228.4,173.5,310.8c137,100.5,274,100.5,420.4,54.9c137-45.6,255.9-128,365.4-219.4c64-64,137-118.9,210.4-164.5
	c45.6-27.5,100.5-36.5,137,18.4c45.6,45.6,45.6,128-9,173.5c-64,73-137,155.4-210.4,219.4c-146.4,128-310.8,219.4-511.8,265
	c-201,36.5-402,45.6-593.9-27.5c-155.4-64-255.9-173.5-328.9-301.5l-54.9-100.5c-54.9,54.9-118.9,100.5-182.9,155.4
	c-164.5,128-338,265-548.3,338c-182.9,64-374.8,64-539.3-54.9c-100.5-73-137-173.5-155.4-292.4c-18.4-201,54.9-392.9,164.5-566.8
	c91.4-137,182.9-274.3,265-411.3c18.4-45.6,36.5-109.5,36.5-164.5c-9-64-82.4-109.5-210.4-73c-137,45.6-246.9,128-356.4,219.4
	c-274.3,219.4-447.8,511.8-621.4,804.3c-100.5,182.9-201,356.4-301.5,539.3c-27.5,54.9-82.4,91.4-155.4,100.5c-73,9-146.4,9-228.4,9
	c-82.4,0-128-64-91.4-137c45.6-82.4,82.4-164.5,118.9-255.9l-109.5,91.4c-201,164.5-411.3,301.5-667.3,356.4
	c-191.9,45.6-383.9,45.6-548.3-82.4c-45.6-27.5-91.4-73-137-109.5l-255.9,128c-173.5,82.4-347.4,137-529.9,173.5
	c-255.9,36.5-539.3-173.5-557.4-429.4c-73,82.4-146.4,173.5-237.5,255.9c-137,137-310.8,219.4-511.8,246.9
	c-164.5,27.5-310.8-9-438.8-128c-82.4-64-128-164.5-155.4-265c-82.4-237.5-73-475.3-64-721.9c18.4-237.5,45.6-475.3,64-712.8
	c0-18.4,0-36.5,0-54.9c-18.4-91.4-18.4-91.4-128-82.4c-137,18.4-283.4,27.5-429.4-27.5l-182.9,328.9
	c-173.5,328.9-365.4,648.8-603.3,932.2c-91.4,109.5-182.9,219.4-283.4,319.9c-246.9,237.5-520.9,420.4-849.8,520.9
	c-210.4,64-438.8,100.5-657.9,82.4c-219.4-18.4-420.4-82.4-575.8-246.9c-82.4-82.4-137-182.9-164.5-301.5c-9-9-9-18.4-18.4-27.5
	v-292.4c9,0,9-9,18.4-9c36.5-173.5,137-283.4,301.5-310.8c100.5-27.5,191.9-18.4,255.9,54.9c73,82.4,82.4,173.5,54.9,265
	c-36.5,100.5-118.9,164.5-237.5,173.5c-64,0-91.4,27.5-82.4,73c27.5,118.9,82.4,219.4,201,274.3c173.5,100.5,365.4,100.5,548.3,64
	c347.4-64,612.3-265,813.3-539.3c210.4-274.3,374.8-575.8,548.3-877.3c100.5-182.9,191.9-365.4,292.4-539.3
	c173.5-292.4,356.4-575.8,539.3-859.2c146.4-210.4,301.5-411.3,456.9-612.3c27.5-36.5,64-73,100.5-128h-82.4
	c-182.9,0-365.4,18.4-539.3,0c-228.4-36.5-447.8-100.5-676.3-155.4c-201-54.9-411.3-118.9-621.4-100.5c-91.4,9-191.9,36.5-274.3,73
	c-118.9,45.6-173.5,146.4-155.4,265c9,100.5,82.4,155.4,173.5,191.9c118.9,45.6,228.4,54.9,356.4,64c54.9,0,118.9,9,182.9,27.5
	c45.6,9,54.9,54.9,18.4,91.4c-45.6,27.5-91.4,64-137,82.4c-182.9,64-365.4,54.9-548.3-18.4c-283.4-128-365.4-356.4-319.9-612.3
	c36.5-246.9,219.4-402,447.8-484.4c191.9-64,383.9-100.5,593.9-73c100.5,18.4,201,18.4,292.4,45.6c191.9,64,383.9,128,575.8,201
	c182.9,73,365.4,128,566.8,146.4c219.4,18.4,420.4-36.5,575.8-210.4c100.5-109.5,228.4-137,365.4-118.9c91.4,9,182.9,82.4,128,210.4
	c-27.5,45.6-64,100.5-100.5,128c-91.4,54.9-182.9,91.4-265,137c-54.9,27.5-128,45.6-164.5,91.4c-100.5,146.4-201,292.4-283.4,447.8
	c-118.9,210.4-210.4,429.4-310.8,639.8l-64,146.4c191.9,0,356.4,54.9,502.8,164.5c18.4,9,54.9,18.4,73,9
	c219.4-100.5,411.3-255.9,593.9-420.4c137-118.9,274.3-255.9,402-392.9c164.5-173.5,328.9-356.4,502.8-520.9
	c173.5-173.5,356.4-347.4,548.3-502.8c191.9-164.5,420.4-292.4,667.3-356.4c45.6-9,82.4-18.4,118.9-27.5h320.9V3601.2z"/>
</svg>
