<?xml version="1.0" encoding="utf-8"?>
<!-- Generator: Adobe Illustrator 17.1.0, SVG Export Plug-In . SVG Version: 6.00 Build 0)  -->
<!DOCTYPE svg PUBLIC "-//W3C//DTD SVG 1.1//EN" "http://www.w3.org/Graphics/SVG/1.1/DTD/svg11.dtd">
<svg version="1.1" id="Canvas" xmlns="http://www.w3.org/2000/svg" xmlns:xlink="http://www.w3.org/1999/xlink" x="0px" y="0px"
	 width="14513.4px" height="14513.4px" viewBox="0 0 14513.4 14513.4" enable-background="new 0 0 14513.4 14513.4"
	 xml:space="preserve">
<path fill="#010202" d="M9296.1,5781.6c0,297-257.4,554.4-554.4,554.4H5751.9c-316.8,0-554.4-257.4-554.4-554.4c0,0,0,1326.6,0-1287
	S7276.5,1980,7296.3,1980c0,0,0,0,19.8,0c1089,0,1980,1267.2,1980,2514.6C9296.1,5761.8,9296.1,5781.6,9296.1,5781.6z M11810.7,6336
	c-297,0-554.4-257.4-554.4-554.4c0,0,0,1465.2,0-1287C11256.3,1762.2,9177.3,0,7316.1,0S3217.5,1128.6,3217.5,4494.6v1287
	c0,297-257.4,554.4-554.4,554.4h-297c-297,0-554.4,237.6-554.4,554.4V13959c0,297,257.4,554.4,554.4,554.4h9781.2
	c297,0,554.4-257.4,554.4-554.4V6890.4c0-316.8-257.4-554.4-554.4-554.4H11810.7z"/>
</svg>
