<?xml version="1.0" encoding="utf-8"?>
<!-- Generator: Adobe Illustrator 17.1.0, SVG Export Plug-In . SVG Version: 6.00 Build 0)  -->
<!DOCTYPE svg PUBLIC "-//W3C//DTD SVG 1.1//EN" "http://www.w3.org/Graphics/SVG/1.1/DTD/svg11.dtd">
<svg version="1.1" id="Canvas" xmlns="http://www.w3.org/2000/svg" xmlns:xlink="http://www.w3.org/1999/xlink" x="0px" y="0px"
	 width="14513.4px" height="14513.4px" viewBox="0 0 14513.4 14513.4" enable-background="new 0 0 14513.4 14513.4"
	 xml:space="preserve">
<path fill="#010202" d="M8627.8,6229.7c53.9-60.7,114.5-117.9,165.1-185.3c47.2-70.7,107.7-91,192.1-84.2c124.6,3.4,252.7,0,373.9,0
	h37c3.4,0,3.4,3.4,3.4,6.8c-256,91-512.1,182-768.1,272.9C8631.2,6236.4,8627.8,6233,8627.8,6229.7z M1354.3,7038.2l67.3-171.8
	c70.7-178.6,141.5-360.5,215.6-539c3.4-10.1,13.5-30.3,23.5-30.3c97.7,0,198.7,0,306.6,0l-114.5,219
	c-91,165.1-175.2,330.1-262.8,495.2c-13.5,20.3-23.5,30.3-50.6,26.9C1478.9,7038.2,1421.7,7038.2,1354.3,7038.2z M0,8389.2
	c0-697.4,0-1391.4,0-2088.7h293.1c0,619.9,0,1239.8,0,1863.1h1600.3c0,77.5,0,151.5,0,225.7H0V8389.2z M12623.4,8385.8
	c0-694,0-1388,0-2085.4h293.1c0,619.9,0,1236.4,0,1863.1h1596.9c0,74.1,0,148.3,0,222.4H12623.4z M9382.6,7196.5
	c0,84.2,0,154.9,0,232.5H8220.3c0,245.9,0,485.2,0,731.1h1546.3c0,77.5,0,154.9,0,229.1H7900.2c0-694,0-1391.4,0-2088.7h1866.4
	c0,74.1,0,144.9,0,225.8H8220.3c0,225.8,0,444.7,0,670.4h1162.3V7196.5z M11693.6,7583.9l-505.3-993.9
	c-171.8,336.9-333.5,663.7-498.6,993.9H11693.6z M12461.7,8392.6h-171.8c-50.6,0-101.1-3.4-154.9,0c-26.9,0-37-6.8-50.6-33.7
	c-77.5-154.9-158.3-313.3-235.9-471.6c-16.9-26.9-30.3-40.4-64.1-40.4c-397.6,3.4-795.1,3.4-1196,0c-26.9,0-43.8,13.5-53.9,37
	l-242.5,478.4c-3.4,10.1-16.9,26.9-30.3,26.9c-111.1,3.4-225.8,3.4-343.6,3.4l101.1-198.7c195.3-387.4,394.2-778.2,592.9-1165.7
	l353.8-700.8c10.1-20.3,23.5-30.3,50.6-30.3c114.5,0,229.1,0,347,0c23.5,0,37,10.1,47.2,26.9c320.1,630,636.7,1256.6,956.8,1883.2
	L12461.7,8392.6z M5653,7263.9c13.5,0,23.5,3.4,33.7,3.4c316.7,0,640.1,0,960.2-3.4c53.9,0,111.1-6.8,165.1-16.9
	c134.8-30.3,229.1-114.5,262.8-249.3c33.7-134.8,6.8-256-97.7-350.4c-84.2-74.1-185.3-97.7-296.5-97.7c-326.7-3.4-657-3.4-987.1-3.4
	c-13.5,0-23.5,0-40.4,0L5653,7263.9L5653,7263.9z M5653,7516.6v872.6c-104.5,0-202.1,0-299.8,0V6300.4c3.4,0,13.5-3.4,23.5-3.4
	c451.5,0,909.6,0,1364.4,3.4c178.6,3.4,353.8,53.9,485.2,185.3c256,256,249.3,700.8-97.7,923.1c-74.1,47.2-154.9,77.5-245.9,117.9
	l633.3,859.1c-6.8,3.4-16.9,6.8-23.5,6.8c-107.7,0-215.6,0-323.4-3.4c-16.9,0-33.7-10.1-47.2-23.5
	c-195.3-272.9-390.8-545.7-592.9-822c-10.1-13.5-30.3-26.9-47.2-26.9c-266.2-3.4-532.3-3.4-798.4-3.4
	C5676.7,7513.2,5666.6,7516.6,5653,7516.6z M4622.1,7354.9c0-404.3-141.5-704.2-377.3-902.9c-340.3-279.7-815.3-326.7-1219.6-114.5
	c-471.6,242.5-687.3,808.5-495.2,1293.7c235.9,596.3,950.1,852.3,1519.4,545.7C4409.9,7981.5,4608.8,7678.3,4622.1,7354.9z
	 M3540.7,5940c357.1,6.8,683.9,101.1,960.2,330.1c303.2,252.7,458.1,576.1,468.3,970.2c16.9,579.5-340.3,1044.4-859.1,1226.2
	c-468.3,168.4-933.2,141.5-1367.8-107.7c-781.6-458.1-801.8-1462.1-259.4-2001.1c232.5-229.1,508.7-357.1,825.4-397.6
	C3389.2,5946.6,3463.2,5946.6,3540.7,5940z"/>
</svg>
