<?xml version="1.0" encoding="utf-8"?>
<!-- Generator: Adobe Illustrator 17.1.0, SVG Export Plug-In . SVG Version: 6.00 Build 0)  -->
<!DOCTYPE svg PUBLIC "-//W3C//DTD SVG 1.1//EN" "http://www.w3.org/Graphics/SVG/1.1/DTD/svg11.dtd">
<svg version="1.1" id="Canvas" xmlns="http://www.w3.org/2000/svg" xmlns:xlink="http://www.w3.org/1999/xlink" x="0px" y="0px"
	 width="14513.4px" height="14513.4px" viewBox="0 0 14513.4 14513.4" enable-background="new 0 0 14513.4 14513.4"
	 xml:space="preserve">
<path fill="#010202" d="M11071.6,9910.6H3400.3v373.2h7671.4V9910.6z M8355.6,11444.8H3400.3v373.2h4955.3V11444.8z M11071.6,9910.6
	H3400.3v373.2h7671.4V9910.6z M12605.9,14119.5H1866V1472.1h10739.9V14119.5z M12481.5,1057.4h-684.2V269.5
	c0-145.1-124.4-269.5-269.5-269.5s-269.5,124.4-269.5,269.5v787.9H9682.5V269.5C9682.5,124.4,9558.1,0,9413,0
	s-269.5,124.4-269.5,269.5v787.9H7567.7V269.5C7567.7,124.4,7443.3,0,7298.2,0c-145.1,0-269.5,124.4-269.5,269.5v787.9H5452.9V269.5
	C5452.9,124.4,5328.5,0,5183.4,0s-248.8,124.4-248.8,269.5v787.9H3338.1V269.5C3338.1,124.4,3213.7,0,3068.5,0
	c-145.1,0-248.8,124.4-248.8,269.5v787.9h-808.6c-290.3,0-518.3,352.5-518.3,663.5v12274.2c0,290.3,228.1,518.3,518.3,518.3h10470.4
	c290.3,0,539.1-228.1,539.1-518.3V1720.9C13020.6,1409.9,12771.8,1057.4,12481.5,1057.4z M3421,8749.5h7650.6v393.9H3421V8749.5z
	 M3421,7609.2h7650.6v393.9H3421V7609.2z M3421,6448.1h7650.6V6842H3421V6448.1z M3421,5307.8h7650.6v393.9H3421V5307.8z
	 M3421,4146.7h7650.6v393.9H3421V4146.7z"/>
</svg>
