<?xml version="1.0" encoding="utf-8"?>
<!-- Generator: Adobe Illustrator 17.1.0, SVG Export Plug-In . SVG Version: 6.00 Build 0)  -->
<!DOCTYPE svg PUBLIC "-//W3C//DTD SVG 1.1//EN" "http://www.w3.org/Graphics/SVG/1.1/DTD/svg11.dtd">
<svg version="1.1" id="Canvas" xmlns="http://www.w3.org/2000/svg" xmlns:xlink="http://www.w3.org/1999/xlink" x="0px" y="0px"
	 width="14513.4px" height="14513.4px" viewBox="0 0 14513.4 14513.4" enable-background="new 0 0 14513.4 14513.4"
	 xml:space="preserve">
<path fill="#010202" d="M14119,8464.1c144.9,0,290.3,105.8,290.3,250.7c-26.6,144.9-144.9,263.7-290.3,263.7
	c-158.4,0-277.3-118.8-250.7-263.7C13868.3,8556.9,13973.6,8464.1,14119,8464.1z M13881.4,6643.6h488.3
	c-26.6,541-26.6,1055.4-26.6,1623h-435.2C13881.4,7725.6,13881.4,7184.6,13881.4,6643.6z M14501.6,9638.8h-422.2
	c0,448.7,0,897.5,0,1332.7h-369.5c0-422.2,0-883.9,0-1332.7h-382.6c-39.6-92.3-26.6-171.5-26.6-263.7h1200.8
	C14528.1,9467.4,14501.6,9546.1,14501.6,9638.8z M12443.4,10324.7c0,224.1,0,461.8,0,646.8h-342.9c0-514.4,0-1055.4,0-1596.4h950.1
	c13,79.2,0,171.5,0,250.7h-607.2c0,144.9,0,290.3,0,422.2h554c0,118.8,0,198,0,277.3h-554V10324.7z M8906.7,10944.9v-277.3
	c92.3,0,158.4,39.6,250.7,39.6c92.3,13,211.1,13,303.3-26.6c144.9-52.6,144.9-184.5,26.6-263.7c-79.2-52.6-171.5-92.3-250.7-131.9
	c-79.2-39.6-131.9-66.2-171.5-105.8c-198-118.8-237.6-263.7-224.1-474.8c66.2-198,158.4-316.9,369.5-356.5
	c158.4-39.6,409.1-13,580.6,39.6c26.6,79.2,0,158.4-13,237.6c-66.2,13-92.3,0-158.4,0c-92.3,0-211.1-26.6-303.3,0
	c-66.2,13-105.8,52.6-118.8,118.8c-26.6,66.2,39.6,105.8,79.2,144.9c118.8,79.2,224.1,118.8,342.9,171.5
	c158.4,79.2,250.7,158.4,290.3,329.9c66.2,277.3-79.2,514.4-369.5,580.6C9329.4,11050.7,9118.3,11011.1,8906.7,10944.9z
	 M10780.9,10259c131.9,0,237.6,26.6,369.5-13c-52.6-158.4-131.9-329.9-171.5-501.4h-39.6
	C10899.2,9915.6,10846.6,10087.1,10780.9,10259z M11796.7,10997.6h-396.1c-52.6-158.4-118.8-290.3-158.4-448.7h-554
	c-66.2,158.4-118.8,290.3-158.4,448.7h-369.5c198-567.5,396.1-1082,607.2-1623h409.1
	C11387.5,9889.5,11572.5,10430.5,11796.7,10997.6z M13327.4,8965.5c-184.5,0-329.9,0-514.4,0V7949.7c-263.7,0-541,0-804.7,0v1015.8
	c-198,0-356.5,0-527.9,0v-2362c158.4,0,329.9,0,527.9,0v911c250.7,0,514.4,0,791.7,0V6604c171.5,0,342.9,0,527.9,0v2361.5H13327.4z
	 M10397.8,7765.2c0-158.4-26.6-329.9-92.3-501.4c-79.2-184.5-224.1-277.3-409.1-290.3c-198,0-356.5,92.3-435.2,263.7
	c-131.9,369.5-131.9,739,0,1082c79.2,184.5,237.6,277.3,435.2,277.3c184.5,0,329.9-118.8,409.1-290.3
	C10358.2,8147.7,10397.8,7949.7,10397.8,7765.2z M10938.8,7765.2c0,342.9-79.2,633.2-277.3,923.5
	c-356.5,448.7-1464.5,501.4-1754.8-342.9c-131.9-369.5-131.9-752.1,13-1121.6c144.9-448.7,541-699.4,1015.8-659.8
	c633.2,39.6,950.1,488.3,1002.8,1042.4C10938.8,7659.4,10938.8,7699,10938.8,7765.2z M3642.3,4677.2
	c-52.6-554,79.2-1055.4,435.2-1478c303.3-382.6,699.4-620.2,1148.1-791.7c474.8-211.1,1002.8-263.7,1530.7-356.5
	c131.9-39.6,250.7-52.6,382.6-66.2c26.6,52.6,0,105.8-26.6,158.4c-105.8,567.6-290.3,1108.5-646.8,1596.4
	c-461.8,620.2-1082,937.1-1847.1,1002.8c-303.3,26.6-607.2,13-897.5-39.6C3708,4703.8,3681.9,4703.8,3642.3,4677.2z M3694.9,10377.4
	c870.9-13,1556.8-712.5,1530.7-1570.3c-13-857.8-739-1556.8-1609.9-1517.7c-778.6,26.6-1517.7,712.5-1491.1,1623
	C2177.8,9718,2876.7,10403.9,3694.9,10377.4z M7363,8833.6c-13,2058.6-1662.6,3707.7-3707.7,3694.6
	C1610.2,12501.7-26.3,10852.7,0.3,8794C26.9,6762,1689.4,5126,3734.6,5165.6C5740.1,5178.6,7376.5,6854.7,7363,8833.6z"/>
</svg>
