<?xml version="1.0" encoding="utf-8"?>
<!-- Generator: Adobe Illustrator 17.1.0, SVG Export Plug-In . SVG Version: 6.00 Build 0)  -->
<!DOCTYPE svg PUBLIC "-//W3C//DTD SVG 1.1//EN" "http://www.w3.org/Graphics/SVG/1.1/DTD/svg11.dtd">
<svg version="1.1" id="Canvas" xmlns="http://www.w3.org/2000/svg" xmlns:xlink="http://www.w3.org/1999/xlink" x="0px" y="0px"
	 width="14513.4px" height="14513.4px" viewBox="0 0 14513.4 14513.4" enable-background="new 0 0 14513.4 14513.4"
	 xml:space="preserve">
<path fill="#010202" d="M12312.2,5466.7L9046.7,2201.2L10619,628.9l3265.5,3265.5L12312.2,5466.7z M5176.4,12602.5v-1451.3
	c0-145.1-120.9-266.1-241.9-266.1H3628.3V9578.8c0-145.1-120.9-241.9-266.1-241.9H1910.9L8683.8,2564l3265.5,3265.5L5176.4,12602.5z
	 M4668.5,13013.7l-4063.7,895l895-4063.7h1620.7v1306.2c0,145.1,96.8,241.9,241.9,241.9h1306.2V13013.7z M14440.8,3700.9
	L10812.5,72.6C10764.1,24.2,10691.5,0,10619,0c-72.6,0-120.9,24.2-169.3,72.6L1112.7,9409.5c-24.2,24.2-48.4,72.6-72.6,120.9
	L0,14198.9c0,24.2,0,24.2,0,48.4c0,145.1,120.9,266.1,266.1,266.1c24.2,0,24.2,0,48.4-24.2v24.2l4668.5-1040.1
	c48.4-24.2,96.8-48.4,120.9-72.6l9336.9-9336.9c48.4-48.4,72.6-96.8,72.6-169.3S14489.2,3749.3,14440.8,3700.9z"/>
</svg>
