<?xml version="1.0" encoding="utf-8"?>
<!-- Generator: Adobe Illustrator 17.1.0, SVG Export Plug-In . SVG Version: 6.00 Build 0)  -->
<!DOCTYPE svg PUBLIC "-//W3C//DTD SVG 1.1//EN" "http://www.w3.org/Graphics/SVG/1.1/DTD/svg11.dtd">
<svg version="1.1" xmlns="http://www.w3.org/2000/svg" xmlns:xlink="http://www.w3.org/1999/xlink" x="0px" y="0px"
	 viewBox="0 0 14513.4 14513.4" enable-background="new 0 0 14513.4 14513.4" xml:space="preserve">
<g id="Helper">
</g>
<g id="Canvas">
	<path d="M12485.6,13137.1v-3.3l-1935-3203.7c-147.9-248.3-469.6-324.1-718.9-180.7l-1152.4,669.1l94.7,156
		c-510.3,224.9-963.1-282.6-1765.9-1348.9l-1649.9-2729c-325.9-698-583.7-1406.5-88.2-1748.8l52.6,88.2l1152.4-667v-2.4
		c263.9-153.3,326.9-472.4,184.3-707.7v-1.9L4725,253.3c-147.7-248.3-469.6-325-718.6-181l-1151.5,669l70.3,115.1
		c-638,513.9-2233.3,2942.2,931.8,8328.1c3284.9,5589.9,6415.3,5555.2,7209.6,5193l80.7,135.9l1152.4-666.7v-1.6
		C12564.4,13691.3,12626.3,13372.9,12485.6,13137.1z"/>
</g>
</svg>
