<?xml version="1.0" encoding="utf-8"?>
<!-- Generator: Adobe Illustrator 17.1.0, SVG Export Plug-In . SVG Version: 6.00 Build 0)  -->
<!DOCTYPE svg PUBLIC "-//W3C//DTD SVG 1.1//EN" "http://www.w3.org/Graphics/SVG/1.1/DTD/svg11.dtd">
<svg version="1.1" id="Canvas" xmlns="http://www.w3.org/2000/svg" xmlns:xlink="http://www.w3.org/1999/xlink" x="0px" y="0px"
	 width="14513.4px" height="14513.4px" viewBox="0 0 14513.4 14513.4" enable-background="new 0 0 14513.4 14513.4"
	 xml:space="preserve">
<path fill="#010202" d="M8923.2,8090.6c-380,390-1580,780-2060,120c-150,810-360,1570-890,2000c-230-1190,230-2180,430-3140
	c-270-430-100-1650,700-1440c1020,260-820,2270,500,2370c910,60,1370-1580,980-2400c-260-540-790-700-1260-710
	c-1260,0-2180,1400-1380,2400c-50,160-60,350-160,460c-690-270-890-710-800-1600c120-1060,1240-1940,2620-1840
	C9593.2,4460.6,10103.2,6850.6,8923.2,8090.6z"/>
</svg>
