<?xml version="1.0" encoding="utf-8"?>
<!-- Generator: Adobe Illustrator 16.0.0, SVG Export Plug-In . SVG Version: 6.00 Build 0)  -->
<!DOCTYPE svg PUBLIC "-//W3C//DTD SVG 1.1//EN" "http://www.w3.org/Graphics/SVG/1.1/DTD/svg11.dtd">
<svg version="1.1" id="Ebene_1" xmlns="http://www.w3.org/2000/svg" xmlns:xlink="http://www.w3.org/1999/xlink" x="0px" y="0px"
	 width="289.446px" height="105.286px" viewBox="0 0 289.446 105.286" enable-background="new 0 0 289.446 105.286"
	 xml:space="preserve">
<g>
	<path d="M81.763,61.179c1.126,0.709-0.372,1.901-1.147,2.971c-2,2.76-0.272,5.82,0.13,9.523c0.142,1.299,0.188,2.139,0.295,3.49
		c1.624,0.158,4.363,0.127,5.382,0.062c0,0,0.361-1.068,0.734-1.76c2.24-5.115,6.985-10.718,12.85-11.516
		c2.086-0.285,4.529-0.207,5.968,1.604c1.197,1.505,1.04,3.729-0.097,5.629c-2.104,3.518-5.362,5.408-9.139,6.615
		c-1.923,0.617-3.726,1.131-6.655,1.336c-0.343,1.242-0.319,3.023,0.031,4.328c0.52,1.934,1.901,2.65,3.82,2.49
		c1.258-0.104,2.535-0.492,3.723-0.994c0.169-0.07,0.334-0.141,0.498-0.219c1.56-0.738,2.836-1.879,4.348-2.777
		c0.353-0.168,0.722-0.123,0.892,0.055c0.248,0.262,0.221,0.674-0.014,0.895c-1.632,1.535-3.612,2.777-5.609,3.668
		c-0.035,0.02-0.074,0.041-0.116,0.057c-3.601,1.457-6.968,1.723-9.214,0.111c-3.072-2.205-2.486-7.43-2.453-7.645h-5.107
		c-0.404,1.266-0.883,2.221-1.469,3.072c-2.307,3.354-5.348,5.625-9.984,5.625c-7.69,0-8.639-6.76-5.696-10.271
		c2.013-2.404,5.489-2.199,7.913-1.447c1.04,0.322,1.213,1.758-0.049,1.59c-3.942-0.523-5.34,0.467-6.129,1.703
		c-0.747,1.172-0.654,2.58-0.126,3.703c0.781,1.662,3.072,2.926,4.832,2.875c2.213-0.068,4.531-1.039,6.112-2.67
		c1.781-1.842,1.38-6.248,0.629-9.732c-0.842-3.918,1.118-7.069,1.012-7.069c-5.87,3.827-10.514,4.981-15.928,5.193
		c-1.923,6.466-4.413,10.661-9.143,14.13c-3.87,2.838-9.633,2.834-12.357-0.303c-4.222-4.871-2.947-12.381,5.474-18.436
		c2.654-1.91,5.445-3.143,8.175-3.143c0.503,0,1.217-0.025,1.338,0.33c0.18,0.52-0.317,0.713-0.85,0.863
		c-5.482,1.58-10.557,7.406-11.863,11.314c-1.038,3.111-2.112,6.479,0.392,8.617c2.125,1.816,6.074,1.072,8.375-0.572
		c4.561-3.258,6.828-7.312,8.342-12.301c0.056-0.183,0.228-0.594,0.253-0.859c-2.776-0.709-3.314-3.309-2.65-5.409
		c0.632-2.005,2.421-2.472,3.558-1.605c0.785,0.597,1.123,2.107,1.155,3.315c0.013,0.482,0.141,0.992,0.059,2.242
		c5.945-0.427,9.439-1.708,13.783-4.371C77.399,64.653,80.89,60.628,81.763,61.179 M104.083,67.917
		c0.111-1.636-0.629-2.149-1.714-2.28c-1.897-0.224-4.953,1.663-6.852,3.55c-2.926,2.902-4.407,6.668-4.923,8.023
		c0,0,2.069-0.176,3.122-0.465c2.896-0.695,4.604-1.77,6.821-3.913C102.305,71.124,103.979,69.409,104.083,67.917 M134.631,90.325
		l12.05-15.455l-34.028-39.709c-1.025-1.221-1.048-2.889-0.052-3.723c0.999-0.836,2.636-0.526,3.662,0.697l31.871,40.871
		l31.868-40.871c1.026-1.224,2.667-1.533,3.661-0.697c0.997,0.834,0.977,2.502-0.052,3.723L149.585,74.87l12.051,15.455
		c1.024,1.221,1.729,2.318,1.318,2.662c-0.397,0.332-1.289-0.607-2.312-1.83l-12.508-14.592l-12.507,14.592
		c-1.023,1.223-1.916,2.162-2.313,1.83C132.903,92.644,133.606,91.546,134.631,90.325 M148.134,36.442c0,0-2.866,6.456-9.774,9.448
		c0,0,3.668,7.08,3.817,7.08h5.957h5.956c0.149,0,3.816-7.08,3.816-7.08C151.001,42.898,148.134,36.442,148.134,36.442
		 M148.134,54.831h-7.389l-0.606-0.893c0,0-12.639-20.487-12.895-27.36c-0.195-5.246,4.079-10.538,10.338-10.538
		c5.018,0,6.938,2.778,6.938,2.778l0.24-0.051l0.185-0.357c1.486-2.878,2.461-8.561,1.991-8.918l-0.24-0.179l-7.267,2.021v-6.74
		l7.267,2.536l0.24-0.237L144.788,0h3.346h3.346l-2.147,6.893l0.239,0.237l7.269-2.536v6.74l-7.269-2.021l-0.239,0.179
		c-0.471,0.357,0.504,6.04,1.991,8.918l0.186,0.357l0.238,0.051c0,0,1.996-2.778,6.938-2.778c6.26,0,10.535,5.292,10.338,10.538
		c-0.254,6.873-12.896,27.36-12.896,27.36l-0.605,0.893H148.134z M158.921,43.806c1.752-2.925,3.457-6.13,4.67-8.929
		c1.338-3.092,2.244-6.005,2.503-7.279c0.809-4.01-2.624-7.883-6.85-8.568c-3.913-0.633-7.36,1.293-8.866,4.955
		c-0.772,1.99-1.018,3.238-1.046,5.373C149.247,36.118,152.656,41.258,158.921,43.806 M137.347,43.806
		c6.265-2.548,9.676-7.688,9.59-14.448c-0.029-2.135-0.271-3.383-1.047-5.373c-1.508-3.662-4.955-5.588-8.865-4.955
		c-4.227,0.686-7.659,4.559-6.849,8.568c0.256,1.274,1.164,4.188,2.502,7.279C133.886,37.676,135.596,40.881,137.347,43.806
		 M148.134,14.769c0,0-1.746,4.878-2.169,5.701c0,0,1.13,1.806,1.6,2.949c0.216,0.552,0.4,1.106,0.56,1.664
		c0.153-0.524,0.346-1.067,0.576-1.664c0.473-1.144,1.602-2.949,1.602-2.949C149.877,19.646,148.134,14.769,148.134,14.769
		 M227.735,86.825c-2.741-1.082-4.93-3.049-6.57-5.449c-2.146-3.148-3.679-6.656-3.679-10.758c0-2.398,1.12-5.059,3.626-6.18
		c2.907-1.298,6.35-0.524,9.103,1.716c0.149,0.12,0.129-1.706,0.129-2.005h3.271c0.005,0,0.326,0.736,0.525,1.179
		c4.7,9.325,7.787,19.86,13.076,20.204c1.628,0.104,3.984-2.215,5.189-5.434c-6.023-10.064-12.514-20.637-14.965-32.142
		c-0.684-3.197-0.49-5.334,1.182-8.018c1.051-1.686,3.293-2.752,5.125-2.449c2.57,0.423,3.914,2.078,5.229,4.168
		c1.4,2.227,3.688,7.151,5.521,14.182c1.463,5.622,2.53,15.882,0.797,21.952c2.369,3.762,6.021,7.918,10.766,8.08
		c3.633,0.121,6.681-1.086,9.928-1.525c3.779-0.512,9.469-0.82,12.273,3.422c1.574,2.379,1.57,7.359,0.051,9.783
		c-2.292,3.66-6.063,4.68-13.355,4.688c-35.504,0.043-71.116,0.023-106.518,0.502C116.032,103.448,0.053,105.286,0,105.286
		c3.559-2.17,4.173-2.5,5.171-6.047c8.05-0.105,27.269,0.551,35.426,0.443c33.907,0,69.306,0.16,103.373,0.16
		c44.943,0.055,128.916,0.225,134.612,0.107c3.141-0.068,4.747-0.902,5.956-2.885c1.033-1.701,1.398-6.268-0.16-8.557
		c-2.209-3.242-6.622-2.176-9.482-1.766c-4.094,0.584-11.373,2.062-15.375-0.096c-4.488-2.42-5.695-4.842-5.806-4.936
		c-1.302,3.508-4.772,6.379-8.823,6.006c-2.51-0.23-4.585-2.08-6.24-4.102h-0.16c-1.75,3.424-3.557,3.777-5.252,4.076
		C231.608,87.983,229.259,87.427,227.735,86.825 M230.868,69.555c-1.709-1.865-3.588-3.354-5.972-3.831
		c-1.333-0.267-2.835,0.207-3.627,1.013c-1.139,1.167-0.894,2.949-0.425,4.413c0.854,2.664,1.94,5.361,3.512,7.668
		c1.917,2.824,3.691,6.363,7.385,7.139c0.952,0.199,2.967-0.252,3.82-1.277c2.232-2.68,0.705-6.244-0.43-8.523
		C233.987,73.852,232.729,71.589,230.868,69.555 M247.167,42.326c-1.455-2.328-3.069-3.469-4.916-2.832
		c-1.661,0.572-2.064,2.966-1.786,4.492c0.503,2.756,2.501,9.225,4.396,13.58c2.041,4.676,5.988,12.532,9.076,17.782
		c0.117-0.811,0.371-2.734,0.391-3.24C254.798,58.328,250.085,47.004,247.167,42.326 M46.923,39.494
		c4.063,3.188,4.498,7.146,3.888,11.004c-1.304,8.277-10.413,14.538-18.037,15.656c-1.335,0.197-4.759,0.524-4.759,0.576
		c3.783,3.304,5.041,5.894,6.159,10.366c1.311,5.232,0.894,11.836,5.834,16.904c0.053,0.105,0,0.213-0.051,0.213
		c-3.87-2.482-5.527-2.99-9.704-2.291c-0.053,0-0.107-0.051-0.161-0.105c1.601-4.42,1.815-9.535,1.334-14.434
		c-0.423-4.334-3.62-9.066-6.549-10.657c-0.297-0.161-0.576-0.362-0.955-0.572c-4.204,8.589-4.84,10.681-8.79,16.354
		c-2.038,2.926-5.221,4.6-6.311,5.207c-0.268-1.119,0.015-2.48-1.394-4.383c-1.275-1.717-3.482-2.297-3.377-2.352
		c6.243,0.125,8.33-1.92,10.688-5.41c5.935-8.78,9.011-17.791,14.769-26.208c2.334-3.412,4.338-5.672,8.078-7.508
		c1.254-0.614,3.023-0.898,2.959-0.197c-0.057,0.635-1.862,1.307-2.458,1.702c-2.508,1.67-4.293,3.323-6.52,6.825
		c-2.196,3.446-5.363,9.939-6.643,13.882c0.495,0.4,1.025,0.592,1.291,0.752c5.12,0.066,10.287-1.117,13.821-3.5
		c7.262-4.898,9.101-16.19,3.701-20.214c-3.206-2.387-7.88-4.33-13.536-3.513C19.247,39.184,7.364,55.784,19.465,59.091
		c-0.427,0.801-1.646,1.598-2.612,1.656c-1.838,0.111-3.876-0.646-4.903-2.29c-1.91-3.056-0.942-8.508,1.351-12.075
		c5.082-7.913,12.854-11.011,20.26-10.896C37.583,35.546,43.119,36.512,46.923,39.494 M130.135,65.711
		c0.538,1.108,0.222,2.192-0.206,3.149c-2.238,4.9-4.931,9.668-7.357,14.539c-0.213,0.428-0.461,0.961-0.161,1.439
		c0.383,0.607,1.043,0.469,1.839,0.164c1.847-0.709,3.255-2.027,4.962-3.041c0.353-0.168,0.721-0.123,0.89,0.055
		c0.248,0.262,0.222,0.674-0.014,0.895c-2.093,1.971-4.756,3.473-7.312,4.432c-1.281,0.479-2.697,0.777-3.644-0.195
		c-1.91-1.967,0.786-6.475,2.012-9.029c1.719-3.375,3.403-6.642,5.127-10.163c0.284-0.578,0.419-1.005-0.097-1.651
		c-0.735-0.911-2.617-0.238-3.91,0.487c-2.051,1.147-4.903,2.991-6.007,4.999c-2.826,5.006-8.193,15.318-8.193,15.318h-4.139
		l10.883-21.127l-3.158-0.002l1.069-1.83l7.212,0.004c0,0-1.896,2.646-1.916,2.941c0.266,0.055,0.985-0.52,1.197-0.679
		c2.613-1.704,4.976-3.02,8.44-2.483C128.322,64.033,129.619,64.64,130.135,65.711 M165.788,66.06l-0.956-1.91h4.485l-1.725-3.465
		l2.977-3.592l3.42,7.057h7.146l0.945,1.91h-7.146c3.124,6.317,7.228,14.535,7.419,14.896c0.705,1.338,2.368,4.855,4.165,4.84
		c2.725-0.029,3.736-6.547,5.049-6.143c0.608,0.191-0.111,1.816-0.841,3.729c-0.705,1.672-1.597,3.416-3.205,4.031
		c-3.646,1.395-6.615-1.469-8.017-3.602c-1.004-1.527-4.038-7.402-4.038-7.402l-5.196-10.35H165.788z M194.586,67.462
		c0.334,0.631,0.444,0.77,0.584,0.797c0.218,0.041,0.667-2.373,3.397-3.686c2.831-1.366,6.356-1.135,8.978,1.259
		c1.562,1.423,1.981,2.229,3.004,4.155l12.341,24.848l-4.608-0.002l-11.294-22.752c-1.529-2.947-3.568-6.145-5.651-6.232
		c-1.358-0.059-2.265,0.435-3.088,1.158c-1.222,1.079-1.638,3.312-1.038,5.112c0.367,1.108,0.776,2.124,1.244,3.097l5.965,11.893
		h-4.503l-20.339-40.696l2.843-3.479L194.586,67.462z"/>
</g>
</svg>
