<?xml version="1.0" encoding="utf-8"?>
<!-- Generator: Adobe Illustrator 17.1.0, SVG Export Plug-In . SVG Version: 6.00 Build 0)  -->
<!DOCTYPE svg PUBLIC "-//W3C//DTD SVG 1.1//EN" "http://www.w3.org/Graphics/SVG/1.1/DTD/svg11.dtd">
<svg version="1.1" id="Canvas" xmlns="http://www.w3.org/2000/svg" xmlns:xlink="http://www.w3.org/1999/xlink" x="0px" y="0px"
	 width="14513.4px" height="14513.4px" viewBox="0 0 14513.4 14513.4" enable-background="new 0 0 14513.4 14513.4"
	 xml:space="preserve">
<path d="M522.3,6342.6H349.6v1182.1h172.8c76.8,0,257.9,13.7,257.9-597.9C780.2,6345.4,640.3,6342.6,522.3,6342.6z M547.1,7637.2
	H6.7c-5.5,0-5.5-8.2,0-8.2l106.9-30.2v-1344L1.2,6227.4c-2.7-2.7,0-8.2,0-8.2H558c227.7,0,458.1-5.5,458.1,707.6
	C1016.1,7607.1,785.7,7637.2,547.1,7637.2z M1153.2,7629l101.5-21.9V6249.4l-106.9-21.9c-2.7-2.7,0-8.2,0-8.2h721.4V6543
	c0,5.5-5.5,5.5-8.2,0c-19.2-85-46.6-216.7-46.6-216.7h-331.9v575.9h312.7c0,0,21.9-118,27.5-150.8c2.7-5.5,8.2-5.5,8.2,0v397.8
	c0,2.7-8.2,2.7-8.2,0l-27.5-150.8h-312.7V7525H1817c0,0,35.7-153.6,46.6-205.7c2.7-5.5,8.2-5.5,8.2,0v318.2h-718.6
	C1147.8,7637.2,1147.8,7629,1153.2,7629z M2617.8,6603.2c0-290.7-74.1-266.1-279.8-266.1v545.8
	C2491.7,6883,2617.8,6902.2,2617.8,6603.2z M3045.8,7637.2h-331.9L2346.3,6957h-8.2v650l93.3,21.9c2.7,0,2.7,8.2,0,8.2H2009
	c-5.5,0-5.5-8.2,0-8.2l93.3-21.9V6249.4c0,0-90.5-19.2-98.7-19.2c-2.7-2.7-2.7-10.9,0-10.9h449.9c290.7,0,394.9,35.7,389.4,403.2
	c-2.7,230.4-112.4,323.7-266.1,323.7l375.8,655.5h10.9c21.9,8.2,71.4,21.9,82.3,27.5C3051.3,7631.8,3048.5,7637.2,3045.8,7637.2z
	 M4356.8,6592.3l-57.6-255h-263.3v1269.9l85,21.9c5.5,2.7,2.7,8.2,0,8.2h-403.2c-5.5,0-5.5-8.2,0-8.2l82.3-21.9v-1270h-277
	c0,0-35.7,153.6-60.3,255c-2.7,8.2-10.9,8.2-10.9,0v-373h916.1v373C4367.8,6600.5,4356.8,6600.5,4356.8,6592.3z M4639.3,6622.4
	L4491.2,7193h271.6L4639.3,6622.4z M5198.9,7637.2h-392.2c-2.7,0-2.7-8.2,0-8.2l57.6-21.9l-76.8-312.7h-318.2l-82.3,312.7l52.1,21.9
	c8.2,2.7,5.5,8.2,0,8.2H4217c-5.5,0-2.7-8.2,0-8.2l63-21.9l364.8-1387.9h120.7L5122,7601.5l76.8,27.5
	C5201.6,7629,5204.3,7637.2,5198.9,7637.2z M5838,7672.9c-252.3,0-696.7-153.6-696.7-732.4c0-216.7,41.2-386.7,172.8-545.8
	c134.4-164.6,340.1-224.9,548.6-224.9c98.7,0,172.8,8.2,244.1,24.7c115.1,27.5,205.7,76.8,205.7,76.8l5.5-5.5l19.2-90.5
	c2.7-5.5,10.9-5.5,10.9,0c0,79.6,2.7,161.8,2.7,422.4c0,2.7-10.9,2.7-10.9,0c-13.7-87.8-24.7-181-35.7-216.7
	c-85-52.1-219.5-90.5-411.4-90.5c-128.9,0-301.7,63-389.4,200.2c-76.8,118-106.9,224.9-106.9,427.9c0,397.8,202.9,639.1,499.2,639.1
	c150.8,0,227.7-52.1,274.3-74.1V7097c0,0-137.1-10.9-227.7-19.2c-8.2,0,0-13.7,2.7-13.7h477.2v427.9
	C6304.2,7571.5,6125.9,7672.9,5838,7672.9z M7261.4,7382.2l-5.5-27.5l35.7-5.5l-8.2,35.7L7261.4,7382.2z M7914.2,7971.8l5.5,32.9
	H7906l8.2,35.7h-46.6l5.5,32.9h-38.4l2.7,16.4h93.3v-118h-16.5V7971.8z M7930.6,7911.5h-5.5v19.2h5.5V7911.5z M6740.3,8070.6h-46.6
	l5.5-32.9h-13.7l8.2-32.9h-27.5l8.2-43.9h10.9l-5.5-19.2l-16.4,2.7l-5.5-41.2l5.5,2.7l-2.7-30.2h2.7l-2.7-13.7h-10.9l2.7-27.5
	l-13.7,2.7c0,2.7,2.7,2.7,2.7,5.5v2.7v5.5v238.7h96L6740.3,8070.6z M7031,8081.6l-8.2-16.4l-216.7,5.5l224.9,19.2L7031,8081.6
	L7031,8081.6z M7003.6,8029.5l-235.9,5.5l249.6,24.7L7003.6,8029.5z M6998.1,8021.2v-96l-27.5-24.7h-43.9V7854h-21.9v-63l32.9-19.2
	l-49.4-41.2v-41.2l-60.3-52.1h-82.3l82.3,13.7l-104.2,8.2l93.3,8.2l-87.8,8.2l98.7,8.2l-126.2,10.9l126.2,13.7l-115.1,8.2
	l139.9,10.9l-118,10.9l54.8,5.5H6776l74.1,5.5l-142.6,13.7l142.6,10.9l-142.6,10.9l142.6,10.9l-145.4,10.9l150.8,10.9l-150.8,10.9
	l167.4,16.4l-145.4,10.9l156.3,16.4l-134.4,10.9l161.8,10.9l-167.4,13.7l222.2,19.2l-216.7,10.9l230.4,13.7l-216.7,16.4l222.2,19.2
	l-238.6,10.9l257.9,27.5L6998.1,8021.2z M7730.4,7546.7l-43.9-52.1l-32.9-35.7v43.9l49.4,43.9c8.2,2.7,19.2,5.5,30.2,5.5
	L7730.4,7546.7z M7593.3,7480.9h-16.4l19.2,16.4L7593.3,7480.9z M7516.5,7357.5l5.5,27.5l13.7-13.7L7516.5,7357.5z M7489.1,7494.6
	h-5.5l8.2,8.2L7489.1,7494.6z M7722.2,7870.4l-5.5,8.2l-5.5,16.4l153.6-13.7L7722.2,7870.4z M7947.1,7640l-5.5,8.2l-8.2,13.7
	l16.4-2.7l-16.4,24.7l16.4-2.7l-13.7,24.7l13.7-2.7l-13.7,24.7h16.4l-13.7,21.9h13.7l-13.7,24.7l30.2-2.7l2.7,35.7l-16.4-2.7
	l2.7,19.2c5.5-2.7,10.9-2.7,10.9-2.7h1053.3l-30.2,106.9l30.2,98.7h-949c5.5,5.5,5.5,10.9,8.2,10.9c5.5,8.2,8.2,13.7,8.2,21.9v2.7
	c2.7,2.7,2.7,2.7,0,5.5v214c0,0,2.7,32.9-41.2,32.9h-499.2l-8.2,5.5l-224.9-5.5l-183.8,2.7l315.4,16.4l-384,16.4l-46.6-30.2h-35.7
	l-5.5-5.5h-449.9c-49.4-2.7-46.6-30.2-46.6-30.2v-216.7v2.7c-2.7-8.2,0-21.9,10.9-32.9l8.2-10.9h-946.2l24.7-98.7l-30.2-106.9h1056
	c0,0,21.9,0,32.9,10.9l5.5-30.2l27.5,2.7l-16.4-24.7l16.4,2.7l-13.7-24.7h16.4l-5.5-5.5l-24.7,2.7l-19.2-30.2l46.6,5.5l-10.9-19.2
	l13.7,2.7l-13.7-24.7l16.4,2.7l-8.2-10.9l-16.4-30.2l35.7,2.7l-2.7-16.4h-2.7h-150.8c-5.5,0-5.5-8.2,0-8.2l101.5-21.9V6249.4
	l-104.2-21.9c-5.5-2.7-2.7-8.2,0-8.2H7245V6543c0,5.5-5.5,5.5-8.2,0c-19.2-85-46.6-216.7-46.6-216.7h-331.9v575.9h312.7
	c0,0,24.7-118,27.5-150.8c2.7-5.5,8.2-5.5,8.2,0v397.8c0,2.7-8.2,2.7-8.2,0l-27.5-150.8h-312.7v389.4l82.3-74.1l49.4,68.5v27.5
	l27.5,13.7l27.5-27.5h60.3v27.5l30.2,32.9l-27.5,24.7l-24.7-24.7l-19.2,16.4l27.5,24.7l-27.5,27.5h131.7l43.9-200.2l-38.4,32.9v46.6
	l-24.7,10.9l-30.2-65.8l19.2-24.7v-19.2l63-60.3l27.5,27.5l-10.9,43.9c2.7,0,2.7,0,2.7,2.7v318.2h-362.1l5.5,19.2l19.2,8.2
	l16.4-13.7l21.9,19.2h2.7l-27.5,21.9l10.9,32.9l30.2-5.5l8.2,21.9l16.4-10.9h54.8l49.4,32.9v24.7h74.1l27.5,52.1l-16.4,24.7v60.3
	l-27.5,24.7v60.3l-38.4,10.9l-2.7,68.5h416.9l227.7-16.4l-290.7-5.5l323.7-30.2h-268.8l331.9-32.9l-257.9-10.9l257.9-24.7
	l-219.5-8.2l216.7-21.9l-186.5-10.9l211.2-21.9l-164.6-8.2l-2.7,13.7l-16.4-16.4h-2.7l-2.7-5.5l5.5-24.7l27.5-21.9l10.9,16.4
	l-5.5,10.9l148.1-19.2l-170.1-10.9l172.8-13.7l-153.6-10.9l172.8-13.7l-170.1-8.2l175.6-16.4l-170.1-8.2l167.4-13.7l-159-8.2
	l164.6-16.4l-142.6-10.9l137.1-10.9l-139.9-10.9l139.9-10.9l-115.1-8.2l126.2-13.7l-52.1-5.5c-30.2,5.5-60.3,5.5-87.8,2.7l-57.6-5.5
	l-27.5,10.9l-19.2-21.9l-21.9-5.5l49.4,49.4l41.2-24.7v38.4l-52.1,76.8v57.6l-38.4,35.7l-27.5,52.1v35.7l-38.4,43.9L7536,7983
	l-57.6-76.8l24.7-30.2v-38.4l-27.5-30.2v-46.6l-27.5-32.9h-104.2l-38.4-63v-63l16.4-43.9h82.3l65.8-13.7l24.7,24.7
	c0-13.7-2.7-27.5-2.7-43.9l-13.7,13.7l-5.5-19.2l-21.9-35.7h-27.5v32.9l-10.9,27.5h-52.1l-16.4-30.2l38.4-49.4l-30.2-21.9l30.2-21.9
	l13.7,19.2h38.4l16.4-32.9l32.9,24.7l2.7-2.7c0-24.7-2.7-52.1-2.7-79.6h-2.7V7322l2.7-2.7v-74.1c0-10.9,10.9-10.9,10.9-2.7
	c2.7,13.7,5.5,35.7,10.9,57.6l52.1,2.7l-2.7,35.7l101.5-2.7l52.1,35.7l41.2,57.6l54.8,41.2l2.7,68.5l-8.2,13.7
	c60.3-8.2,134.4-38.4,167.4-106.9c30.2-68.5,43.9-222.2-85-301.7c-208.4-126.2-342.8-183.8-416.9-304.5
	c-82.3-131.7-85-373,65.8-537.6c120.7-126.2,359.3-145.4,523.8-30.2c0-5.5,24.7-96,27.5-104.2c2.7-5.5,8.2-5.5,8.2,0
	c0,82.3,0,161.8,8.2,422.4c0,2.7-10.9,8.2-10.9,0c-10.9-60.3-43.9-216.7-43.9-216.7c-142.6-98.7-298.9-87.8-370.3-24.7
	c-52.1,49.4-74.1,104.2-74.1,200.2c0,175.6,161.8,233.1,293.4,312.7c115.1,71.4,224.9,137.1,260.6,238.6
	c38.4,112.4,46.6,277-41.2,408.7C8070.5,7576.9,8010.2,7618.1,7947.1,7640z M7478.1,7393.2h-38.4v-27.5l38.4,2.7V7393.2z
	 M7069.4,7346.5l-13.7,13.7l-21.9-21.9l35.7-32.9h41.2v38.4l-21.9,21.9L7069.4,7346.5z M8668.4,7662c-82.3-2.7-159-24.7-233.1-82.3
	l-21.9,109.7c0,5.5-10.9,5.5-10.9,0c0-79.6-16.4-241.3-16.4-444.4c0-10.9,10.9-10.9,13.7-2.7c5.5,41.2,24.7,164.6,43.9,194.7
	c43.9,68.5,137.1,118,227.7,118c63,0,159-27.5,197.5-109.7c32.9-68.5,46.6-222.2-85-301.7c-205.7-126.2-340.1-183.8-414.2-304.5
	c-82.3-131.7-87.8-373,65.8-537.6c120.7-126.2,356.6-145.4,521.1-30.2c0-5.5,27.5-96,30.2-104.2c2.7-5.5,8.2-5.5,8.2,0
	c0,82.3-2.7,161.8,5.5,422.4c0,2.7-10.9,8.2-10.9,0c-10.9-60.3-43.9-216.7-43.9-216.7c-142.6-98.7-298.9-87.8-367.5-24.7
	c-54.8,49.4-74.1,104.2-74.1,200.2c0,175.6,161.8,233.1,290.7,312.7c118,71.4,224.9,137.1,260.6,238.6
	c38.4,112.4,46.6,277-38.4,408.7C8931.8,7642.7,8783.7,7667.4,8668.4,7662z M9516,6328.9v592.5c150.8,0,271.6,24.7,271.6-301.7
	C9787.5,6304.3,9688.8,6328.9,9516,6328.9z M9516,7025.6v581.4l93.3,21.9c5.5,0,5.5,8.2,0,8.2h-414.2c-5.5,0-8.2-8.2,0-10.9l85-19.2
	V6249.4l-90.5-21.9c-5.5,0-2.7-8.2,0-8.2h436.1c249.6,0,381.2,35.7,381.2,400.5C10006.9,7033.8,9768.3,7025.6,9516,7025.6z
	 M10473.2,7629c5.5,2.7,2.7,8.2,0,8.2h-408.7c-2.7,0-8.2-5.5,0-8.2l82.3-21.9V6249.4l-87.8-21.9c-5.5-2.7-8.2-8.2,0-8.2h411.4
	c8.2,0,8.2,5.5,0,8.2l-87.8,21.9v1357.7L10473.2,7629z M10615.8,7629l101.5-21.9V6249.4l-106.9-21.9c-5.5-2.7-2.7-8.2,0-8.2h721.3
	V6543c0,5.5-8.2,5.5-8.2,0c-19.2-85-49.4-216.7-49.4-216.7H10945v575.9h310c0,0,24.7-118,27.5-150.8c2.7-5.5,10.9-5.5,10.9,0v397.8
	c0,2.7-10.9,2.7-10.9,0l-27.5-150.8h-310V7525h334.6c0,0,35.7-153.6,43.9-205.7c2.7-5.5,10.9-5.5,10.9,0v318.2h-718.6
	C10607.6,7637.2,10607.6,7629,10615.8,7629z M12143.6,7672.9c-255,0-696.7-153.6-696.7-732.4c0-216.7,41.2-386.7,172.8-545.8
	c131.7-164.6,340.1-224.9,548.6-224.9c96,0,170.1,8.2,244.1,24.7c112.4,27.5,205.7,76.8,205.7,76.8l2.7-5.5l21.9-90.5
	c2.7-5.5,10.9-5.5,10.9,0c0,79.6,2.7,161.8,2.7,422.4c0,2.7-10.9,2.7-10.9,0c-16.4-87.8-27.5-181-35.7-216.7
	c-85-52.1-219.5-90.5-411.4-90.5c-131.7,0-301.7,63-392.2,200.2c-74.1,118-106.9,224.9-106.9,427.9c0,397.8,205.7,639.1,502,639.1
	c148.1,0,227.7-52.1,274.3-74.1V7097c0,0-137.1-10.9-230.4-19.2c-5.5,0,0-13.7,5.5-13.7h477.2v427.9
	C12609.9,7571.5,12431.6,7672.9,12143.6,7672.9z M12856.7,7629l101.5-21.9V6249.4l-106.9-21.9c-2.7-2.7-2.7-8.2,0-8.2h721.3V6543
	c0,5.5-5.5,5.5-8.2,0l-49.4-216.7h-329.1v575.9h310c0,0,24.7-118,30.2-150.8c0-5.5,8.2-5.5,8.2,0v397.8c0,2.7-8.2,2.7-8.2,0
	l-30.2-150.8h-310V7525h334.6l46.6-205.7c2.7-5.5,8.2-5.5,8.2,0v318.2h-718.6C12848.5,7637.2,12848.5,7629,12856.7,7629z
	 M13734.4,7637.2c-8.2,0-8.2-8.2-2.7-8.2l109.7-21.9V6249.4l-93.3-21.9c-8.2-2.7-2.7-8.2,0-8.2h427.9c5.5,0,8.2,5.5,0,8.2
	l-93.3,21.9v1275.4h375.8l46.6-205.7c0-5.5,8.2-5.5,8.2,0v318.2h-779V7637.2z"/>
</svg>
