<?xml version="1.0" encoding="utf-8"?>
<!-- Generator: Adobe Illustrator 17.1.0, SVG Export Plug-In . SVG Version: 6.00 Build 0)  -->
<!DOCTYPE svg PUBLIC "-//W3C//DTD SVG 1.1//EN" "http://www.w3.org/Graphics/SVG/1.1/DTD/svg11.dtd">
<svg version="1.1" id="Canvas" xmlns="http://www.w3.org/2000/svg" xmlns:xlink="http://www.w3.org/1999/xlink" x="0px" y="0px"
	 width="14513.4px" height="14513.4px" viewBox="0 0 14513.4 14513.4" enable-background="new 0 0 14513.4 14513.4"
	 xml:space="preserve">
<path fill="#010202" d="M8376.7,4611.7c70,0,140,0,220,0c10,0,10,10,20,10c330,30,610,160,840,390c10,20,30,20,50,20
	c280-60,540-160,780-300c10-10,20-10,40-10c-110,310-300,550-570,720c180-20,360-60,540-120c70-30,140-50,210-80c0,0,0,0,0,10
	c-10,0-10,0-20,10c-170,250-380,470-630,660c-20,10-20,20-20,40c0,90,10,180,0,280c-10,340-70,670-170,1000
	c-210,650-560,1220-1060,1690c-640,590-1410,900-2280,960c-30,10-60,0-100,10c-110,0-220,0-340,0h-10c-70,0-130-10-190-10
	c-120-10-240-30-350-50c-200-40-390-90-580-160c-250-90-500-210-730-350c-10-10-20-10-20-30c350,40,690,20,1030-80
	c310-90,860-370,920-470c-180-10-280-30-410-80c-390-140-670-420-810-820c-20-30-10-30,20-20c50,10,110,10,160,20
	c120,0,240-10,350-40c20,0,30,0,40-10c-720-170-1070-820-1050-1330c90,50,190,90,280,120c100,30,200,50,310,50c-10-10-10-20-20-20
	c-110-80-210-180-300-290c-170-240-260-500-260-790c-10-70,0-140,10-210c30-160,80-310,160-450c10-20,10-20,30-10
	c90,120,190,230,300,330c260,250,560,470,890,640c230,120,470,210,720,280c110,30,220,60,340,80c80,10,160,20,240,30
	c70,10,140,10,220,20c20,0,20,0,20-20c-30-110-40-220-30-330c0-50,0-110,10-160c20-130,60-260,120-380c80-170,200-310,330-430
	c90-70,180-130,280-180c110-60,220-90,340-110C8286.7,4631.7,8336.7,4631.7,8376.7,4611.7z"/>
</svg>
