<?xml version="1.0" encoding="utf-8"?>
<!-- Generator: Adobe Illustrator 17.1.0, SVG Export Plug-In . SVG Version: 6.00 Build 0)  -->
<!DOCTYPE svg PUBLIC "-//W3C//DTD SVG 1.1//EN" "http://www.w3.org/Graphics/SVG/1.1/DTD/svg11.dtd">
<svg version="1.1" id="Canvas" xmlns="http://www.w3.org/2000/svg" xmlns:xlink="http://www.w3.org/1999/xlink" x="0px" y="0px"
	 width="14513.4px" height="14513.4px" viewBox="0 0 14513.4 14513.4" enable-background="new 0 0 14513.4 14513.4"
	 xml:space="preserve">
<path fill="#010202" d="M1275.4,14117.6c175.9-1561.3,1781.2-2287,2660.8-2572.8l109.9-44c901.6-307.9,2001.1-659.7,2001.1-2374.9
	c0-1473.3-1033.5-2418.9-1253.4-2616.8c-66-109.9-263.9-527.8,22-1165.5l66-109.9l-44-131.9c-22-22-659.7-1473.3-175.9-2726.8
	c263.9-615.7,747.7-1077.5,1517.3-1385.4c22,0,791.6-373.8,1627.3-373.8c945.6,0,1539.3,461.8,1869.1,1407.4v44l44,44
	c0,22,1077.5,1363.4,263.9,2968.6l-66,153.9l88,153.9c0,0,285.9,483.8,0,1143.5C9741.6,6750.9,8752,7696.5,8752,9125.8
	c0,1319.4,439.8,1649.2,1187.5,2067.1c131.9,66,285.9,153.9,439.8,263.9c241.9,153.9,527.8,285.9,835.6,417.8
	c857.6,395.8,1847.2,1055.5,2001.1,2243H1275.4z M13853.7,14205.5c-44-1803.2-1407.4-2418.9-2396.9-2858.7
	c-285.9-131.9-549.8-263.9-747.7-373.8c-175.9-131.9-329.9-219.9-483.8-307.9c-593.7-351.8-879.6-505.8-879.6-1539.3
	c0-1319.4,1077.5-2155,1077.5-2177l66-44l22-44c373.8-747.7,197.9-1363.4,66-1649.2c791.6-1715.2-153.9-3166.6-351.8-3430.4
	C9719.6,307.9,8620.1,0,7806.4,0c-989.5,0-1847.2,439.8-1869.1,439.8C5035.7,813.6,4420,1385.4,4112.1,2155
	c-505.8,1253.4-44,2638.8,110,3056.6c-395.8,989.5,66,1649.2,88,1693.2l66,44c0,22,1077.5,835.6,1077.5,2177
	c0,1275.4-703.7,1517.3-1583.3,1803.2l-131.9,44c-989.5,329.8-3078.6,1011.5-3078.6,3232.5v307.9h13194V14205.5z"/>
</svg>
