<?xml version="1.0" encoding="utf-8"?>
<!-- Generator: Adobe Illustrator 17.1.0, SVG Export Plug-In . SVG Version: 6.00 Build 0)  -->
<!DOCTYPE svg PUBLIC "-//W3C//DTD SVG 1.1//EN" "http://www.w3.org/Graphics/SVG/1.1/DTD/svg11.dtd">
<svg version="1.1" id="Canvas" xmlns="http://www.w3.org/2000/svg" xmlns:xlink="http://www.w3.org/1999/xlink" x="0px" y="0px"
	 width="14513.4px" height="14513.4px" viewBox="0 0 14513.4 14513.4" enable-background="new 0 0 14513.4 14513.4"
	 xml:space="preserve">
<path fill="#010202" d="M7256.7,0C3241.3,0,0,3241.3,0,7256.7s3241.3,7256.7,7256.7,7256.7c3991.2,0,7256.7-3241.3,7256.7-7256.7
	S11247.9,0,7256.7,0z M11621.9,12745.1h-0.1c0,0,0.1-0.1,0.1-0.1l-785.2-650.6l-604.8-314.4l-846.6-290.3c0,0-483.8-266.1-701.5-508
	c-193.5-241.9-145.1-967.6-145.1-967.6s120.9-338.6,459.6-870.8c120.9-217.7,120.9-290.3,314.5-701.5
	c169.3-411.2,120.9-193.5,217.7-532.2c72.6-314.5,120.9-290.3,145.1-677.3c24.2-387,24.2-266.1,24.2-628.9
	c24.2-362.8,24.2-677.3-48.4-1015.9c-72.6-338.6-217.7-701.5-290.3-1015.9c-72.6-338.6-604.7-798.2-604.7-798.2l-919.2-48.4
	l-653.1,96.8L6652,3846l-362.8,96.8c0,0-338.6,193.5-749.9,556.3l-217.7,387c0,0-266.1,580.5-266.1,774c0,217.7,145.1,895,145.1,895
	s-48.4,338.6-24.2,604.7c24.2,241.9,169.3,532.2,266.1,919.2c0,0,241.9,217.7,290.3,387c72.6,193.5,217.7,483.8,217.7,483.8
	l145.1,362.8c0,0,24.2,217.7,96.8,411.2c48.4,193.5,0,193.5-24.2,483.8s-48.4,266.1-96.8,459.6c-72.6,169.3-338.6,628.9-338.6,628.9
	l-1330.4,508c-266.1,96.8-1136.9,677.3-1136.9,677.3c-137.7,113.4-294.2,188.8-357.2,277.1c0,0,0.1,0.1,0.1,0.1h-0.1
	C1284.7,11473.1,241.9,9485.3,241.9,7256.7c0-3870.2,3144.6-7014.8,7014.8-7014.8s7014.8,3144.6,7014.8,7014.8
	C14271.5,9477.6,13235.8,11459.2,11621.9,12745.1z"/>
</svg>
