<?xml version="1.0" encoding="utf-8"?>
<!-- Generator: Adobe Illustrator 17.1.0, SVG Export Plug-In . SVG Version: 6.00 Build 0)  -->
<!DOCTYPE svg PUBLIC "-//W3C//DTD SVG 1.1//EN" "http://www.w3.org/Graphics/SVG/1.1/DTD/svg11.dtd">
<svg version="1.1" id="Canvas" xmlns="http://www.w3.org/2000/svg" xmlns:xlink="http://www.w3.org/1999/xlink" x="0px" y="0px"
	 width="14513.4px" height="14513.4px" viewBox="0 0 14513.4 14513.4" enable-background="new 0 0 14513.4 14513.4"
	 xml:space="preserve">
<path fill="#010202" d="M0,5459.7h1229.5c23.6,0,56.8-9.5,42.5,37.8H964.6c316.9,870.1,633.8,1735.6,955.3,2615.2
	c269.6-879.6,539.1-1745.1,808.7-2615.2h-312.1c-14.1-23.6-9.5-37.8,23.6-37.8H3069c14.1,0,23.6,14.1,37.8,23.6
	c-4.6,4.6-4.6,9.5-9.5,14.1c-85.2,0-175,4.6-264.8,0c-28.4,0-42.5,9.5-52,42.5c-118.2,364.2-231.7,728.2-349.9,1097.2
	c-70.9,227.1-141.9,458.6-212.8,690.4l-288.5,898.7c-70.9,231.7-141.9,458.6-212.8,690.4l-56.8,179.8c-18.9-42.5-33-70.9-42.5-99.3
	c-123-335.8-241.2-671.6-364.2-1002.6c-151.4-411.5-302.6-822.8-449.3-1234.3l-340.4-931.5c-37.8-99.3-75.7-198.7-113.5-298
	c-9.5-23.6-23.6-33-47.3-33c-104.1,4.6-203.3,0-302.6,0L0,5459.7L0,5459.7z M7708.3,5379.3c165.5,52,331,108.7,496.5,156
	c99.3,28.4,198.7-9.5,283.7-66.2c37.8-23.6,75.7-52,123-80.3V6661c-14.1-14.1-28.4-18.9-28.4-28.4
	c-42.5-212.8-113.5-421-217.6-614.8c-104.1-193.9-231.7-364.2-416.1-491.8c-217.6-151.4-477.6-175-704.6-4.6
	c-85.2,61.4-146.6,141.9-193.9,231.7c-113.5,203.3-179.8,425.6-212.8,652.7c-18.9,132.5-42.5,260.1-52,392.6
	c-9.5,250.6-23.6,501.3-18.9,751.9c9.5,245.8,37.8,491.8,99.3,733c37.8,165.5,85.2,331,165.5,482.4
	c99.3,189.2,250.6,293.1,468.1,312.1c260.1,18.9,477.6-70.9,657.3-255.3c66.2-70.9,104.1-151.4,104.1-250.6v-931.5
	c0-18.9,0-33,0-56.8h-331c0-4.6,0-14.1,0-18.9c9.5-4.6,23.6-9.5,37.8-9.5c118.2,0,236.4,0,349.9,0h761.4c14.1,0,28.4,4.6,47.3,9.5
	l-4.6,18.9c-89.8,0-179.8,0-279,0v1447.1c0,4.6-4.6,4.6-9.5,4.6c-9.5-9.5-18.9-23.6-28.4-33c-99.3-146.6-264.8-203.3-430.4-146.6
	c-89.8,33-175,75.7-260.1,113.5c-137.1,61.4-274.2,108.7-425.6,127.6c-345.3,37.8-643.2-56.8-908-269.6
	c-156-127.6-274.2-283.7-373.6-454c-118.2-208.2-193.9-435.1-241.2-666.8c-42.5-203.3-42.5-411.5-28.4-614.8
	c14.1-241.2,70.9-477.6,165.5-704.6c70.9-165.5,160.8-321.5,279-458.6c160.8-193.9,349.9-349.9,581.6-449.3
	c99.3-42.5,208.2-61.4,307.4-89.8c9.5,0,9.5-4.6,18.9-9.5h217.8V5379.3z M3357.7,7261.3c4.6,0,9.5,0,9.5,4.6
	c4.6,61.4,9.5,127.6,14.1,193.9c9.5,113.5,14.1,222.3,33,331c37.8,217.6,80.3,430.4,160.8,633.8c70.9,184.4,156,364.2,302.6,501.3
	c123,113.5,264.8,170.3,435.1,160.8c184.4-9.5,321.5-113.5,430.4-245.8c118.2-141.9,189.2-312.1,250.6-482.4
	c56.8-179.8,104.1-359.4,127.6-548.6c14.1-151.4,37.8-298,47.3-449.3c4.6-94.6-4.6-193.9-9.5-288.5c-9.5-113.5-14.1-227.1-33-335.8
	c-37.8-222.3-80.3-439.9-165.5-652.7c-66.2-160.8-137.1-316.9-260.1-449.3c-132.5-137.1-288.5-217.6-487-198.7
	c-146.6,14.1-264.8,85.2-364.2,184.4c-113.5,118.2-193.9,264.8-255.3,421c-75.7,198.7-132.5,397.2-160.8,610
	C3405,6854.7,3381.2,7058,3357.7,7261.3z M4147.5,9134.1c-66.2-14.1-127.6-23.6-189.2-37.8c-198.7-52-373.6-146.6-534.3-274.2
	c-227.1-179.8-392.6-411.5-510.8-676.2c-75.7-170.3-132.5-345.3-151.4-534.3c-14.1-137.1-33-279-28.4-416.1
	c4.6-264.8,56.8-520.2,156-761.4c108.7-264.8,264.8-491.8,477.6-681.1c198.7-175,425.6-298,690.4-345.3
	c255.3-42.5,501.3-14.1,737.7,94.6c141.9,66.2,269.6,146.6,383.1,250.6c274.2,241.2,444.5,543.8,543.8,889
	c42.5,151.4,75.7,302.6,80.3,454c4.6,99.3,14.1,198.7,9.5,293.1c-18.9,222.3-56.8,439.9-141.9,652.7
	c-75.7,198.7-179.8,378.3-316.9,543.8c-151.4,184.4-335.8,331-548.6,430.4c-127.6,56.8-255.3,99.3-392.6,108.7
	c-4.6,0-9.5,9.5-14.1,9.5H4147.5z M14513.4,9034.8H11988c-23.6,0-61.4,14.1-47.3-37.8c94.6,0,193.9,0,293.1,0V5502.2
	c-212.8,0-421,0-638.4,0v61.4c0,908,0,1815.9-4.6,2723.9c0,222.3-89.8,411.5-269.6,553.2c-151.4,123-326.3,193.9-515.4,222.3
	c-132.5,18.9-274.2,28.4-406.7,18.9c-274.2-18.9-529.7-89.8-747.1-264.8c-160.8-123-279-288.5-307.4-496.5
	c-9.5-70.9-18.9-146.6-18.9-217.6V5563.8c0-18.9,0-37.8,0-61.4h-340.4c-9.5-42.5-9.5-42.5,28.4-42.5c184.4,0,368.8,0,553.2,0h652.7
	c23.6,0,52-4.6,33,37.8c-108.7,0-217.6,0-335.8,0v56.8c0,922.1,0,1844.3,4.6,2766.4c0,132.5,52,250.6,137.1,349.9
	c151.4,175,340.4,269.6,562.7,302.6c288.5,42.5,543.8-33,747.1-250.6c94.6-99.3,156-227.1,165.5-368.8c4.6-56.8,9.5-113.5,9.5-170.3
	c0-874.9,0-1745.1,0-2615.2v-70.9c-33,0-61.4,0-94.6,0h-269.2c-23.6,0-47.3,0-33-37.8c1097.2,0,2194.2,0,3296.1,0v1291.1
	c-4.6,0-9.5,0-14.1,0l-23.6-179.8c-28.4-170.3-61.4-335.8-137.1-496.5c-56.8-123-127.6-236.4-227.1-335.8
	c-118.2-113.5-264.8-175-421-208.2c-260.1-56.8-520.2-18.9-785-33v1659.9c165.5,18.9,335.8,33,496.5-37.8
	c127.6-56.8,203.3-156,250.6-283.7c37.8-99.3,61.4-208.2,61.4-316.9c0-14.1,9.5-23.6,23.6-37.8v1465.9c-14.1-18.9-23.6-28.4-23.6-33
	c-18.9-156-70.9-298-146.6-430.4c-99.3-170.3-250.6-269.6-449.3-269.6h-217.6c0,600.6,0,1187,0,1782.9h52c184.4,0,364.2,0,543.8-4.6
	c165.5,0,316.9-47.3,458.6-132.5c85.2-52,170.3-108.7,245.8-179.8c108.7-104.1,193.9-236.4,255.3-378.3
	c56.8-137.1,80.3-274.2,89.8-416.1c4.6-61.4,14.1-123,18.9-189.2c4.6-4.6,14.1-14.1,18.9-23.6v1362H14513.4z"/>
</svg>
