<?xml version="1.0" encoding="utf-8"?>
<!-- Generator: Adobe Illustrator 16.0.0, SVG Export Plug-In . SVG Version: 6.00 Build 0)  -->
<!DOCTYPE svg PUBLIC "-//W3C//DTD SVG 1.1//EN" "http://www.w3.org/Graphics/SVG/1.1/DTD/svg11.dtd">
<svg version="1.1" id="Layer_1" xmlns="http://www.w3.org/2000/svg" xmlns:xlink="http://www.w3.org/1999/xlink" x="0px" y="0px"
	 width="794px" height="381.333px" viewBox="0 0 794 381.333" enable-background="new 0 0 794 381.333" xml:space="preserve">
<path fill-rule="evenodd" clip-rule="evenodd" fill="#BFBFBF" d="M6.857,209.033c23.729,0.092,47.46,0.215,71.189,0.264
	c22.492,0.044,44.985,0.01,67.477,0.01c2.244,0,4.486,0,7.045,0c0,48.671,0,96.708,0,145.94c-48.488,0-97.1,0-145.712,0
	C6.857,306.508,6.857,257.772,6.857,209.033z"/>
<path fill-rule="evenodd" clip-rule="evenodd" fill="#BFBFBF" d="M6.857,26.578c13.905,0,27.811,0,42.12,0c0,4.58,0,9.035,0,13.646
	c-2.218,0.196-4.242,0.375-7.051,0.623c3.065,23.843,6.09,47.366,9.114,70.888c0.447,0.042,0.894,0.083,1.34,0.125
	c3.614-28.366,7.229-56.733,10.875-85.329c8.313,0,16.155,0,25.109,0c3.097,28.146,6.203,56.376,9.308,84.606
	c0.416-0.033,0.833-0.064,1.25-0.096c2.868-23.178,5.736-46.354,8.646-69.859c-2.395-0.437-4.357-0.796-6.48-1.184
	c0-4.393,0-8.68,0-13.366c8.536,0,16.752,0,25.375,0c0,4.349,0,8.625,0,13.437c-1.767,0.256-3.711,0.539-6.196,0.9
	c-1.117,8.195-2.278,16.376-3.34,24.571c-3.651,28.195-7.283,56.392-10.887,84.593c-1.053,8.237-2.116,16.476-2.913,24.739
	c-0.376,3.903-1.477,6.08-6.018,5.759c-5.385-0.385-10.825-0.255-16.228-0.035c-3.64,0.146-5.007-1.051-5.387-4.861
	c-2.399-24.124-5.081-48.221-8.796-72.433c-3.636,25.566-7.271,51.133-10.981,77.224c-7.283,0-14.13,0.242-20.932-0.197
	c-1.439-0.092-3.713-2.555-3.917-4.141c-3.19-24.912-6.06-49.864-9.093-74.797c-2.451-20.143-5.019-40.272-7.557-60.586
	c-2.859-0.187-5.109-0.333-7.36-0.479C6.857,35.742,6.857,31.161,6.857,26.578z"/>
<path fill-rule="evenodd" clip-rule="evenodd" fill="#BFBFBF" d="M328.028,357.746c-23.825-5.132-30.869-23.044-33.924-44.202
	c-2.33-16.141-1.225-31.986,4.162-47.311c7.474-21.259,25.428-30.922,44.982-24.651c9.946,3.192,16.824,10.19,20.651,19.549
	c10.106,24.712,10.292,49.753,0.352,74.579c-5.127,12.812-15.308,19.695-28.724,22.036
	C333.026,357.746,330.527,357.746,328.028,357.746z M339.275,298.277c0-10.617,0.012-21.237-0.01-31.856
	c-0.005-2.287,0.641-5.041-0.39-6.751c-1.617-2.679-4.407-4.651-6.698-6.923c-2.222,2.305-5.25,4.26-6.442,7.01
	c-1.251,2.885-0.956,6.531-0.97,9.847c-0.074,18.113-0.089,36.229,0.001,54.343c0.024,4.564-0.226,9.347,1.045,13.612
	c0.834,2.798,4.177,4.846,6.396,7.229c2.213-2.192,4.762-4.149,6.503-6.668c0.916-1.324,0.538-3.625,0.545-5.487
	C339.293,321.18,339.273,309.729,339.275,298.277z"/>
<path fill-rule="evenodd" clip-rule="evenodd" fill="#BFBFBF" d="M572.966,357.746c-23.477-7.318-32.125-19.074-33.953-44.228
	c-1.111-15.309-0.884-30.378,4.094-44.967c1.918-5.622,4.597-11.242,8.077-16.026c12.472-17.141,37.67-16.851,50.187,0.32
	c7.692,10.553,9.66,22.773,9.626,35.448c-0.012,4.531-0.463,9.061-0.751,14.275c-14.008,0-27.632,0-42.334,0
	c0.471,9.812,0.62,18.906,1.451,27.937c0.455,4.939,3.791,8.415,8.688,9.508c4.911,1.098,9.822,0.432,12.817-4.157
	c2.583-3.955,5.146-8.172,6.453-12.642c1.328-4.533,2.828-6.555,7.673-4.707c1.862,0.712,4.028,0.631,5.981,0.899
	c2.172,16.808-10.842,34.514-27.064,37.21c-1.179,0.194-2.299,0.743-3.447,1.129C577.966,357.746,575.466,357.746,572.966,357.746z
	 M583.129,289.931c-0.481-10.697-0.616-20.633-1.594-30.485c-0.235-2.366-3.263-4.457-5.008-6.676
	c-2.335,1.904-6.448,3.599-6.703,5.747c-1.228,10.356-1.415,20.834-1.977,31.414C573.525,289.931,577.802,289.931,583.129,289.931z"
	/>
<path fill-rule="evenodd" clip-rule="evenodd" fill="#BFBFBF" d="M662.944,24.079c4.016,0.82,8.033,1.64,12.276,2.506
	c0,11.19,0,22.153,0,33.602c-3.494,0-6.88,0-11.126,0c0-3.067,0.356-6.17-0.088-9.154c-0.588-3.948-1.671-7.897-6.796-8.36
	c-4.904-0.441-7.753,1.987-9.433,6.395c-3.332,8.734,0.395,15.832,9.513,17.705c3.003,0.617,6.068,0.942,9.403,1.446
	c0,3.958,0,7.816,0,12.246c-4.401,0.238-8.639,0.467-13.166,0.711c0,28.937,0,57.342,0,86.286c3.452,0.18,6.679,0.347,10.3,0.534
	c0,3.975,0,7.813,0,12.104c-15.082,0-30.15,0-45.711,0c0-3.793,0-7.616,0-11.971c5.254,0.582,5.907-2.451,5.865-7.095
	c-0.229-24.553-0.108-49.111-0.108-73.667c0-1.837,0-3.674,0-5.728c-2.637-0.546-4.789-0.993-7.2-1.492c0-3.992,0-7.862,0-12.126
	c2.22-0.226,4.22-0.43,7.237-0.737c0-3.693-0.087-7.361,0.015-11.025c0.434-15.713,10.249-27.576,25.541-31.009
	c1.188-0.266,2.321-0.775,3.479-1.17C656.279,24.079,659.611,24.079,662.944,24.079z"/>
<path fill-rule="evenodd" clip-rule="evenodd" fill="#BFBFBF" d="M413.007,357.746c-22.545-3.503-30.261-19.352-32.681-39.463
	c-2.149-17.85-2.531-35.692,2.84-53.096c5.304-17.187,16.802-26.11,32.737-24.796c5.229,0.434,10.234,3.592,15.605,5.604
	c1.363-6.901,7.212-4.277,12.458-4.283c0.163,1.139,0.373,1.927,0.374,2.712c0.021,12.057,0.016,24.111,0.016,36.629
	c-5.764,0-11.257,0-17.017,0c-0.556-6.413-0.995-12.961-1.733-19.477c-0.488-4.307-2.461-7.398-7.452-7.595
	c-5.074-0.197-6.958,2.995-7.927,7.127c-0.516,2.2-0.86,4.493-0.869,6.747c-0.068,18.104-0.171,36.209,0.069,54.311
	c0.05,3.833,0.568,8.21,2.51,11.312c1.835,2.934,5.713,6.008,8.9,6.247c2.824,0.211,7.151-2.723,8.653-5.454
	c2.825-5.138,4.089-11.13,6.427-18.013c3.261,0.466,7.397,1.056,11.455,1.635c1.756,19.113-8.367,33.323-28.118,39.853
	C417.172,357.746,415.089,357.746,413.007,357.746z"/>
<path fill-rule="evenodd" clip-rule="evenodd" fill="#BFBFBF" d="M787.39,354.824c-48.728,0-96.771,0-145.183,0
	c0-48.45,0-96.629,0-145.162c48.438,0,96.627,0,145.183,0C787.39,258.076,787.39,306.253,787.39,354.824z"/>
<path fill-rule="evenodd" clip-rule="evenodd" fill="#BFBFBF" d="M228.152,354.986c-8.125,0-15.761,0-23.845,0
	c-5.713-46.503-11.4-92.802-17.104-139.241c-2.372-0.31-4.356-0.567-6.638-0.864c0-4.681,0-9.195,0-14.154
	c13.606,0,27.212,0,41.194,0c0,4.597,0,9.086,0,14.048c-2.029,0.297-4.172,0.607-6.884,1.003
	c2.895,23.551,5.771,46.944,8.648,70.343c0.432,0.043,0.864,0.087,1.297,0.13c3.745-28.367,7.491-56.732,11.292-85.517
	c7.961,0,15.773,0,24.677,0c3.232,28.203,6.5,56.727,9.768,85.252c0.364,0.006,0.728,0.014,1.09,0.021
	c2.927-23.269,5.854-46.54,8.818-70.111c-2.125-0.374-4.074-0.718-6.229-1.1c0-4.715,0-9.22,0-14.118c8.206,0,16.232,0,24.776,0
	c0,4.539,0,9.17,0,14.283c-1.873,0.198-3.856,0.406-6.403,0.675c-5.985,46.444-11.967,92.868-17.962,139.389
	c-8.768,0-16.837,0-25.524,0c-2.965-25.674-5.912-51.192-8.857-76.713c-0.386-0.056-0.771-0.113-1.159-0.17
	C235.464,303.709,231.818,329.28,228.152,354.986z"/>
<path fill-rule="evenodd" clip-rule="evenodd" fill="#BFBFBF" d="M478.046,167.471c2.778,0.204,4.81,0.353,7.303,0.537
	c0,3.912,0,7.75,0,12.064c-14.181,0-28.423,0-43.094,0c0-3.837,0-7.667,0-11.964c1.741-0.207,3.499-0.417,5.571-0.664
	c0-42.378,0-84.55,0-127.022c-1.884-0.307-3.65-0.596-5.674-0.927c0-4.333,0-8.388,0-12.857c11.813,0,23.383,0,35.587,0
	c0,15.824,0,31.74,0,47.748c5.042-2.854,9.271-6.352,14.116-7.789c15.938-4.728,27.749,3.251,28.546,19.805
	c1.022,21.186,0.958,42.425,1.314,63.642c0.094,5.598,0.015,11.2,0.015,17.178c2.034,0.315,3.791,0.588,5.961,0.924
	c0,3.782,0,7.628,0,11.94c-11.724,0-23.456,0-35.956,0c0-2.258,0.001-4.477,0-6.695c-0.001-26.441,0.016-52.884-0.022-79.325
	c-0.005-3.682,0.636-8.167-4.481-8.94c-4.903-0.741-6.814,3.08-8.185,6.978c-0.475,1.351-0.955,2.799-0.957,4.203
	C478.03,119.81,478.046,143.312,478.046,167.471z"/>
<path fill-rule="evenodd" clip-rule="evenodd" fill="#BFBFBF" d="M529.354,341.8c2.718,0.461,4.519,0.768,6.562,1.115
	c0,4.032,0,7.888,0,12.039c-11.747,0-23.131,0-35.521,0c0-2.131,0-4.31,0-6.486c0-24.775,0-49.551-0.002-74.326
	c0-1.457,0.081-2.924-0.052-4.371c-0.382-4.215,0.562-9.939-5.336-10.364c-5.808-0.417-7.883,4.736-8.647,9.668
	c-0.599,3.873-0.51,7.868-0.521,11.81c-0.047,17.699,0.173,35.397-0.13,53.09c-0.1,5.879,0.568,9.985,8.127,8.479
	c0,4.331,0,8.192,0,12.433c-14.438,0-28.677,0-43.248,0c0-3.902,0-7.571,0-11.752c1.679-0.475,3.556-1.005,5.615-1.588
	c0.107-1.816,0.289-3.447,0.29-5.078c0.016-38.725-0.043-77.448,0.091-116.172c0.015-4.237-0.548-7.065-5.96-6.222
	c0-4.573,0-8.835,0-13.446c11.552,0,22.907,0,35.019,0c0,16.131,0,32.201,0,50.444c6.841-8.326,13.944-11.509,22.848-11.001
	c10.447,0.598,16.758,5.139,19.13,15.343c0.981,4.217,1.521,8.629,1.558,12.958c0.185,22.067,0.142,44.137,0.177,66.206
	C529.356,336.836,529.354,339.094,529.354,341.8z"/>
<path fill-rule="evenodd" clip-rule="evenodd" fill="#BFBFBF" d="M575.924,175.719c-8.55,9.573-18.841,10.509-29.7,6.117
	c-11.922-4.823-14.918-15.678-15.623-26.965c-1.562-24.981,10.015-38.169,35.239-41.179c1.824-0.218,3.627-0.6,5.836-0.97
	c0-8.688,0.417-17.229-0.26-25.682c-0.198-2.474-3.058-5.774-5.493-6.794c-3.957-1.658-7.688,0.731-8.724,4.79
	c-1.73,6.774-2.63,13.762-3.982,21.237c-5.164,0-11.029,0-17.123,0c-0.164-1.018-0.399-1.805-0.401-2.593
	c-0.023-11.633-0.016-23.267-0.016-34.798c9.333-2.808,11.977-1.897,15.648,5.551c7.722-6.579,16.452-9.167,26.548-7.218
	c15.495,2.991,22.227,10.293,22.584,26.355c0.471,21.008,0.414,42.027,0.659,63.041c0.031,2.785,0.508,5.565,0.929,9.893
	c3.128-2.172,5-3.472,6.864-4.773c7.075,10.498,1.971,21.102-10.847,22.379C589.439,184.97,581.423,183.954,575.924,175.719z
	 M571.644,126.322c-0.606-0.521-1.213-1.041-1.819-1.561c-2.641,1.907-6.388,3.239-7.726,5.82
	c-5.319,10.272-5.029,21.188-1.086,31.836c0.685,1.85,4.294,3.977,6.137,3.648c1.778-0.319,4.22-3.602,4.296-5.659
	C571.862,149.058,571.644,137.686,571.644,126.322z"/>
<path fill-rule="evenodd" clip-rule="evenodd" fill="#BFBFBF" d="M777.016,75.262c0.499-7.992,4.771-8.649,10.603-6.932
	c0,11.112,0,22.299,0,33.989c-5.395,0-10.88,0-16.702,0c-0.507-4.678-0.657-9.625-1.658-14.395c-1.386-6.61-5.747-9.355-11.13-7.714
	c-4.849,1.479-7.185,7.372-4.183,12.951c2.207,4.099,5.561,7.694,8.864,11.062c3.778,3.851,7.972,7.317,12.151,10.75
	c15.068,12.376,18.062,28.966,15.219,46.82c-1.55,9.729-8.107,16.76-17.937,19.731c-10.758,3.252-20.092,0.98-27.713-8.617
	c-0.846,2.605-1.515,4.667-2.332,7.184c-3.479,0-7.142,0-11.306,0c0-11.57,0-23.321,0-35.561c5.85,0,11.943,0,18.193,0
	c0.458,4.411,0.666,8.762,1.437,13.012c0.506,2.792,1.111,6.196,2.97,7.948c2.109,1.987,5.857,3.622,8.537,3.192
	c2.257-0.361,5.074-3.596,5.778-6.086c2.094-7.399-1.548-13.394-6.637-18.38c-6.832-6.695-14.313-12.756-20.862-19.705
	c-10.59-11.236-13.17-24.663-8.59-39.325C737.697,66.046,761.535,57.591,777.016,75.262z"/>
<path fill-rule="evenodd" clip-rule="evenodd" fill="#BFBFBF" d="M351.127,74.866c0.995-2.582,1.799-4.666,2.673-6.93
	c2.5,0,4.94,0,7.763,0c0,11.503,0,22.833,0,34.524c-5.644,0-11.127,0-17.361,0c0-4.403,0.87-8.772-0.251-12.551
	c-1.052-3.543-3.664-7.246-6.663-9.333c-1.57-1.092-6.243,0.287-8.117,2.042c-3.639,3.409-3.226,8.405-0.249,11.94
	c4.785,5.681,10.117,10.985,15.719,15.875c11.814,10.311,20.603,21.981,21.633,38.45c1.238,19.793-11.287,35.099-29.35,33.604
	c-6.273-0.52-12.246-4.663-18.788-7.326c-0.172,0.477-0.966,2.667-1.828,5.046c-3.384,0-6.827,0-10.578,0
	c0-12.071,0-23.811,0-35.855c6.069,0,11.823,0,17.926,0c0.571,4.996,0.746,10.144,1.823,15.095
	c1.753,8.076,5.949,11.149,11.831,9.469c5.026-1.435,8.017-8.503,4.832-14.732c-2.756-5.388-7.037-10.141-11.246-14.606
	c-6.112-6.483-13.355-11.961-19.056-18.758c-8.691-10.361-9.728-22.744-5.918-35.336C311.875,65.809,336.291,57.54,351.127,74.866z"
	/>
<path fill-rule="evenodd" clip-rule="evenodd" fill="#BFBFBF" d="M423.517,72.493c1.764-7.762,7.824-3.769,12.727-5.129
	c0,13.284,0,26.009,0,39.055c-5.451,0-10.786,0-16.522,0c-0.568-5.884-1.087-11.812-1.731-17.726
	c-0.551-5.06-2.658-8.955-8.46-8.779c-5.927,0.179-7.673,4.496-7.704,9.426c-0.134,21.026-0.112,42.054,0.038,63.079
	c0.017,2.391,0.513,5.421,2.007,7.009c2.351,2.501,5.691,5.472,8.696,5.564c2.968,0.091,7.383-2.431,8.78-5.069
	c2.94-5.55,4.322-11.927,6.462-18.318c2.752,0.382,5.888,0.492,8.79,1.371c1.241,0.376,2.776,2.308,2.854,3.61
	c0.962,16.455-10.39,32.396-25.198,35.73c-16,3.605-31.185-4.766-37.809-21.249c-6.602-16.431-7.067-33.71-5.224-50.953
	c0.912-8.553,2.875-17.292,6.112-25.233c6.157-15.107,21.862-22.854,35.259-18.312C416.223,67.801,419.445,70.241,423.517,72.493z"
	/>
<path fill-rule="evenodd" clip-rule="evenodd" fill="#BFBFBF" d="M724.031,67.371c0,5.01,0,8.871,0,13.07
	c-4.14,0.265-7.984,0.511-12.346,0.79c0,12.6,0,24.832,0,37.061c0,12.479-0.017,24.961,0.006,37.44
	c0.017,8.411,0.874,8.888,8.189,4.699c6.821,7.352,6.832,8.489-0.457,15.218c-6.688,6.178-14.322,9.047-23.405,6.067
	c-8.915-2.921-12.459-9.904-13.225-18.498c-0.698-7.844-0.999-15.741-1.057-23.618c-0.145-19.312-0.048-38.625-0.048-58.187
	c-2.787-0.421-5.175-0.783-7.822-1.181c0-4.095,0-7.979,0-12.127c2.493-0.239,4.719-0.453,7.61-0.731c0-7.938,0-15.947,0-24.37
	c10.285,0,19.909,0,30.028,0c0,8.001,0,15.835,0,24.367C715.794,67.371,719.617,67.371,724.031,67.371z"/>
<path fill-rule="evenodd" clip-rule="evenodd" fill="#BFBFBF" d="M286.611,67.785c4.844,0,8.52,0,12.549,0c0,4.333,0,8.188,0,12.668
	c-3.876,0.226-7.71,0.448-11.929,0.693c-0.155,1.839-0.404,3.423-0.405,5.007c-0.026,23.325-0.055,46.648,0.045,69.972
	c0.009,2.148,0.897,4.292,1.376,6.438c2.228-0.538,4.457-1.076,7.344-1.774c1.305,1.974,3.001,4.542,4.917,7.439
	c-4.067,6.228-8.908,11.301-16.255,13.59c-12.653,3.943-24.117-3.081-26.159-16.368c-0.755-4.914-1.136-9.929-1.167-14.901
	c-0.138-22.49-0.089-44.981-0.123-67.473c0-0.401-0.188-0.804-0.4-1.656c-2.174-0.351-4.528-0.729-7.199-1.157
	c0-4.04,0-7.898,0-12.148c2.339-0.245,4.54-0.477,7.481-0.786c0-7.962,0-15.96,0-24.346c10.226,0,19.709,0,29.925,0
	C286.611,50.863,286.611,58.87,286.611,67.785z"/>
<path fill-rule="evenodd" clip-rule="evenodd" fill="#BFBFBF" d="M178.121,67.97c10.758,0,21.081,0,31.533,0
	c0.808,2.285,1.547,4.377,2.436,6.895c8.619-9.329,18.817-11.394,30.886-7.876c0,11.528,0,23.275,0,35.512
	c-3.665,0-7.466,0-11.247,0c-0.424-4.155-0.145-8.315-1.447-11.901c-0.965-2.661-3.6-5.625-6.182-6.576
	c-3.827-1.41-7.402,0.703-8.952,4.724c-0.955,2.475-1.74,5.203-1.753,7.823c-0.126,22.884-0.062,45.768-0.03,68.653
	c0.001,0.586,0.289,1.171,0.548,2.151c2.768,0.23,5.573,0.461,8.708,0.722c0,4.01,0,7.843,0,12.062c-14.883,0-29.521,0-44.524,0
	c0-3.933,0-7.604,0-11.738c1.517-0.328,3.251-0.705,5.093-1.102c0.208-0.508,0.637-1.07,0.64-1.633
	c0.072-26.835,0.193-53.671-0.028-80.504c-0.016-1.929-2.545-3.837-3.906-5.755c-0.591,0.281-1.183,0.562-1.774,0.842
	C178.121,76.395,178.121,72.522,178.121,67.97z"/>
<path fill-rule="evenodd" clip-rule="evenodd" fill="#BFBFBF" d="M164.454,68.065c0,33.446,0,66.237,0,99.425
	c2.53,0.184,4.706,0.342,7.17,0.522c0,4.161,0,7.994,0,12.179c-14.526,0-28.751,0-43.35,0c0-3.894,0-7.562,0-11.772
	c1.608-0.346,3.503-0.752,5.716-1.227c0-28.383,0-56.795,0-85.574c-1.79-0.456-3.7-0.941-5.81-1.479c0-3.974,0-7.841,0-12.073
	C140.18,68.065,151.907,68.065,164.454,68.065z"/>
<path fill-rule="evenodd" clip-rule="evenodd" fill="#BFBFBF" d="M132.656,55.149c0-9.494,0-18.761,0-28.477
	c10.502,0,20.763,0,31.345,0c0,9.499,0,18.775,0,28.477C153.583,55.149,143.314,55.149,132.656,55.149z"/>
</svg>
