<?xml version="1.0" encoding="utf-8"?>
<!-- Generator: Adobe Illustrator 17.1.0, SVG Export Plug-In . SVG Version: 6.00 Build 0)  -->
<!DOCTYPE svg PUBLIC "-//W3C//DTD SVG 1.1//EN" "http://www.w3.org/Graphics/SVG/1.1/DTD/svg11.dtd">
<svg version="1.1" id="Canvas" xmlns="http://www.w3.org/2000/svg" xmlns:xlink="http://www.w3.org/1999/xlink" x="0px" y="0px"
	 width="14513.4px" height="14513.4px" viewBox="0 0 14513.4 14513.4" enable-background="new 0 0 14513.4 14513.4"
	 xml:space="preserve">
<path fill="#010202" d="M9186.7,8706.7h460v-320h-460v-540h600v-310h-960v2100h1000v-310h-640V8706.7z M10256.7,9676.7
	c0,320-270,590-600,590h-4810c-330,0-590-270-590-590v-2160c0-320,260-590,590-590h4810c330,0,600,270,600,590V9676.7z
	 M5416.7,4276.7l250,800h10l240-800h370l-440,1230v870h-360v-870l-440-1230H5416.7z M6486.7,4786.7c0-300,180-540,560-540
	s550,240,550,540v1080c0,300-170,540-550,540s-560-240-560-540V4786.7z M7946.7,4276.7h360v1580c0,160,60,230,190,230
	s190-70,190-230v-1580h370v1570c0,360-210,560-560,560c-340,0-550-200-550-560V4276.7z M4636.7,7846.7h350v1790h360v-1790h350v-310
	h-1060V7846.7z M6656.7,9116.7c0,160-60,230-190,230s-190-70-190-230v-1580h-360v1570c0,360,200,560,550,560c340,0,550-200,550-560
	v-1570h-360V9116.7z M7046.7,6086.7c140,0,190-70,190-230v-1060c0-160-50-240-190-240c-150,0-200,80-200,240v1060
	C6846.7,6016.7,6896.7,6086.7,7046.7,6086.7z M7876.7,9336.7h-150v-640h120c210,0,300,100,300,320
	C8146.7,9226.7,8076.7,9336.7,7876.7,9336.7z M7726.7,7826.7h140c160,0,230,110,230,300c0,180-100,270-240,270h-130V7826.7z
	 M8216.7,8526.7c170-70,250-260,250-440c0-350-180-550-560-550h-540v2100h570c410,0,570-260,570-610
	C8506.7,8756.7,8396.7,8606.7,8216.7,8526.7z"/>
</svg>
